<svg width="24" height="24" viewBox="0 0 24 24" fill="none" xmlns="http://www.w3.org/2000/svg">
<path d="M22.908 16.7944L18.6478 12.5342C17.7968 11.6831 16.4189 11.6828 15.5677 12.5342L13.6746 14.4273L9.57101 10.3237L11.2182 8.67655C12.2029 7.69175 12.2029 6.08933 11.2182 5.10454L7.44978 1.33613C6.46264 0.348942 4.86496 0.348848 3.87772 1.33613C3.62638 1.58747 1.93649 3.27736 1.65834 3.55551C-0.550175 5.76407 -0.550175 9.35773 1.65834 11.5662L12.432 22.3398C14.6457 24.5536 18.2288 24.5538 20.4427 22.3398C20.7237 22.0588 22.621 20.1615 22.908 19.8745C23.7592 19.0234 23.7593 17.6457 22.908 16.7944ZM5.02208 2.48048C5.37683 2.12578 5.95063 2.12583 6.30533 2.48048L10.0737 6.24885C10.4274 6.60271 10.4274 7.17838 10.0737 7.5321L9.57092 8.03488L4.5193 2.98326L5.02208 2.48048ZM19.2983 21.1955C17.7172 22.7767 15.1578 22.7769 13.5763 21.1955L2.80269 10.4219C1.22517 8.84436 1.22517 6.27744 2.80269 4.69992L3.37494 4.12771L8.42656 9.17933L7.85436 9.75153C7.53833 10.0675 7.53833 10.5799 7.85436 10.8959L13.1023 16.1438C13.4183 16.4598 13.9307 16.4598 14.2467 16.1438L14.8189 15.5717L19.8705 20.6232L19.2983 21.1955ZM21.7636 18.7302L21.0149 19.4789L15.9633 14.4273L16.7121 13.6786C16.9308 13.4598 17.2846 13.4598 17.5034 13.6786L21.7636 17.9388C21.9824 18.1575 21.9824 18.5115 21.7636 18.7302Z" fill="#fff"/>
<path d="M14.2879 0C12.8503 0 11.4658 0.307031 10.1732 0.912514C9.76848 1.10212 9.59406 1.58386 9.78362 1.98862C9.97314 2.39329 10.455 2.56748 10.8597 2.3782C11.9359 1.87406 13.0893 1.61845 14.2879 1.61845C18.7499 1.61845 22.38 5.24858 22.38 9.71056C22.38 10.7441 22.188 11.7504 21.8096 12.7013C21.6443 13.1165 21.847 13.5871 22.2622 13.7524C22.6775 13.9177 23.1481 13.7149 23.3134 13.2998C23.768 12.1575 23.9985 10.9499 23.9985 9.71056C23.9984 4.35613 19.6423 0 14.2879 0Z" fill="#fff"/>
<path d="M13.2049 3.32575C12.7641 3.39963 12.4667 3.81682 12.5406 4.25753C12.6144 4.69835 13.0316 4.99586 13.4724 4.92189C16.7251 4.3766 19.5518 7.14587 19.0943 10.3988C19.0321 10.8414 19.3404 11.2507 19.783 11.3128C19.8212 11.3182 19.8591 11.3208 19.8967 11.3208C20.2936 11.3208 20.6401 11.0285 20.697 10.6242C21.3088 6.27264 17.5179 2.60299 13.2049 3.32575Z" fill="#fff"/>
</svg>
