<svg width="30" height="27" viewBox="0 0 30 27" fill="none" xmlns="http://www.w3.org/2000/svg">
<path d="M13.4845 3.15016C12.0975 1.73174 10.2522 0.95 8.29029 0.95C6.32777 0.95 4.48309 1.73174 3.09611 3.15016L3.0961 3.15017C0.242344 6.07073 0.235262 10.8156 3.07122 13.7472L3.07084 13.7474L3.07569 13.7529L13.3312 25.2741L13.3687 25.2411L13.3314 25.2743L13.3314 25.2743C13.7703 25.773 14.3631 26.05 14.9988 26.05H15C15.6363 26.05 16.2291 25.7736 16.6675 25.2765L26.9266 13.7529L26.928 13.7541L3.11068 13.7161C0.289985 10.8042 0.295867 6.0875 3.13186 3.18512C4.50956 1.77619 6.34139 1 8.29029 1C10.2386 1 12.071 1.77619 13.4487 3.18512M13.4845 3.15016L13.4827 3.15188C13.4841 3.15268 13.4868 3.15429 13.49 3.15669M13.4845 3.15016C13.4844 3.1501 13.4844 3.15004 13.4843 3.14997L13.4825 3.15176C13.4823 3.15163 13.4821 3.15153 13.4819 3.15145L13.4819 3.15142C13.482 3.15152 13.4822 3.15165 13.4825 3.15179L13.4487 3.18512M13.4845 3.15016C13.4866 3.15238 13.4885 3.15462 13.49 3.15669M13.49 3.15669C13.4923 3.15983 13.4939 3.16258 13.4948 3.16427C13.4951 3.1648 13.4953 3.16522 13.4955 3.16552L13.4956 3.16574L13.4956 3.16577L13.496 3.16642C13.496 3.16642 13.4958 3.16615 13.4956 3.16578C13.4955 3.16555 13.4953 3.16528 13.4952 3.16502C13.4951 3.16483 13.4949 3.1646 13.4948 3.16434C13.4938 3.16278 13.4919 3.16006 13.489 3.15712C13.489 3.15712 13.489 3.15711 13.489 3.15711C13.4866 3.1547 13.4841 3.15291 13.4827 3.15193L13.4487 3.18512M13.49 3.15669C13.4921 3.15828 13.4944 3.16021 13.4966 3.16247L13.4979 3.16371L13.4978 3.16373L15 4.79293M13.4487 3.18512C13.45 3.18639 13.4507 3.18784 13.4514 3.18918C13.452 3.19035 13.4526 3.19143 13.4534 3.19226C13.4546 3.19345 13.4559 3.1942 13.4573 3.19494C13.4586 3.19568 13.4599 3.19643 13.4611 3.19762L14.966 4.82979L15 4.79293M15 4.79293L15.034 4.82981L16.5081 3.16248C16.5076 3.16315 16.5072 3.16375 16.5069 3.16426C16.5068 3.16439 16.5067 3.1645 16.5066 3.16462L16.5067 3.16439C16.5067 3.16433 16.5068 3.16427 16.5068 3.1642C16.5077 3.16253 16.5093 3.15986 16.5116 3.15676M15 4.79293L16.5039 3.16371L16.505 3.16245L16.505 3.16247C16.5072 3.16025 16.5095 3.15834 16.5116 3.15676M16.5116 3.15676C16.5131 3.1547 16.515 3.15245 16.5172 3.15016" fill="#515855" stroke="#515855" stroke-width="0.1"/>
</svg>
