<svg width="28" height="26" viewBox="0 0 28 26" fill="none" xmlns="http://www.w3.org/2000/svg">
    <path d="M25.0497 3.76258C24.4112 3.12384 23.6532 2.61714 22.8189 2.27144C21.9845 1.92574 21.0903 1.7478 20.1872 1.7478C19.2841 1.7478 18.3898 1.92574 17.5555 2.27144C16.7211 2.61714 15.9631 3.12384 15.3247 3.76258L13.9997 5.08758L12.6747 3.76258C11.385 2.47297 9.63595 1.74847 7.81216 1.74847C5.98837 1.74847 4.23928 2.47297 2.94966 3.76258C1.66005 5.0522 0.935547 6.80129 0.935547 8.62508C0.935547 10.4489 1.66005 12.198 2.94966 13.4876L4.27466 14.8126L13.9997 24.5376L23.7247 14.8126L25.0497 13.4876C25.6884 12.8491 26.1951 12.0911 26.5408 11.2568C26.8865 10.4225 27.0644 9.52819 27.0644 8.62508C27.0644 7.72197 26.8865 6.82771 26.5408 5.99339C26.1951 5.15907 25.6884 4.40103 25.0497 3.76258V3.76258Z" stroke="#515855" stroke-width="1.5" stroke-linecap="round" stroke-linejoin="round"/>
</svg>
