<svg width="30" height="27" viewBox="0 0 30 27" fill="none" xmlns="http://www.w3.org/2000/svg">
<path d="M3.0961 3.15017L3.09611 3.15016C4.48309 1.73174 6.32777 0.95 8.29029 0.95C10.2522 0.95 12.0975 1.73174 13.4845 3.15016M3.0961 3.15017L3.11068 13.7161C0.289985 10.8042 0.295867 6.0875 3.13186 3.18512C4.50956 1.77619 6.34139 1 8.29029 1C10.2386 1 12.071 1.77619 13.4487 3.18512M3.0961 3.15017C0.242453 6.07062 0.235262 10.8152 3.0709 13.7469M3.0961 3.15017L3.0709 13.7469M13.4845 3.15016L13.4827 3.15188C13.4841 3.15268 13.4868 3.15429 13.49 3.15669M13.4845 3.15016C13.4844 3.1501 13.4844 3.15004 13.4843 3.14998L13.4825 3.15176C13.4821 3.15155 13.4819 3.15141 13.4818 3.15135C13.4809 3.15088 13.4813 3.15106 13.4825 3.15179L13.4487 3.18512M13.4845 3.15016C13.4866 3.15238 13.4885 3.15462 13.49 3.15669M13.49 3.15669C13.4923 3.15982 13.4939 3.16257 13.4948 3.16426C13.4951 3.16479 13.4953 3.16521 13.4955 3.16551L13.4956 3.16574L13.4956 3.16577L13.496 3.16641C13.496 3.16641 13.4958 3.16615 13.4956 3.16578C13.4955 3.16555 13.4953 3.16528 13.4952 3.16502C13.4951 3.16483 13.4949 3.1646 13.4947 3.16434C13.4938 3.16277 13.4919 3.16005 13.489 3.15712L13.4534 3.19226M13.49 3.15669C13.4921 3.15828 13.4944 3.16021 13.4966 3.16247L13.4979 3.16371L13.4978 3.16373L15 4.79293M13.4534 3.19226L13.489 3.15711C13.4866 3.1547 13.4841 3.15291 13.4827 3.15193L13.4487 3.18512M13.4534 3.19226C13.4546 3.19345 13.4559 3.1942 13.4573 3.19494C13.4586 3.19568 13.4599 3.19643 13.4611 3.19762L14.966 4.82979L15 4.79293M13.4534 3.19226C13.4526 3.19143 13.452 3.19035 13.4514 3.18918C13.4507 3.18784 13.45 3.18639 13.4487 3.18512M15 4.79293L16.5039 3.16371L16.505 3.16245L16.505 3.16247C16.5072 3.16025 16.5095 3.15834 16.5116 3.15676M15 4.79293L15.034 4.82981L16.5406 3.19762C16.5418 3.19643 16.5431 3.19568 16.5444 3.19494C16.5458 3.1942 16.5471 3.19345 16.5483 3.19226L26.932 13.7456C29.7641 10.8145 29.7565 6.07022 26.9062 3.15019L26.9062 3.15015C25.5186 1.73174 23.6739 0.95 21.7114 0.95C19.7495 0.95 17.9042 1.73174 16.5172 3.15016M3.0709 13.7469C3.07232 13.7489 3.07406 13.7511 3.07614 13.7534L13.3312 25.2741C13.3312 25.2742 13.3313 25.2742 13.3314 25.2743L13.3314 25.2743L13.3687 25.2411C13.7987 25.7298 14.3782 26 14.9988 26H15C15.6212 26 16.2006 25.7304 16.63 25.2435M3.0709 13.7469L16.63 25.2435M16.63 25.2435L16.6674 25.2767L16.6675 25.2765L16.63 25.2435ZM16.5172 3.15016C16.5173 3.1501 16.5173 3.15004 16.5174 3.14998L16.5192 3.15176C16.5191 3.1518 16.5191 3.15184 16.519 3.15188M16.5172 3.15016L16.519 3.15188M16.5172 3.15016C16.515 3.15245 16.5131 3.1547 16.5116 3.15676M16.519 3.15188C16.5176 3.15268 16.5148 3.15433 16.5116 3.15676M16.519 3.15188L16.5116 3.15676M15.4609 6.17862L15.4608 6.1786C15.4569 6.18258 15.4531 6.18547 15.4502 6.18746C15.449 6.18824 15.4479 6.18897 15.4469 6.18959C15.4448 6.19297 15.4409 6.19873 15.4355 6.2042L15.4346 6.20509C15.4017 6.2367 15.3616 6.25837 15.329 6.27596C15.3209 6.28035 15.3132 6.28449 15.3063 6.28846C15.3005 6.29189 15.2954 6.29568 15.2882 6.30098C15.2858 6.30277 15.2832 6.30474 15.2802 6.30692C15.2698 6.31451 15.2555 6.32451 15.2382 6.33144M15.4609 6.17862L15.2194 6.28512M15.4609 6.17862L15.462 6.17737M15.4609 6.17862L15.462 6.17737M15.2382 6.33144C15.2381 6.33148 15.238 6.33152 15.2379 6.33155L15.2194 6.28512M15.2382 6.33144C15.2383 6.3314 15.2384 6.33137 15.2385 6.33133L15.2194 6.28512M15.2382 6.33144C15.1623 6.36277 15.0818 6.38036 15 6.38036C14.918 6.38036 14.8375 6.36273 14.7614 6.33133M15.2194 6.28512C15.1488 6.31429 15.0747 6.33036 15 6.33036C14.9253 6.33036 14.8511 6.31429 14.7805 6.28512M14.7614 6.33133C14.7616 6.3314 14.7618 6.33148 14.762 6.33155L14.7805 6.28512M14.7614 6.33133L14.7805 6.28512M14.7614 6.33133L14.7805 6.28512M4.00281 12.8775C4.00238 12.877 4.00195 12.8766 4.00154 12.8762C3.99965 12.8744 3.99799 12.8731 3.99694 12.8724C3.99625 12.8719 3.9955 12.8715 3.99551 12.8715C3.99552 12.8715 3.99579 12.8717 3.99651 12.8721C3.99747 12.8726 3.99994 12.874 4.0031 12.8763C4.00447 12.8786 4.00555 12.8807 4.00602 12.8815L4.00612 12.8817C4.00658 12.8826 4.00666 12.8827 4.00654 12.8825C4.00647 12.8824 4.00633 12.8822 4.00615 12.8819C4.00585 12.8814 4.00532 12.8806 4.00454 12.8796C4.00406 12.8789 4.00349 12.8782 4.00281 12.8775ZM4.00281 12.8775C4.0034 12.8781 4.004 12.8788 4.0046 12.8795L4.00476 12.8794L4.00157 12.8762C4.00202 12.8766 4.00243 12.8771 4.00281 12.8775ZM15.462 6.17737L17.424 4.05229C17.4242 4.05211 17.4243 4.05192 17.4245 4.05174C18.5717 2.88356 20.0934 2.24048 21.7114 2.24048C23.3343 2.24048 24.8604 2.88672 26.0076 4.06054C28.3769 6.48815 28.3769 10.4375 26.0076 12.8645C26.0031 12.869 25.9999 12.8737 25.9978 12.8771C25.9948 12.8794 25.991 12.8826 25.9873 12.8869L15.7268 24.412L15.7266 24.4122C15.5281 24.6376 15.2701 24.7589 15 24.7589H14.9994C14.7299 24.7589 14.4725 24.6377 14.2721 24.4104L14.272 24.4102M15.462 6.17737L14.272 24.4102M14.272 24.4102L4.01501 12.8876L14.272 24.4102ZM16.519 3.15193L16.553 3.18512L16.519 3.15193ZM14.5529 6.18935C14.5542 6.19017 14.5553 6.19079 14.556 6.19122L14.5564 6.19148C14.5577 6.1922 14.5581 6.19251 14.5581 6.1925C14.5581 6.1925 14.5572 6.19188 14.5562 6.19101L14.5894 6.15357L14.5515 6.18628C14.5504 6.18493 14.5498 6.18395 14.5498 6.18393C14.5497 6.18392 14.5498 6.18405 14.5501 6.18447L14.5511 6.18628L14.5513 6.18654C14.5517 6.18725 14.5522 6.18821 14.5529 6.18935ZM12.5824 4.05647C12.5826 4.05665 12.5828 4.05683 12.583 4.05702L12.6187 4.02202L12.5819 4.05592L12.5824 4.05647ZM3.99354 4.06053L3.95777 4.02559L3.99351 4.06056C3.99352 4.06055 3.99353 4.06054 3.99354 4.06053ZM3.95777 12.8988L3.99353 12.8639C3.99347 12.8638 3.9934 12.8637 3.99334 12.8637L3.95777 12.8988Z" fill="#515855" stroke="#515855" stroke-width="0.1"/>
</svg>
