<svg width="60" height="60" viewBox="0 0 60 60" fill="none" xmlns="http://www.w3.org/2000/svg">
<mask id="path-1-inside-1_194:1746" fill="white">
<path d="M49.5314 23.8528L45.4404 19.7622L45.5752 19.1962L50.0486 17.8728C50.3884 17.7724 50.622 17.46 50.622 17.1056C50.622 16.7512 50.3884 16.4388 50.0486 16.3384L45.5752 15.015L44.6002 10.9204C44.5142 10.5598 44.1924 10.3056 43.822 10.3056C43.4516 10.3056 43.1298 10.5598 43.0438 10.9204L42.0696 15.015L41.0076 15.3292L34.618 8.94043C33.4368 7.75883 31.8656 7.10803 30.1954 7.10803C28.5244 7.10803 26.954 7.75883 25.7728 8.94043L10.8596 23.8528C8.42056 26.2914 8.42056 30.2602 10.8596 32.6988L11.6064 33.4456L10.7282 36.5624C10.2672 38.9894 7.44776 43.1624 7.41956 43.2042C7.20396 43.5218 7.24376 43.948 7.51556 44.2194L16.386 53.0898C16.5406 53.2444 16.7454 53.3242 16.9516 53.3242C17.1016 53.3242 17.2532 53.282 17.386 53.1956L22.1524 50.1104C23.3764 49.318 24.5482 48.443 25.6702 47.509L25.7726 47.6112C26.9538 48.7928 28.5242 49.4432 30.1952 49.4432C31.8656 49.4432 33.4366 48.7928 34.6178 47.6112L49.531 32.6988C51.9696 30.2598 51.9696 26.2918 49.5314 23.8528ZM42.9672 16.418C43.2422 16.3368 43.4524 16.1148 43.5188 15.836L43.822 14.5614L44.126 15.836C44.1924 16.115 44.4026 16.3368 44.6776 16.418L47.0018 17.1056L44.6776 17.7932C44.4026 17.8744 44.1924 18.0964 44.126 18.3752L43.822 19.6498L43.5188 18.3752C43.4524 18.0962 43.2422 17.8744 42.9672 17.7932L40.643 17.1056L42.9672 16.418ZM21.2828 48.7676L17.0602 51.5012L9.10776 43.5488C9.93116 42.2696 11.8782 39.0788 12.2844 36.9288L15.6954 24.8218C15.829 24.1202 16.4516 23.6382 17.1766 23.7094C17.5462 23.7446 17.879 23.9226 18.1134 24.211C18.3392 24.4884 18.4462 24.8344 18.4166 25.1892L16.826 32.0822C16.7464 32.4302 16.9056 32.7888 17.2182 32.9618C17.5284 33.1348 17.9182 33.0806 18.1714 32.8278L29.6566 21.343C30.1042 20.8958 30.88 20.8972 31.3262 21.343C31.5488 21.566 31.6722 21.8626 31.6722 22.1778C31.6722 22.4934 31.5488 22.79 31.3262 23.013C31.3262 23.013 31.3262 23.0132 31.326 23.0132L22.8762 31.4634C22.5638 31.7758 22.5638 32.2822 22.8762 32.5946C23.1886 32.907 23.695 32.907 24.0074 32.5946L34.7918 21.8098C35.2528 21.3496 36.0012 21.3496 36.4622 21.8098C36.6848 22.0328 36.8076 22.3294 36.8076 22.645C36.8076 22.9602 36.685 23.2568 36.4622 23.4798L33.6434 26.2984C33.643 26.2988 33.6424 26.2992 33.6418 26.2996L25.677 34.2644C25.3646 34.5768 25.3646 35.0832 25.677 35.3956C25.8332 35.5518 26.038 35.63 26.2426 35.63C26.4472 35.63 26.652 35.5518 26.8082 35.3956L34.774 27.4302C35.2444 26.9606 36.0094 26.9608 36.481 27.4308C36.9514 27.9016 36.9514 28.668 36.481 29.1386L34.1842 31.4354L28.0866 37.5326C27.7742 37.845 27.7742 38.3514 28.0866 38.6638C28.399 38.9762 28.9054 38.9762 29.2178 38.6638L29.6464 38.2352C29.6468 38.2348 29.6472 38.2348 29.6474 38.2344L35.3154 32.5664C35.7506 32.1308 36.5108 32.1296 36.9474 32.5668C37.1654 32.7844 37.2856 33.0742 37.2856 33.3824C37.2856 33.6906 37.1652 33.9804 36.9474 34.1984L27.0098 44.1362C25.272 45.8738 23.3454 47.432 21.2828 48.7676ZM48.4 31.5676L33.4868 46.48C32.6072 47.3592 31.4384 47.8432 30.1954 47.8432C28.9516 47.8432 27.783 47.3592 26.904 46.4796L26.8842 46.4598C27.3116 46.0712 27.7328 45.676 28.1408 45.2678L38.0784 35.33C38.5988 34.8096 38.8854 34.1182 38.8854 33.3828C38.8854 32.6468 38.5986 31.9554 38.0784 31.436C37.7898 31.1468 37.439 30.9464 37.0642 30.8178L37.612 30.27C38.7066 29.1754 38.7066 27.3942 37.612 26.2992C37.305 25.9928 36.9418 25.7814 36.5574 25.6468L37.5932 24.611C38.1182 24.086 38.4072 23.3876 38.4072 22.645C38.4072 21.902 38.1182 21.2036 37.5932 20.6782C36.5064 19.5934 34.744 19.5954 33.6604 20.6786L33.0994 21.2396C32.9654 20.8648 32.757 20.5112 32.4574 20.2118C31.4082 19.1614 29.5762 19.1598 28.5254 20.2118L19.013 29.7242L19.988 25.4988C19.995 25.4684 19.9998 25.4378 20.0036 25.4074C20.0918 24.6086 19.8622 23.8254 19.3552 23.2016C18.8482 22.5782 18.1286 22.1926 17.3286 22.1164C15.7848 21.971 14.4122 23.0046 14.1396 24.4554L12.1042 31.6804L11.9912 31.5674C10.1764 29.7522 10.1764 26.799 11.9912 24.9838L26.9044 10.0714C27.7834 9.19223 28.952 8.70783 30.1958 8.70783C31.4388 8.70783 32.6076 9.19223 33.4872 10.0714L39.2618 15.8454L37.5958 16.3382C37.256 16.4386 37.0224 16.751 37.0224 17.1054C37.0224 17.4598 37.256 17.7722 37.5958 17.8726L42.07 19.196L43.0442 23.2906C43.1302 23.6512 43.452 23.9054 43.8224 23.9054C44.1928 23.9054 44.5146 23.6512 44.6006 23.2906L45.0056 21.5894L48.4006 24.984C50.2142 26.7992 50.2142 29.7524 48.4 31.5676Z"/>
</mask>
<path d="M49.5314 23.8528L45.4404 19.7622L45.5752 19.1962L50.0486 17.8728C50.3884 17.7724 50.622 17.46 50.622 17.1056C50.622 16.7512 50.3884 16.4388 50.0486 16.3384L45.5752 15.015L44.6002 10.9204C44.5142 10.5598 44.1924 10.3056 43.822 10.3056C43.4516 10.3056 43.1298 10.5598 43.0438 10.9204L42.0696 15.015L41.0076 15.3292L34.618 8.94043C33.4368 7.75883 31.8656 7.10803 30.1954 7.10803C28.5244 7.10803 26.954 7.75883 25.7728 8.94043L10.8596 23.8528C8.42056 26.2914 8.42056 30.2602 10.8596 32.6988L11.6064 33.4456L10.7282 36.5624C10.2672 38.9894 7.44776 43.1624 7.41956 43.2042C7.20396 43.5218 7.24376 43.948 7.51556 44.2194L16.386 53.0898C16.5406 53.2444 16.7454 53.3242 16.9516 53.3242C17.1016 53.3242 17.2532 53.282 17.386 53.1956L22.1524 50.1104C23.3764 49.318 24.5482 48.443 25.6702 47.509L25.7726 47.6112C26.9538 48.7928 28.5242 49.4432 30.1952 49.4432C31.8656 49.4432 33.4366 48.7928 34.6178 47.6112L49.531 32.6988C51.9696 30.2598 51.9696 26.2918 49.5314 23.8528ZM42.9672 16.418C43.2422 16.3368 43.4524 16.1148 43.5188 15.836L43.822 14.5614L44.126 15.836C44.1924 16.115 44.4026 16.3368 44.6776 16.418L47.0018 17.1056L44.6776 17.7932C44.4026 17.8744 44.1924 18.0964 44.126 18.3752L43.822 19.6498L43.5188 18.3752C43.4524 18.0962 43.2422 17.8744 42.9672 17.7932L40.643 17.1056L42.9672 16.418ZM21.2828 48.7676L17.0602 51.5012L9.10776 43.5488C9.93116 42.2696 11.8782 39.0788 12.2844 36.9288L15.6954 24.8218C15.829 24.1202 16.4516 23.6382 17.1766 23.7094C17.5462 23.7446 17.879 23.9226 18.1134 24.211C18.3392 24.4884 18.4462 24.8344 18.4166 25.1892L16.826 32.0822C16.7464 32.4302 16.9056 32.7888 17.2182 32.9618C17.5284 33.1348 17.9182 33.0806 18.1714 32.8278L29.6566 21.343C30.1042 20.8958 30.88 20.8972 31.3262 21.343C31.5488 21.566 31.6722 21.8626 31.6722 22.1778C31.6722 22.4934 31.5488 22.79 31.3262 23.013C31.3262 23.013 31.3262 23.0132 31.326 23.0132L22.8762 31.4634C22.5638 31.7758 22.5638 32.2822 22.8762 32.5946C23.1886 32.907 23.695 32.907 24.0074 32.5946L34.7918 21.8098C35.2528 21.3496 36.0012 21.3496 36.4622 21.8098C36.6848 22.0328 36.8076 22.3294 36.8076 22.645C36.8076 22.9602 36.685 23.2568 36.4622 23.4798L33.6434 26.2984C33.643 26.2988 33.6424 26.2992 33.6418 26.2996L25.677 34.2644C25.3646 34.5768 25.3646 35.0832 25.677 35.3956C25.8332 35.5518 26.038 35.63 26.2426 35.63C26.4472 35.63 26.652 35.5518 26.8082 35.3956L34.774 27.4302C35.2444 26.9606 36.0094 26.9608 36.481 27.4308C36.9514 27.9016 36.9514 28.668 36.481 29.1386L34.1842 31.4354L28.0866 37.5326C27.7742 37.845 27.7742 38.3514 28.0866 38.6638C28.399 38.9762 28.9054 38.9762 29.2178 38.6638L29.6464 38.2352C29.6468 38.2348 29.6472 38.2348 29.6474 38.2344L35.3154 32.5664C35.7506 32.1308 36.5108 32.1296 36.9474 32.5668C37.1654 32.7844 37.2856 33.0742 37.2856 33.3824C37.2856 33.6906 37.1652 33.9804 36.9474 34.1984L27.0098 44.1362C25.272 45.8738 23.3454 47.432 21.2828 48.7676ZM48.4 31.5676L33.4868 46.48C32.6072 47.3592 31.4384 47.8432 30.1954 47.8432C28.9516 47.8432 27.783 47.3592 26.904 46.4796L26.8842 46.4598C27.3116 46.0712 27.7328 45.676 28.1408 45.2678L38.0784 35.33C38.5988 34.8096 38.8854 34.1182 38.8854 33.3828C38.8854 32.6468 38.5986 31.9554 38.0784 31.436C37.7898 31.1468 37.439 30.9464 37.0642 30.8178L37.612 30.27C38.7066 29.1754 38.7066 27.3942 37.612 26.2992C37.305 25.9928 36.9418 25.7814 36.5574 25.6468L37.5932 24.611C38.1182 24.086 38.4072 23.3876 38.4072 22.645C38.4072 21.902 38.1182 21.2036 37.5932 20.6782C36.5064 19.5934 34.744 19.5954 33.6604 20.6786L33.0994 21.2396C32.9654 20.8648 32.757 20.5112 32.4574 20.2118C31.4082 19.1614 29.5762 19.1598 28.5254 20.2118L19.013 29.7242L19.988 25.4988C19.995 25.4684 19.9998 25.4378 20.0036 25.4074C20.0918 24.6086 19.8622 23.8254 19.3552 23.2016C18.8482 22.5782 18.1286 22.1926 17.3286 22.1164C15.7848 21.971 14.4122 23.0046 14.1396 24.4554L12.1042 31.6804L11.9912 31.5674C10.1764 29.7522 10.1764 26.799 11.9912 24.9838L26.9044 10.0714C27.7834 9.19223 28.952 8.70783 30.1958 8.70783C31.4388 8.70783 32.6076 9.19223 33.4872 10.0714L39.2618 15.8454L37.5958 16.3382C37.256 16.4386 37.0224 16.751 37.0224 17.1054C37.0224 17.4598 37.256 17.7722 37.5958 17.8726L42.07 19.196L43.0442 23.2906C43.1302 23.6512 43.452 23.9054 43.8224 23.9054C44.1928 23.9054 44.5146 23.6512 44.6006 23.2906L45.0056 21.5894L48.4006 24.984C50.2142 26.7992 50.2142 29.7524 48.4 31.5676Z" fill="black" stroke="#F5F2EF" mask="url(#path-1-inside-1_194:1746)"/>
<path d="M12.3422 9.07584C12.3422 9.37965 12.0962 9.62584 11.7922 9.62584C11.4881 9.62584 11.2422 9.37965 11.2422 9.07584V7.47584C11.2422 7.17203 11.4881 6.92584 11.7922 6.92584C12.0962 6.92584 12.3422 7.17203 12.3422 7.47584V9.07584Z" fill="black" stroke="#F5F2EF" stroke-width="0.5"/>
<path d="M11.2422 12.2759C11.2422 11.9721 11.4881 11.7259 11.7922 11.7259C12.0962 11.7259 12.3422 11.9721 12.3422 12.2759V13.8759C12.3422 14.1797 12.0962 14.4259 11.7922 14.4259C11.4881 14.4259 11.2422 14.1797 11.2422 13.8759V12.2759Z" fill="black" stroke="#F5F2EF" stroke-width="0.5"/>
<path d="M10.1969 11.2259H8.59687C8.29283 11.2259 8.04688 10.9797 8.04688 10.6759C8.04688 10.372 8.29283 10.1259 8.59687 10.1259H10.1969C10.5009 10.1259 10.7469 10.372 10.7469 10.6759C10.7469 10.9797 10.5009 11.2259 10.1969 11.2259Z" fill="black" stroke="#F5F2EF" stroke-width="0.5"/>
<path d="M14.9937 11.2259H13.3937C13.0897 11.2259 12.8438 10.9797 12.8438 10.6759C12.8438 10.372 13.0897 10.1259 13.3937 10.1259H14.9937C15.2978 10.1259 15.5437 10.372 15.5437 10.6759C15.5437 10.9797 15.2978 11.2259 14.9937 11.2259Z" fill="black" stroke="#F5F2EF" stroke-width="0.5"/>
<path d="M43.2461 48.6758C43.2461 47.2701 44.3904 46.1259 45.7961 46.1259C47.2018 46.1259 48.3461 47.2701 48.3461 48.6758C48.3461 50.0816 47.2018 51.2258 45.7961 51.2258C44.3904 51.2258 43.2461 50.0816 43.2461 48.6758ZM44.3461 48.6758C44.3461 49.4757 44.9962 50.1258 45.7961 50.1258C46.5957 50.1258 47.2461 49.4757 47.2461 48.6758C47.2461 47.876 46.596 47.2259 45.7961 47.2259C44.9962 47.2259 44.3461 47.876 44.3461 48.6758Z" fill="black" stroke="#F5F2EF" stroke-width="0.5"/>
<path d="M52.4643 41.5539V41.5541C52.4643 41.8885 52.1934 42.1595 51.8591 42.1595C51.5249 42.1595 51.2539 41.8885 51.2539 41.5541C51.2539 41.2199 51.5248 40.9489 51.8591 40.9489C52.1935 40.9489 52.4644 41.2198 52.4643 41.5539Z" fill="black" stroke="#F5F2EF" stroke-width="0.5"/>
</svg>
