<svg width="60" height="60" viewBox="0 0 60 60" fill="none" xmlns="http://www.w3.org/2000/svg">
<path d="M28.0611 22.5995L28.0612 22.5994C28.4532 21.6281 29.1112 20.9679 30.0624 20.6008C30.4233 20.4615 30.6605 20.1236 30.6686 19.7394L30.6686 19.7393C30.6768 19.3564 30.4551 19.0101 30.102 18.8563L30.102 18.8562C29.1326 18.4338 28.46 17.7895 28.0688 16.889C27.9168 16.5396 27.5767 16.3186 27.1909 16.3245L28.0611 22.5995ZM28.0611 22.5995C27.9154 22.9608 27.5722 23.1922 27.184 23.1922H27.1781C26.7911 23.1899 26.4512 22.9563 26.31 22.5952L28.0611 22.5995ZM26.3329 16.9155L26.3329 16.9156C25.9807 17.801 25.3184 18.4317 24.3405 18.8456L24.3405 18.8456C23.9805 18.9979 23.7541 19.347 23.7619 19.7368L23.7619 19.7368C23.7696 20.1222 24.0069 20.4582 24.368 20.5945L26.3329 16.9155ZM26.3329 16.9155C26.4732 16.5625 26.8092 16.3305 27.1908 16.3245L26.3329 16.9155ZM27.423 18.2861L27.2163 17.995L27.0134 18.2888C26.6884 18.7593 26.2738 19.1636 25.7696 19.4989L25.4595 19.705L25.7677 19.914C26.2489 20.2402 26.6555 20.6581 26.9851 21.167L27.1912 21.4854L27.4025 21.1704C27.7425 20.6637 28.1646 20.2442 28.6673 19.9131L28.9801 19.7071L28.6698 19.4973C28.173 19.1613 27.7571 18.7568 27.423 18.2861ZM26.31 22.5952C25.9237 21.606 25.2875 20.9415 24.368 20.5945L26.31 22.5952Z" fill="black" stroke="#F5F2EF" stroke-width="0.5"/>
<path d="M39.8208 39.5126L39.8207 39.5125C38.8514 39.0901 38.1788 38.4457 37.7876 37.5453C37.6358 37.1961 37.2893 36.9737 36.9103 36.9806L36.9096 36.9806C36.528 36.9866 36.192 37.2187 36.0516 37.5717L36.0516 37.5718C35.6995 38.4571 35.0372 39.0877 34.0595 39.5017L34.0594 39.5017C33.6993 39.654 33.473 40.0031 33.4807 40.3928L33.4807 40.3928C33.4882 40.7784 33.7256 41.1144 34.0867 41.2507C35.0062 41.5976 35.6424 42.2622 36.0287 43.2514L39.8208 39.5126ZM39.8208 39.5126C40.1738 39.6663 40.3955 40.0126 40.3872 40.3954L40.3872 40.3956C40.3791 40.7798 40.1419 41.1177 39.781 41.2569L39.781 41.257C38.8298 41.6242 38.1718 42.2843 37.7798 43.2556L37.7797 43.2557M39.8208 39.5126L37.7797 43.2557M37.7797 43.2557C37.6341 43.6169 37.2909 43.8484 36.9027 43.8484H36.8967M37.7797 43.2557L36.8967 43.8484M36.8967 43.8484C36.5097 43.846 36.1698 43.6124 36.0287 43.2514L36.8967 43.8484ZM36.7037 41.8232L36.9098 42.1416L37.1211 41.8266C37.4612 41.3198 37.8834 40.9004 38.386 40.5693L38.6987 40.3633L38.3885 40.1534C37.8917 39.8175 37.4757 39.4129 37.1416 38.9423L36.9349 38.6512L36.732 38.945C36.407 39.4156 35.9926 39.8197 35.4883 40.1549L35.1783 40.361L35.4864 40.57C35.9676 40.8964 36.3741 41.3141 36.7037 41.8232Z" fill="black" stroke="#F5F2EF" stroke-width="0.5"/>
<path d="M16.6049 32.9033L16.6049 32.9033C16.4572 32.5633 16.1214 32.3469 15.7521 32.3541L15.7512 32.3541C15.38 32.36 15.0531 32.5856 14.9168 32.9289L14.9167 32.9291C14.5988 33.7282 13.9994 34.2972 13.1174 34.6706L13.1174 34.6706C12.7675 34.8186 12.5474 35.1579 12.5549 35.5368L16.6049 32.9033ZM16.6049 32.9033C16.9585 33.717 17.5674 34.2991 18.443 34.6806M16.6049 32.9033L18.443 34.6806M16.5985 38.1812L16.5985 38.1812C16.9522 37.3048 17.5464 36.7081 18.4047 36.3769C18.7554 36.2415 18.9859 35.9131 18.994 35.5395L16.5985 38.1812ZM16.5985 38.1812C16.4567 38.5325 16.1232 38.7575 15.7458 38.7575H15.7398C15.3633 38.7551 15.0328 38.528 14.8957 38.1768C14.5475 37.285 13.974 36.6843 13.1445 36.3713M16.5985 38.1812L13.1445 36.3713M13.1445 36.3713C12.7931 36.2386 12.5623 35.9119 12.5549 35.5368L13.1445 36.3713ZM18.443 34.6806C18.7863 34.8303 19.0018 35.167 18.994 35.5394L18.443 34.6806ZM15.5501 36.7341L15.7532 37.0326L15.9612 36.7375C16.2467 36.3323 16.5912 35.99 16.9937 35.7111L17.2872 35.5076L16.9956 35.3015C16.5986 35.0208 16.2596 34.691 15.9792 34.3138L15.7761 34.0406L15.5762 34.3161C15.3022 34.6938 14.9637 35.0237 14.5607 35.3041L14.2699 35.5065L14.5581 35.7127C14.9428 35.9878 15.274 36.3282 15.5501 36.7341Z" fill="black" stroke="#F5F2EF" stroke-width="0.5"/>
<path d="M32.6689 43.4324L32.6688 43.4325C31.8377 44.048 30.9782 44.6395 30.1139 45.1905C30.1139 45.1905 30.1139 45.1905 30.1139 45.1905L28.6555 46.1203L28.5211 45.9095L28.6555 46.1203C27.7165 46.719 27.1393 47.7408 27.111 48.854L27.0604 50.8473L27.0604 50.8473C27.0264 52.1806 26.4683 53.4158 25.4904 54.3226C24.5125 55.2293 23.2384 55.6931 21.9067 55.6256C21.9067 55.6256 21.9067 55.6256 21.9066 55.6256L16.0795 55.3333C14.682 55.2636 13.2838 55.3907 11.9225 55.7121C11.9225 55.7121 11.9225 55.7121 11.9225 55.7121L8.22962 56.5841L8.22946 56.5842C7.84587 56.6745 7.45253 56.4914 7.27588 56.1379L32.6689 43.4324ZM32.6689 43.4324C32.9468 43.2263 33.3395 43.2848 33.5457 43.563C33.7518 43.8413 33.6932 44.234 33.4151 44.44C32.5605 45.0729 31.6766 45.6812 30.788 46.2477L30.9224 46.4585L30.788 46.2477L29.3296 47.1775C28.7431 47.5515 28.3822 48.1902 28.3644 48.8856L28.3644 48.8857L28.3138 50.8791C28.3138 50.8791 28.3138 50.8791 28.3138 50.8791C28.271 52.5543 27.5716 54.1028 26.3428 55.242C25.1139 56.3812 23.5184 56.9617 21.8437 56.878C21.8437 56.878 21.8437 56.878 21.8437 56.878L16.0164 56.5856L16.0164 56.5856C14.7375 56.5216 13.4569 56.6381 12.2105 56.9324L8.51765 57.8045L8.51759 57.8045C8.35404 57.8431 8.19012 57.8617 8.02869 57.8617H8.02866C7.24718 57.8618 6.51784 57.4257 6.15422 56.6987C5.64575 55.6819 6.02837 54.4595 7.02588 53.914L6.90593 53.6947L7.02589 53.914L14.1014 50.0446L14.1015 50.0446C14.4054 49.8782 14.7862 49.9899 14.9524 50.2938L14.9524 50.2938C15.1186 50.5977 15.0069 50.9786 14.7032 51.1447L14.7032 51.1447M32.6689 43.4324L14.7032 51.1447M14.7032 51.1447L7.62766 55.0142M14.7032 51.1447L7.62766 55.0142M7.62766 55.0142C7.22591 55.2338 7.07108 55.7283 7.27582 56.1378L7.62766 55.0142Z" fill="black" stroke="#F5F2EF" stroke-width="0.5"/>
<path d="M20.4451 26.6997C23.1747 28.4042 26.1307 29.6925 29.2307 30.5288C29.2307 30.5288 29.2307 30.5288 29.2307 30.5288L31.71 31.1977L31.8742 31.242L31.9757 31.1056L36.5195 24.998L36.7124 24.7386L36.4129 24.6171L32.263 22.9335L32.263 22.9335C31.9421 22.8034 31.7875 22.4377 31.9177 22.1169C32.0479 21.7961 32.4135 21.6414 32.7343 21.7716L32.7344 21.7717L37.3066 23.6265L37.4858 23.6992L37.6012 23.5441L40.2271 20.0144C41.3478 18.508 43.0615 17.5271 44.9279 17.3234L44.9008 17.0749L44.928 17.3234C46.7948 17.1197 48.6795 17.7083 50.0986 18.9377L59.5313 27.1094L59.695 26.9204L59.5314 27.1094C59.793 27.336 59.8215 27.732 59.5949 27.9939C59.3679 28.2558 58.972 28.284 58.7104 28.0573L58.5467 28.2463L58.7104 28.0573L49.2776 19.8857C48.1048 18.8695 46.6073 18.4017 45.0642 18.5702M20.4451 26.6997L20.5775 26.4876L20.4452 26.6997C20.4452 26.6997 20.4451 26.6997 20.4451 26.6997ZM20.4451 26.6997C20.1512 26.5163 19.7645 26.6058 19.5813 26.8994L19.5812 26.8995C19.3978 27.1932 19.4873 27.58 19.7809 27.7634C22.6155 29.5334 25.685 30.871 28.9042 31.7394L30.7146 32.2278L31.0695 32.3236L30.8501 32.6184L21.1956 45.596C21.1956 45.596 21.1956 45.596 21.1956 45.596C20.7222 46.2324 20.1288 46.7485 19.4328 47.129L17.4513 48.2127L17.4513 48.2127C17.1475 48.3788 17.0359 48.7597 17.2021 49.0637L17.2021 49.0637C17.3158 49.2717 17.5304 49.39 17.753 49.39C17.8543 49.39 17.9571 49.3654 18.053 49.313L20.0345 48.2294C20.8906 47.7612 21.6194 47.1274 22.2017 46.3446L22.4023 46.4938L22.2018 46.3445L41.2335 20.763C42.1597 19.5179 43.5215 18.7384 45.0642 18.5702M45.0642 18.5702L45.0913 18.8187M45.0642 18.5702L45.0913 18.8187M45.0913 18.8187C46.5652 18.6578 47.9936 19.104 49.1139 20.0746L41.4341 20.9122C42.3188 19.7229 43.6178 18.9793 45.0913 18.8187Z" fill="black" stroke="#F5F2EF" stroke-width="0.5"/>
<path d="M58.7536 45.1155L58.7536 45.1155L56.4722 43.5249L56.4722 43.5249C55.5623 42.8905 54.6651 42.1997 53.8055 41.4716L53.8055 41.4716C53.5413 41.2477 53.1458 41.2805 52.922 41.5448C52.6982 41.8091 52.731 42.2047 52.9953 42.4284L52.9953 42.4284C53.8849 43.1819 54.8134 43.8969 55.7551 44.5535L58.0363 46.144L58.7536 45.1155ZM58.7536 45.1155C59.0376 45.3136 59.1073 45.7044 58.9093 45.9883L58.9093 45.9883M58.7536 45.1155L58.9093 45.9883M58.9093 45.9883C58.7875 46.163 58.5931 46.2568 58.3942 46.2568C58.2707 46.2568 58.1461 46.2205 58.0364 46.1441L58.9093 45.9883Z" fill="black" stroke="#F5F2EF" stroke-width="0.5"/>
<path d="M6.90481 21.272L6.90484 21.272L11.4227 20.6767L11.4234 20.6766C11.561 20.6589 11.6983 20.7118 11.7884 20.819L11.7885 20.8191C13.192 22.4924 14.77 24.0386 16.479 25.4149C16.5951 25.5084 16.7336 25.5536 16.8716 25.5536C17.0555 25.5536 17.2367 25.4735 17.3605 25.3198C17.5778 25.0501 17.5352 24.6556 17.2655 24.4384L17.2655 24.4384C15.6199 23.1132 14.1006 21.6245 12.7491 20.0135L12.7491 20.0134C12.3819 19.5755 11.8247 19.359 11.259 19.4337L11.2589 19.4337L6.7411 20.029L6.74095 20.029C6.14453 20.1072 5.55613 19.9418 5.08813 19.563L5.08807 19.563C4.62027 19.1841 4.33578 18.6433 4.28841 18.0434L4.28841 18.0433L3.8781 12.8364C3.7656 11.4098 3.45191 10.0076 2.94565 8.66861C2.94565 8.66861 2.94565 8.66861 2.94565 8.6686L1.58623 5.07372L1.58621 5.07367C1.38151 4.53199 1.57532 3.9273 2.0569 3.60565L6.90481 21.272ZM6.90481 21.272C5.96222 21.3964 5.03807 21.1357 4.29928 20.5374L4.29925 20.5373C3.56049 19.9393 3.11335 19.0894 3.03864 18.1417L2.62833 12.9348L2.62833 12.9348C2.5251 11.6262 2.2373 10.3399 1.77292 9.11195L1.77292 9.11195L0.413493 5.51729L0.413493 5.51729C0.000498541 4.42526 0.389539 3.21137 1.36035 2.56285C2.48971 1.80856 3.98866 2.08421 4.7758 3.1907L4.7758 3.1907L11.7074 12.9339L11.9111 12.789L11.7074 12.9339C11.9077 13.2154 12.1833 13.4332 12.5034 13.5631L12.5034 13.5631L21.6072 17.2564L21.6072 17.2564C21.9282 17.3866 22.0827 17.7522 21.9526 18.0731C21.8224 18.394 21.4569 18.5487 21.1359 18.4183L21.1358 18.4183L12.032 14.7249L12.032 14.7249C11.4902 14.5052 11.0248 14.1373 10.6857 13.6609C10.6857 13.6608 10.6857 13.6608 10.6857 13.6608L3.75399 3.91756L3.75398 3.91755M6.90481 21.272L3.75398 3.91755M3.75398 3.91755C3.36365 3.36893 2.61697 3.23155 2.05691 3.60564L3.75398 3.91755Z" fill="black" stroke="#F5F2EF" stroke-width="0.5"/>
<path d="M43.5044 28.6341L43.5044 28.6341C43.8198 28.4907 44.1913 28.6301 44.3348 28.9454C46.0177 32.6482 48.3014 36.0145 51.1216 38.9507L51.1217 38.9507C51.3616 39.2003 51.3536 39.5972 51.1038 39.8371C50.9822 39.954 50.8263 40.0119 50.6697 40.0119C50.5045 40.0119 50.3406 39.9475 50.2176 39.8193L50.2175 39.8193C48.1527 37.6701 46.3678 35.2972 44.8824 32.7369L44.6788 32.386L44.4569 32.7256C43.4569 34.2558 42.3612 35.7344 41.185 37.1337C41.0611 37.2811 40.8839 37.3572 40.7046 37.3572C40.562 37.3572 40.4194 37.3092 40.3017 37.2103L40.3017 37.2103C40.0366 36.9875 40.0024 36.592 40.2252 36.3269L40.2252 36.3269C41.5738 34.7222 42.814 33.011 43.9197 31.2363L43.9944 31.1163L43.9301 30.9904C43.6734 30.4876 43.4271 29.9793 43.193 29.4643C43.0498 29.149 43.1892 28.7774 43.5044 28.6341Z" fill="black" stroke="#F5F2EF" stroke-width="0.5"/>
</svg>
