<svg width="60" height="60" viewBox="0 0 60 60" fill="none" xmlns="http://www.w3.org/2000/svg">
    <g clip-path="url(#clip0_621:11628)">
        <path d="M1.85066 2.05083C0.819408 2.42583 0.15144 3.2813 0.0342522 4.35943C-0.0360603 5.02739 -0.0594978 4.93364 1.22956 8.43755C2.09675 10.7812 2.28425 11.7305 2.57722 15.4102C2.70613 17.0742 2.84675 18.5859 2.89363 18.75C3.128 19.7344 4.01863 20.8008 4.96785 21.2109C5.83503 21.5977 6.23347 21.5977 8.89363 21.2578L11.46 20.9414L13.253 22.7578C15.4796 25.0078 16.4053 25.7812 16.8858 25.7812C17.3428 25.7812 17.6944 25.4062 17.6944 24.9141C17.6944 24.5625 17.5538 24.3984 16.2061 23.1797C15.3741 22.4414 14.2843 21.3633 13.7686 20.7891C13.253 20.2031 12.7022 19.6406 12.5499 19.5117C12.1046 19.1719 11.3194 19.1719 8.78816 19.5117C7.47566 19.6875 6.25691 19.793 6.05769 19.7578C5.60066 19.6641 4.96785 19.1836 4.74519 18.7617C4.63972 18.5391 4.4991 17.4258 4.33503 15.457C3.97175 10.8047 3.92488 10.582 2.6241 7.12505C2.14363 5.84771 1.75691 4.68755 1.75691 4.55864C1.75691 4.2188 2.378 3.63286 2.74128 3.63286C2.90535 3.63286 3.19832 3.77349 3.38582 3.94927C3.57332 4.13677 5.28425 6.4688 7.18269 9.14067C9.08113 11.8125 10.7921 14.1445 10.9678 14.3086C11.4483 14.7539 11.7296 14.8828 16.8038 16.9219C20.9288 18.5977 21.3858 18.75 21.6788 18.6328C21.9835 18.5039 22.2647 18.0938 22.2647 17.7539C22.2647 17.2969 21.6319 16.9688 17.0264 15.1172C13.628 13.7461 12.2452 13.1367 12.046 12.9141C11.8819 12.7383 10.2647 10.4883 8.4366 7.91021C6.62019 5.33208 4.90925 3.00005 4.65144 2.73052C3.90144 1.94536 2.83503 1.68755 1.85066 2.05083Z" fill="black"/>
        <path d="M16.8889 26.3087C16.2127 26.3087 15.3514 25.6255 12.8811 23.1294L11.2697 21.497L8.96113 21.7817C6.27753 22.1251 5.77246 22.1462 4.75644 21.6927C3.66074 21.2192 2.65996 20.0321 2.38457 18.872C2.29199 18.4735 2.09511 15.9599 2.05527 15.4513C1.76699 11.8278 1.59472 10.9337 0.739254 8.62037L0.611519 8.27701C-0.568559 5.06959 -0.568559 5.06959 -0.491215 4.34186L-0.487699 4.30319C-0.348246 3.0235 0.458004 1.99694 1.67089 1.55514C2.85214 1.1192 4.14121 1.42975 5.03535 2.36607C5.35996 2.70592 7.28066 5.34967 8.86972 7.6067C10.985 10.5903 12.2518 12.3376 12.4299 12.5497C12.8143 12.8485 16.0158 14.1399 17.2264 14.6286C19.4131 15.5075 20.8322 16.0946 21.6127 16.4884C22.235 16.8024 22.7939 17.1364 22.7939 17.754C22.7939 18.3036 22.3955 18.9036 21.8857 19.1181C21.3748 19.3231 21.0783 19.2271 16.6064 17.4095C11.4455 15.3353 11.1654 15.2087 10.6111 14.6942C10.3369 14.4376 8.0998 11.3392 6.75449 9.44537C4.7541 6.63053 3.22011 4.55162 3.01621 4.32311C2.92714 4.24342 2.80527 4.18365 2.74316 4.16373C2.61074 4.2106 2.3705 4.4274 2.29785 4.56451C2.3705 4.83639 2.6623 5.7235 3.11933 6.93873C4.44589 10.4626 4.49394 10.7005 4.86191 15.4149C5.0705 17.9181 5.19355 18.4384 5.22402 18.5356C5.38222 18.8099 5.84628 19.1638 6.14511 19.2364C6.33964 19.247 7.32988 19.1743 8.71972 18.9892C11.2814 18.6446 12.2412 18.6118 12.8717 19.0923L12.8928 19.1087C13.0814 19.2692 13.6674 19.8728 14.1666 20.4399C14.6389 20.9661 15.7158 22.0372 16.5584 22.7849C17.9049 24.0024 18.2236 24.2907 18.2236 24.9142C18.2248 25.6958 17.6377 26.3087 16.8889 26.3087ZM11.6564 20.386L13.6322 22.3876C14.3951 23.1587 16.4236 25.2083 16.8936 25.254C17.0553 25.254 17.1701 25.1146 17.1701 24.9142C17.1701 24.7899 16.9123 24.5263 15.8553 23.5712C15.0572 22.8634 13.9451 21.7724 13.3791 21.1419C12.8799 20.5747 12.3619 20.0462 12.2225 19.9243C11.9225 19.7099 11.0658 19.7392 8.86035 20.0356C8.83574 20.0392 6.42871 20.3603 5.96816 20.2782L5.9541 20.2759C5.34355 20.1505 4.57714 19.5704 4.28066 19.0091L4.27011 18.9892C4.20332 18.8485 4.06504 18.5567 3.81074 15.5028C3.4498 10.8868 3.41933 10.7333 2.13144 7.31256C1.98261 6.91061 1.23261 4.8985 1.23261 4.55865C1.23261 3.93404 2.09394 3.10553 2.74433 3.10553C3.09824 3.10553 3.51308 3.34342 3.7498 3.56491L3.76152 3.57662C4.0123 3.82623 5.95644 6.50162 7.61582 8.836C9.64668 11.6942 11.1432 13.7169 11.3377 13.9302C11.7443 14.3052 12.1393 14.4786 17.0037 16.4333C19.583 17.481 21.1861 18.1243 21.5014 18.136C21.5951 18.0833 21.7146 17.9122 21.7369 17.7915C21.4299 17.4704 19.4189 16.6454 16.8326 15.606C12.3338 13.7907 11.8756 13.5106 11.6564 13.2657C11.4057 12.9974 8.80175 9.3317 8.00957 8.2149C6.02675 5.40006 4.47285 3.3024 4.27363 3.09498C3.66543 2.45865 2.82871 2.25358 2.03652 2.54537L2.03418 2.54654C1.19394 2.8524 0.657223 3.53326 0.562301 4.41686L0.558785 4.45436C0.507223 4.93717 0.507223 4.93717 1.60293 7.91373L1.72949 8.25592C2.61894 10.6606 2.8123 11.6579 3.10761 15.3692C3.24472 17.1329 3.36894 18.4185 3.40879 18.6165L3.4123 18.6294C3.61035 19.4638 4.38847 20.3849 5.183 20.7282C5.90605 21.0505 6.18378 21.0751 8.83222 20.7364L11.6564 20.386ZM12.4369 12.5567L12.4381 12.5579L12.4369 12.5567Z" fill="#F5F2EF"/>
        <path d="M27.1734 23.9637C27.1664 23.9637 27.1582 23.9637 27.1512 23.9637C26.4902 23.9543 25.8961 23.5161 25.5609 22.793C25.2621 22.1649 24.7934 21.6645 24.2449 21.3903C23.6098 21.0622 23.0273 20.6262 23.0273 19.6536C23.0273 18.8016 23.4879 18.4805 24.5309 17.8336C24.9785 17.5489 25.2059 17.3297 25.3934 17.0004C25.7883 16.3032 26.0918 15.886 26.5641 15.6774L26.577 15.6715C26.9941 15.5016 28.0535 15.2626 28.8551 16.7133C29.1434 17.2501 29.6391 17.7399 30.1524 17.9965C31.2774 18.5684 31.4508 19.2997 31.4543 19.6852C31.4578 20.079 31.2914 20.8336 30.1289 21.4536C29.4457 21.8204 29.1398 22.1344 28.766 22.8493C28.4203 23.5454 27.8238 23.9637 27.1734 23.9637ZM26.9848 16.6454C26.8406 16.711 26.6695 16.8891 26.3109 17.5219C26.0367 18.0012 25.684 18.3493 25.0922 18.7266C24.082 19.3524 24.082 19.4286 24.082 19.6524C24.082 19.9407 24.1125 20.134 24.723 20.4493C25.4742 20.8254 26.1129 21.4993 26.516 22.343C26.6789 22.6946 26.9227 22.9043 27.1676 22.9079C27.4148 22.9126 27.6598 22.7098 27.8297 22.3688C28.3055 21.4559 28.7602 20.9918 29.6344 20.5231C30.1184 20.2641 30.4055 19.9547 30.4031 19.6946C30.4008 19.4497 30.1301 19.1661 29.6801 18.9376C28.9746 18.5848 28.3207 17.9415 27.9316 17.2172C27.5051 16.4485 27.157 16.5751 26.9848 16.6454ZM27.1676 21.4852C27.1336 21.4852 27.0996 21.4817 27.0633 21.4758L26.7938 21.4348L26.6871 21.2251C26.6285 21.1559 26.4609 20.9719 26.175 20.6754L25.2609 19.7051L26.1773 18.7688C26.9098 18.0364 27.0293 18.0364 27.2098 18.0364H27.2953L27.3762 18.0633C27.5695 18.1278 27.9926 18.5168 28.2293 18.7442L29.2242 19.6805L28.1813 20.7047C27.5742 21.3329 27.3926 21.4852 27.1676 21.4852ZM26.7234 19.718L26.9391 19.9465C27.034 20.045 27.1172 20.1317 27.1898 20.2079C27.2613 20.1376 27.3422 20.0567 27.4301 19.9653L27.4395 19.9559L27.7043 19.6958L27.5016 19.5047C27.3973 19.404 27.2977 19.3137 27.2098 19.2376C27.1313 19.3102 27.0363 19.4016 26.9273 19.5094L26.7234 19.718Z" fill="#F5F2EF"/>
        <path d="M44.7008 17.0976C43.2594 17.332 42.0172 17.9297 40.9625 18.8789C40.611 19.207 39.6852 20.332 38.9 21.3984C38.1032 22.4531 37.4117 23.3203 37.3414 23.3203C37.2828 23.3203 36.1813 22.8984 34.9039 22.3828C32.4547 21.3867 32.1735 21.3398 31.8219 21.832C31.5641 22.1953 31.611 22.6523 31.9157 22.9336C32.1266 23.1211 34.2125 24.0351 36.0172 24.7148L36.3336 24.8437L34.0953 27.8554C32.8532 29.5195 31.8336 30.9023 31.8219 30.914C31.7516 30.9961 28.1188 29.9531 26.7242 29.4492C25.0719 28.8515 22.6578 27.7265 21.2985 26.9179C20.2438 26.2851 19.9274 26.25 19.4938 26.6718C19.2594 26.9062 19.2125 27.0351 19.2711 27.3398C19.3649 27.832 19.4 27.8554 20.9938 28.7578C23.3961 30.1289 26.5367 31.3828 29.361 32.1093C29.9469 32.2617 30.4625 32.414 30.5094 32.4609C30.6383 32.5781 21.0992 45.4101 20.3492 46.1133C20.0094 46.4414 19.2008 46.9804 18.5328 47.3437C17.8649 47.6953 17.2203 48.1172 17.1031 48.2695C16.7047 48.7617 16.8805 49.3242 17.5133 49.5586C17.7828 49.664 17.9821 49.6054 19.0719 49.0312C20.5953 48.2343 21.1227 47.8828 21.8141 47.1445C22.1188 46.8398 26.6656 40.7812 31.9391 33.6914C37.2008 26.6015 41.736 20.5781 41.9938 20.2968C43.0485 19.207 44.9586 18.5976 46.5172 18.8672C47.9352 19.1015 48.4039 19.4414 53.6774 24.0234C56.3961 26.3789 58.7399 28.3476 58.8922 28.4062C59.4782 28.6406 60.1227 28.0195 59.9586 27.375C59.9117 27.164 58.3649 25.7578 55.0836 22.9218C50.2321 18.7031 49.5407 18.1523 48.6852 17.7187C47.6539 17.2031 45.8492 16.9218 44.7008 17.0976Z" fill="black"/>
        <path d="M17.714 50.1293C17.5804 50.1293 17.4538 50.1023 17.3179 50.0496C16.8456 49.875 16.5175 49.5457 16.4026 49.125C16.2925 48.7254 16.3944 48.3047 16.6886 47.9402C16.9909 47.5605 18.2718 46.8832 18.2847 46.8773C18.928 46.5269 19.6909 46.0136 19.9804 45.7347C20.5546 45.1968 28.0417 35.175 29.7093 32.7515C29.5733 32.7129 29.4128 32.6695 29.2265 32.6215C26.3401 31.8785 23.1644 30.6058 20.7304 29.2172C19.1003 28.2949 18.8917 28.1765 18.7511 27.4394C18.6608 26.9683 18.7604 26.659 19.119 26.3004C19.8901 25.5504 20.5886 25.8797 21.5683 26.4668C22.8878 27.2519 25.2819 28.3687 26.9015 28.9547C28.1097 29.3918 30.7405 30.1488 31.5866 30.3469C31.6394 30.2754 31.7026 30.1898 31.7753 30.0914C32.1843 29.5394 32.8827 28.5972 33.6714 27.5414L35.4983 25.0828C34.1062 24.5449 31.8925 23.6203 31.5644 23.3285C31.0534 22.8562 30.9831 22.1015 31.3909 21.5273C32.0226 20.6426 32.7362 20.9332 35.1022 21.8953C36.0667 22.2844 36.8167 22.575 37.1976 22.7156C37.4167 22.4566 37.8362 21.9316 38.4796 21.0808C39.2636 20.0168 40.2175 18.8531 40.603 18.4933C41.7421 17.4679 43.0909 16.8258 44.6167 16.5773L44.6214 16.5761C45.8706 16.3851 47.7995 16.6863 48.921 17.2465C49.8585 17.7211 50.5874 18.3129 55.4296 22.5234C60.3269 26.7562 60.4101 26.9754 60.4722 27.2531C60.5976 27.7594 60.4253 28.2926 60.0222 28.6465C59.646 28.9769 59.1374 29.0719 58.6968 28.8961C58.6124 28.8633 58.3358 28.7578 53.3319 24.4219C48.1593 19.9277 47.7081 19.5984 46.4308 19.3875C45.0538 19.1496 43.3159 19.6945 42.3796 20.6566C42.0796 21.0011 37.7612 26.7316 32.3624 34.0054C30.1077 37.0371 22.7577 46.9054 22.1987 47.5043C21.43 48.3246 20.8347 48.7031 19.3159 49.4976C18.5167 49.9183 18.0913 50.1293 17.714 50.1293ZM17.5077 48.6035C17.4714 48.648 17.3952 48.7582 17.4187 48.8461C17.4409 48.9258 17.5452 49.009 17.6929 49.064C17.7093 49.0699 17.7163 49.0734 17.7233 49.0746C17.8593 49.0722 18.5343 48.716 18.8226 48.5648C20.3308 47.7761 20.7925 47.4597 21.4253 46.7836L21.437 46.7707C21.7511 46.4355 25.896 40.9265 31.5116 33.3761C36.2917 26.9344 41.2897 20.2793 41.6003 19.9394L41.6097 19.9289C42.7851 18.7148 44.8851 18.0492 46.6019 18.3469C48.205 18.6117 48.8284 19.1156 54.0175 23.625C56.9026 26.1246 58.7753 27.6832 59.1104 27.9246C59.2054 27.9433 59.2874 27.8824 59.3202 27.8543C59.3882 27.7945 59.4562 27.6879 59.4503 27.5648C59.1468 27.1922 57.5601 25.766 54.7323 23.3215C49.8374 19.0652 49.2104 18.5801 48.4405 18.1898C47.503 17.7211 45.8249 17.4597 44.7761 17.6191C43.4542 17.8347 42.287 18.3902 41.3085 19.2715C41.019 19.5422 40.1249 20.6156 39.3175 21.7113C37.7073 23.8476 37.6358 23.8476 37.3382 23.8476C37.2409 23.8476 37.1214 23.8476 34.7038 22.8715C33.8026 22.5047 32.571 22.0043 32.3167 22.0547C32.3073 22.0629 32.2862 22.0851 32.2487 22.139C32.1526 22.2738 32.1562 22.4273 32.2569 22.5328C32.5476 22.7226 34.4261 23.5535 36.2015 24.2226L36.2144 24.2273L37.1612 24.6129L34.5175 28.1707C33.7288 29.2265 33.0315 30.1676 32.6237 30.7183C32.3331 31.1097 32.2546 31.2164 32.2218 31.2574C31.9839 31.5351 31.7144 31.4672 31.0616 31.3019C30.6901 31.2082 30.1933 31.0722 29.6226 30.9082C28.6909 30.641 27.3269 30.2285 26.544 29.9449C24.8425 29.3297 22.4202 28.1988 21.028 27.3715C20.1011 26.816 20.0354 26.8793 19.8608 27.0504C19.8093 27.1019 19.7858 27.1324 19.7753 27.1465C19.7765 27.1617 19.7788 27.1898 19.7882 27.2414C19.8222 27.4219 19.8222 27.4219 19.903 27.4886C20.0917 27.6433 20.5288 27.8906 21.2519 28.3008C23.6097 29.6461 26.6894 30.8801 29.4901 31.6008C30.669 31.9078 30.7745 31.9851 30.8706 32.0812L31.0323 32.2277L31.0358 32.4621C31.037 32.6777 31.0382 32.7351 29.4538 34.9277C28.5831 36.1336 27.403 37.739 26.1315 39.4488C25.637 40.1144 21.2788 45.9633 20.7081 46.4988C20.3062 46.8867 19.4155 47.4644 18.7827 47.8078C18.1159 48.157 17.6062 48.5074 17.5077 48.6035ZM17.5183 48.5918C17.5171 48.5918 17.5171 48.5918 17.5183 48.5918V48.5918ZM59.0788 27.914C59.08 27.914 59.0812 27.9152 59.0823 27.9152C59.08 27.9152 59.08 27.914 59.0788 27.914Z" fill="#F5F2EF"/>
        <path d="M43.1445 28.6642C42.8047 29.086 42.8281 29.2853 43.3203 30.2462L43.7304 31.0782L42.8633 32.3907C42.3828 33.1056 41.5156 34.3126 40.9297 35.0626C39.7578 36.5626 39.6523 36.8438 40.1445 37.3243C40.5547 37.7462 40.9765 37.6993 41.457 37.1954C41.9258 36.6915 43.7656 34.254 44.2578 33.4688C44.4453 33.1759 44.6211 32.9298 44.6562 32.9298C44.6914 32.9298 44.9492 33.3165 45.2304 33.7853C46.707 36.1993 49.7304 39.9493 50.3867 40.172C50.7734 40.3126 51.1484 40.172 51.4062 39.797C51.6875 39.3634 51.5586 39.0704 50.7031 38.1095C48.3945 35.5431 46.5429 32.836 45.0078 29.7657C44.7383 29.2149 44.4336 28.6759 44.3281 28.5587C44.0469 28.2423 43.4375 28.3009 43.1445 28.6642Z" fill="black"/>
        <path d="M50.677 40.7533C50.5212 40.7533 50.3618 40.7251 50.2036 40.6677C49.252 40.3455 46.0212 36.0927 44.7778 34.0607C44.731 33.9822 44.6852 33.9084 44.6431 33.8404C44.0876 34.6947 42.3274 37.0314 41.8399 37.5552C41.4661 37.9466 41.0993 38.1365 40.7149 38.1376C40.7126 38.1376 40.7114 38.1376 40.7091 38.1376C40.3704 38.1376 40.054 37.99 39.7681 37.697C38.8798 36.8251 39.4599 36.0834 40.511 34.738C41.1122 33.9681 41.9712 32.7681 42.4224 32.0966L43.1208 31.0396L42.8442 30.4783C42.3755 29.5619 42.1552 29.0474 42.7306 28.3326C42.979 28.0244 43.3727 27.8357 43.7841 27.8251C44.1556 27.8181 44.4954 27.9552 44.7192 28.2072C44.9102 28.4205 45.2993 29.1681 45.4786 29.5326C46.9798 32.5337 48.8161 35.2255 51.0919 37.7556C51.795 38.5455 52.4009 39.2263 51.8454 40.083L51.8372 40.0947C51.5454 40.5224 51.1247 40.7533 50.677 40.7533ZM50.5669 39.6775C50.6442 39.7044 50.7977 39.7431 50.9653 39.5041C51.0075 39.4384 51.0098 39.415 51.011 39.4138C51.0122 39.34 50.8903 39.115 50.3079 38.4599C47.9688 35.8607 46.0809 33.0927 44.5352 30.0013C44.2481 29.4154 43.9927 28.9841 43.9306 28.9056C43.9247 28.8986 43.8813 28.8787 43.8122 28.881C43.7114 28.8834 43.6083 28.9291 43.5544 28.9959C43.3974 29.1904 43.3809 29.2103 43.7888 30.0072L44.336 31.1181L43.3024 32.6826C42.8384 33.3716 41.9606 34.5998 41.3442 35.3884C41.0595 35.7529 40.3927 36.606 40.3938 36.8158C40.3938 36.8111 40.4126 36.8509 40.5122 36.947L40.5216 36.9564C40.5989 37.0349 40.6692 37.083 40.7126 37.083C40.7688 37.083 40.8978 37.0162 41.0747 36.8322C41.5013 36.3728 43.3224 33.9681 43.8099 33.19C44.1684 32.6298 44.3267 32.4037 44.6548 32.4037C44.97 32.4037 45.0954 32.5384 45.6813 33.5146C47.1849 35.9744 50.0114 39.3904 50.5669 39.6775ZM50.554 39.6728C50.5575 39.674 50.561 39.6751 50.5645 39.6763C50.5598 39.6751 50.5563 39.674 50.554 39.6728Z" fill="#F5F2EF"/>
        <path d="M15.0216 32.4376C14.8458 32.6251 14.5646 33.0235 14.3888 33.3165C14.1661 33.7032 13.8849 33.961 13.4279 34.2305C13.0646 34.4298 12.6661 34.7227 12.5372 34.8868C12.0919 35.461 12.3146 36.211 13.0529 36.586C13.6857 36.9024 14.2599 37.4532 14.5529 38.0274C14.8927 38.6954 15.0919 38.8946 15.5255 38.9766C16.088 39.0821 16.5802 38.7657 16.9201 38.0977C17.2482 37.4766 17.8576 36.879 18.4435 36.6329C18.9474 36.422 19.2169 36.0352 19.2169 35.4962C19.2169 35.0157 18.9943 34.7462 18.1036 34.1837C17.7872 33.9727 17.3536 33.5743 17.1544 33.2813C16.463 32.3087 16.2169 32.1094 15.7599 32.1094C15.4435 32.1094 15.256 32.1915 15.0216 32.4376ZM16.2872 36.0235L15.7716 36.5391L15.2677 36.0235L14.7638 35.4962L15.2677 35.004L15.7599 34.5118L16.2755 35.004L16.8029 35.4962L16.2872 36.0235Z" fill="black"/>
        <path d="M15.7432 39.5238C15.6413 39.5238 15.537 39.5144 15.4315 39.4945C14.7577 39.3668 14.4495 38.9812 14.0862 38.2664C13.8471 37.7976 13.3503 37.3218 12.8206 37.057C12.2967 36.791 11.9335 36.3527 11.8221 35.8547C11.7214 35.4035 11.828 34.9453 12.1245 34.5633C12.3296 34.3019 12.8089 33.9715 13.171 33.7722C13.5589 33.5425 13.7663 33.3468 13.9362 33.0539C14.1202 32.748 14.426 32.3074 14.6417 32.0777L14.6452 32.0742C14.978 31.725 15.3026 31.582 15.7655 31.582C16.5202 31.582 16.901 32.0062 17.5901 32.9754C17.7436 33.2004 18.1163 33.5531 18.3975 33.7406C19.3139 34.3207 19.751 34.732 19.751 35.4949C19.751 36.2449 19.3608 36.8215 18.6542 37.1179C18.1901 37.3125 17.671 37.8164 17.3932 38.3426C17.0018 39.1054 16.4124 39.5238 15.7432 39.5238ZM15.4081 32.7996C15.2698 32.9484 15.012 33.3082 14.8444 33.5871C14.5854 34.0383 14.2514 34.3582 13.6995 34.684L13.6854 34.6922C13.3245 34.8902 13.0139 35.1398 12.9553 35.2125C12.8546 35.3426 12.8182 35.482 12.851 35.6238C12.8932 35.8148 13.0561 35.9929 13.2952 36.1148C14.0323 36.4828 14.6803 37.1086 15.026 37.7871C15.3401 38.4035 15.4362 38.4211 15.6272 38.4574C15.9424 38.5172 16.2214 38.3144 16.4534 37.8574C16.8506 37.1051 17.5514 36.4359 18.2428 36.1453C18.5546 36.0152 18.6928 35.8148 18.6928 35.4949C18.6928 35.3097 18.6928 35.1761 17.8256 34.6277L17.8151 34.6207C17.4764 34.3945 16.9772 33.9515 16.7217 33.5765C16.0526 32.6355 15.9378 32.6355 15.7631 32.6355C15.6014 32.6367 15.5499 32.6519 15.4081 32.7996ZM15.7702 37.289L14.8936 36.3926L14.0253 35.4843L14.9018 34.6277L15.7538 33.7758L16.6421 34.6242L17.5596 35.4808L16.662 36.3984L15.7702 37.289ZM15.5089 35.509L15.7796 35.789L16.0526 35.5136L15.7725 35.2488L15.5089 35.509Z" fill="#F5F2EF"/>
        <path d="M26.3107 16.5389C26.1349 16.7264 25.8537 17.1248 25.6779 17.4178C25.4552 17.8045 25.174 18.0623 24.7169 18.3319C24.3536 18.5311 23.9552 18.8241 23.8263 18.9881C23.381 19.5623 23.6036 20.3123 24.3419 20.6873C24.9747 21.0037 25.549 21.5545 25.8419 22.1287C26.1818 22.7967 26.381 22.9959 26.8146 23.078C27.3771 23.1834 27.8693 22.867 28.2091 22.1991C28.5372 21.578 29.1466 20.9803 29.7326 20.7342C30.2365 20.5233 30.506 20.1366 30.506 19.5975C30.506 19.117 30.2833 18.8475 29.3927 18.285C29.0763 18.0741 28.6427 17.6756 28.4435 17.3827C27.7521 16.41 27.506 16.2108 27.049 16.2108C26.7326 16.2108 26.5451 16.2928 26.3107 16.5389ZM27.5763 20.1248L27.0607 20.6405L26.5568 20.1248L26.0529 19.5975L26.5568 19.1053L27.049 18.6131L27.5646 19.1053L28.0919 19.5975L27.5763 20.1248Z" fill="black"/>
        <path d="M27.0323 23.6262C26.9303 23.6262 26.826 23.6168 26.7206 23.5969C26.0467 23.4692 25.7385 23.0836 25.3753 22.3688C25.1362 21.8989 24.6393 21.4243 24.1096 21.1594C23.5858 20.8934 23.2225 20.4551 23.1112 19.9571C23.0104 19.5059 23.1171 19.0477 23.4135 18.6657C23.6186 18.4043 24.0979 18.0739 24.46 17.8747C24.8479 17.645 25.0565 17.4493 25.2253 17.1551C25.4092 16.8493 25.7151 16.4086 25.9307 16.1789L25.9331 16.1754C26.2659 15.8262 26.5905 15.6832 27.0534 15.6832C27.8081 15.6832 28.1889 16.1075 28.878 17.0766C29.0315 17.3016 29.4042 17.6543 29.6842 17.8418C30.6007 18.4219 31.0378 18.8332 31.0378 19.5961C31.0378 20.3461 30.6475 20.9227 29.9409 21.2192C29.4768 21.4137 28.9577 21.9176 28.6799 22.4438C28.2921 23.2079 27.7026 23.6262 27.0323 23.6262ZM26.6971 16.9008C26.5589 17.0485 26.301 17.4094 26.1335 17.6883C25.8733 18.1395 25.5405 18.4594 24.9885 18.7852L24.9745 18.7934C24.6135 18.9914 24.303 19.2411 24.2444 19.3137C24.1436 19.4438 24.1073 19.5832 24.1401 19.7262C24.1823 19.9161 24.3452 20.0954 24.5842 20.2172C25.3214 20.5852 25.9694 21.211 26.3151 21.8895C26.6292 22.5059 26.7253 22.5235 26.9163 22.5598C27.2315 22.6184 27.5104 22.4168 27.7424 21.9598C28.1397 21.2075 28.8405 20.5383 29.5319 20.2477C29.8436 20.1176 29.9819 19.9172 29.9819 19.5973C29.9819 19.4122 29.9819 19.2786 29.1147 18.7301L29.1042 18.7231C28.7643 18.4969 28.2663 18.0539 28.0108 17.6789C27.3417 16.7379 27.2268 16.7379 27.0522 16.7379C26.8917 16.7379 26.8389 16.7532 26.6971 16.9008ZM27.0604 21.3903L26.1839 20.4926L25.3155 19.5844L26.1921 18.7278L27.044 17.8758L27.9323 18.7231L28.8499 19.5797L27.9522 20.4973L27.0604 21.3903ZM26.7979 19.6102L27.0686 19.8903L27.3417 19.6149L27.0616 19.35L26.7979 19.6102Z" fill="#F5F2EF"/>
        <path d="M36.4688 36.8556C36.2578 36.9493 36.0001 37.1837 35.8829 37.3946C35.4259 38.2267 35.0039 38.6837 34.4297 39.0001C33.5391 39.4689 33.2812 39.7853 33.2812 40.3712C33.2812 40.9571 33.5039 41.2149 34.4531 41.7657C34.9453 42.047 35.1797 42.2814 35.4609 42.7735C36.0352 43.7696 36.3516 44.0626 36.8789 44.0626C37.4297 44.0626 37.8282 43.8048 38.0274 43.3126C38.3439 42.5743 38.8711 42.0118 39.5977 41.6134C40.1133 41.3439 40.3828 41.1095 40.5117 40.8399C40.8516 40.1251 40.5821 39.6798 39.34 38.9181C38.8946 38.6485 38.5665 38.3087 38.2267 37.7931C37.9571 37.3946 37.6758 37.0196 37.5938 36.9493C37.3125 36.7267 36.8555 36.6915 36.4688 36.8556ZM37.5352 39.7501L38.168 40.3595L37.5352 40.9689L36.9142 41.5899L36.293 40.9806L35.6837 40.3712L36.2696 39.7735C36.5978 39.4454 36.8672 39.1642 36.8906 39.1642C36.9023 39.1524 37.1953 39.4103 37.5352 39.7501Z" fill="black"/>
        <path d="M36.8789 44.5899C36.0504 44.5899 35.598 44.0673 35.0039 43.0372C34.7684 42.6247 34.602 42.4583 34.1918 42.2239C33.1969 41.6462 32.7539 41.2431 32.7539 40.3712C32.7539 39.4642 33.2777 39.0107 34.1836 38.5337C34.6676 38.2665 35.0168 37.8751 35.4199 37.1415C35.5922 36.831 35.9355 36.5157 36.2543 36.3751L36.2625 36.3716C36.8355 36.129 37.4859 36.1935 37.9207 36.5368L37.9371 36.5497C38.1293 36.715 38.5758 37.3689 38.6637 37.4978C38.9719 37.9653 39.2461 38.2454 39.6129 38.4669C40.6371 39.095 41.584 39.811 40.9875 41.0661C40.8012 41.4552 40.459 41.7575 39.8414 42.081C39.2168 42.4232 38.7797 42.8954 38.5113 43.52C38.2383 44.1962 37.6418 44.5899 36.8789 44.5899ZM36.6797 37.3396C36.5707 37.39 36.4031 37.5458 36.3445 37.6513C35.843 38.5642 35.3625 39.0892 34.6852 39.463C33.8098 39.9235 33.8098 40.1122 33.8098 40.3724C33.8098 40.663 33.8098 40.7837 34.7191 41.311C35.2887 41.6368 35.5934 41.9403 35.9203 42.5134C36.5098 43.5364 36.6902 43.5364 36.8801 43.5364C37.2188 43.5364 37.4215 43.4064 37.5398 43.1157C37.9031 42.2685 38.509 41.611 39.3457 41.1517C39.7383 40.9466 39.9621 40.772 40.0371 40.6126C40.1813 40.3103 40.2762 40.1099 39.0656 39.3681C38.5629 39.0646 38.1797 38.679 37.7871 38.0837C37.5246 37.6958 37.316 37.4251 37.2492 37.3501C37.1309 37.2728 36.8965 37.2493 36.6797 37.3396ZM36.9176 42.3317L35.9238 41.3567L34.9418 40.3747L35.8934 39.4044C35.9859 39.3118 36.0703 39.2275 36.1465 39.1501C36.341 38.9544 36.4617 38.8314 36.5578 38.7552C36.9094 38.4528 37.2809 38.788 37.4438 38.9333C37.582 39.0575 37.7449 39.2134 37.9055 39.3739L38.9297 40.3595L37.902 41.3485L36.9176 42.3317ZM36.4254 40.3677L36.9106 40.8482L37.1625 40.5962L37.4086 40.3595L37.1625 40.1228C37.0711 40.0302 36.9856 39.9482 36.9106 39.8767C36.9059 39.8814 36.9012 39.886 36.8965 39.8919C36.8191 39.9704 36.7336 40.0571 36.6434 40.1462L36.4254 40.3677Z" fill="#F5F2EF"/>
        <path d="M52.751 41.4375C52.4346 41.8477 52.4463 42.0938 52.7978 42.5157C53.1377 42.9141 55.1299 44.4375 56.9814 45.7032C58.1533 46.5118 58.2588 46.5586 58.6221 46.4532C59.1025 46.3126 59.3838 45.8086 59.2314 45.3633C59.1611 45.1758 58.5049 44.6368 57.3096 43.793C56.3135 43.0899 55.1064 42.1993 54.626 41.8243C53.6182 41.0157 53.1611 40.9219 52.751 41.4375Z" fill="black"/>
        <path d="M58.3798 47.0227C57.9649 47.0227 57.5911 46.7649 56.6817 46.1368C54.9942 44.9836 52.8181 43.3524 52.3962 42.8579C51.8829 42.2414 51.8653 41.7223 52.3329 41.1153L52.3376 41.1094C52.5825 40.8012 52.8591 40.6336 53.1837 40.5973C53.7345 40.5352 54.2899 40.8786 54.9556 41.4129C55.4184 41.7739 56.6278 42.6668 57.6134 43.3618C59.5587 44.7352 59.6583 45.0012 59.7251 45.177L59.7298 45.1922C59.847 45.5356 59.8177 45.9083 59.6442 46.2399C59.4649 46.5868 59.1462 46.8481 58.7688 46.9583C58.6259 47.0004 58.5005 47.0227 58.3798 47.0227ZM53.0501 41.9532C53.0513 41.9532 53.0677 42.0153 53.2024 42.177C53.4497 42.4676 55.2743 43.8973 57.2782 45.2672C57.7188 45.5719 58.2661 45.9493 58.3938 45.9668C58.3938 45.9668 58.4126 45.9645 58.4747 45.9469C58.5755 45.9176 58.661 45.8473 58.7091 45.7559C58.7278 45.7196 58.7536 45.654 58.743 45.579C58.6587 45.484 58.3118 45.1465 57.0052 44.2243C55.9927 43.5094 54.7891 42.6211 54.3016 42.2403C53.6044 41.6813 53.37 41.6391 53.3009 41.6461C53.2727 41.6497 53.2212 41.6942 53.1649 41.7633C53.0618 41.8981 53.0501 41.9497 53.0501 41.9532Z" fill="#F5F2EF"/>
        <path d="M32.6376 43.219C31.5829 43.8283 28.1258 46.2072 27.8094 46.5471C27.1063 47.2737 26.9305 47.8947 26.8251 49.9221C26.7313 51.926 26.6141 52.4299 25.9579 53.3791C25.2665 54.3869 24.1415 55.1018 22.9462 55.2893C22.5243 55.3479 20.9188 55.3244 18.5282 55.2072C14.1219 54.9963 13.7352 55.0315 10.2899 55.8401C7.89928 56.4026 7.60631 56.4143 7.46569 55.9104C7.43053 55.7697 7.48912 55.5588 7.59459 55.4299C7.71178 55.301 9.39928 54.3283 11.368 53.2619C13.3368 52.1838 15.0126 51.2229 15.0946 51.1174C15.3524 50.7893 15.2704 50.2033 14.9305 49.9338C14.7547 49.7932 14.5321 49.6877 14.4266 49.6877C14.1454 49.6877 6.73912 53.7658 6.37584 54.1174C5.14537 55.3361 5.74303 57.551 7.41881 58.0197C7.96959 58.1721 8.19225 58.1369 11.5438 57.3518C13.3016 56.9416 13.536 56.9065 15.3524 56.9065C16.4188 56.8947 18.6102 56.9416 20.2157 57.0002C22.8524 57.094 23.2157 57.0822 23.8485 56.9065C25.3719 56.4611 26.8719 55.3361 27.5985 54.094C28.3016 52.8869 28.4891 52.1252 28.5829 50.1213C28.6532 48.5393 28.7001 48.2346 28.8993 47.9533C29.0282 47.7776 30.0126 47.051 31.079 46.3479C33.8563 44.4963 33.868 44.4846 33.868 43.9572C33.868 43.2307 33.2469 42.8557 32.6376 43.219Z" fill="black"/>
        <path d="M7.88648 58.6207C7.65796 58.6207 7.48804 58.5856 7.27945 58.5281C6.29976 58.2539 5.55796 57.4817 5.29312 56.4633C5.03296 55.4602 5.29898 54.443 6.00562 53.7434C6.3021 53.4563 9.0232 51.9457 10.1787 51.3094C14.0822 49.1602 14.2744 49.1602 14.4279 49.1602C14.79 49.1602 15.1861 49.4614 15.2611 49.5211C15.8271 49.97 15.9466 50.8864 15.5107 51.443C15.4498 51.5203 15.3044 51.7078 11.6224 53.7246C9.76265 54.7325 8.44546 55.4953 8.05288 55.7496C8.47007 55.7274 9.4732 55.4918 10.1705 55.3278C13.6697 54.5063 14.1396 54.47 18.5552 54.6821C21.0794 54.8063 22.5431 54.8145 22.8759 54.7688C23.9201 54.6047 24.9138 53.9742 25.5255 53.0825C26.1091 52.2375 26.2111 51.8215 26.3013 49.8996C26.4068 47.8793 26.5849 47.0602 27.4334 46.1825C27.833 45.7536 31.3955 43.3325 32.374 42.7664C32.8181 42.5039 33.3244 42.484 33.7298 42.7149C34.1482 42.9528 34.399 43.418 34.399 43.9594C34.399 44.7727 34.2853 44.8489 31.3755 46.7883C30.3056 47.4938 29.4712 48.1219 29.3224 48.2766C29.2216 48.4289 29.1771 48.7266 29.1138 50.1469C29.0154 52.2469 28.808 53.0742 28.058 54.361C27.2576 55.7297 25.665 56.9274 23.9998 57.4137C23.2837 57.6129 22.8935 57.6235 20.2005 57.5285C18.6818 57.4735 16.4564 57.4231 15.3619 57.4348C13.5677 57.4348 13.3603 57.4711 11.6669 57.866C9.27163 58.4262 8.42085 58.6207 7.88648 58.6207ZM6.7357 54.5039C6.30913 54.9328 6.14976 55.5657 6.31382 56.1973C6.48257 56.8489 6.94898 57.3399 7.56187 57.511C7.96968 57.6235 8.12554 57.6106 11.4244 56.8371C13.1986 56.4235 13.4564 56.3778 15.3537 56.3778C16.4599 56.366 18.7064 56.4164 20.2357 56.4715C22.8818 56.5653 23.163 56.5477 23.708 56.3965C25.099 55.9899 26.483 54.9563 27.1439 53.8254C27.7966 52.7051 27.9677 52.0078 28.0568 50.0942C28.1283 48.4817 28.1751 48.0621 28.4693 47.6461C28.7658 47.2418 30.7064 45.9598 30.7896 45.9047C32.3224 44.8828 33.2494 44.2653 33.3384 44.0825C33.3408 44.0684 33.3408 44.0004 33.3408 43.9547C33.3408 43.7977 33.2904 43.6746 33.206 43.6266C33.1322 43.5844 33.0232 43.6008 32.9072 43.6688L32.9013 43.6723C31.8279 44.2922 28.4951 46.5996 28.1939 46.9055C27.6244 47.4938 27.4568 47.9379 27.3525 49.9465C27.2587 51.9516 27.1357 52.6008 26.3927 53.6766C25.6216 54.8016 24.363 55.5985 23.0294 55.8082C22.3298 55.9055 19.6322 55.7871 18.5037 55.7321C14.1865 55.5258 13.808 55.5539 10.4119 56.352C9.15796 56.6473 8.48531 56.7891 8.04937 56.8008C7.45991 56.816 7.10484 56.5711 6.95952 56.0508L6.95601 56.0367C6.88101 55.7356 6.97359 55.3559 7.18804 55.0946L7.20562 55.0735C7.47515 54.7782 10.5115 53.1246 11.1185 52.7965C13.0099 51.7606 14.3951 50.9625 14.6998 50.7563C14.7455 50.645 14.7103 50.4293 14.6037 50.345C14.5486 50.3004 14.49 50.2653 14.4431 50.2407C13.3896 50.7118 7.25484 54.0961 6.7357 54.5039ZM14.6798 50.7926C14.6798 50.7926 14.6798 50.7938 14.6798 50.7926C14.6798 50.7938 14.6798 50.7926 14.6798 50.7926Z" fill="#F5F2EF"/>
    </g>
    <defs>
        <clipPath id="clip0_621:11628">
            <rect width="60" height="60" fill="white"/>
        </clipPath>
    </defs>
</svg>
