<svg width="60" height="60" viewBox="0 0 60 60" fill="none" xmlns="http://www.w3.org/2000/svg">
    <g clip-path="url(#clip0_621:11656)">
        <path d="M59.1005 4.7C59.6005 4.7 60.0005 4.3 60.0005 3.8V2.4C60.0005 1.1 58.9005 0 57.6005 0H49.4006C48.1006 0 47.0005 1.1 47.0005 2.4V8C47.0005 9.2 47.8006 10.2 48.9006 10.5L50.7006 11V18.3C50.7006 18.8 50.9005 19.3 51.1005 19.7C51.0005 21.8 50.3006 26.1 47.2006 28.7C46.3006 29.4 46.4006 30.7 47.2006 31.4C48.7006 32.5 49.2005 33.4 50.5005 33.4C51.4005 33.4 52.1005 32.9 52.5005 32.2C53.4005 30.3 55.0005 26.3 55.1005 19.8C55.5005 19.4 55.7006 18.8 55.7006 18.2V12.4C56.1005 12.4 57.4005 13.3 58.8005 12.3C59.4005 11.8 59.8005 11.1 59.8005 10.4V8C59.8005 7.5 59.4006 7.1 58.9006 7.1C58.4006 7.1 58.2006 7.5 58.2006 8V10.4C58.2006 10.6 58.1006 10.8 57.9006 10.9C57.5006 11.2 57.1005 10.9 55.3005 10.4C54.2005 10.1 50.6005 9.1 49.5005 8.7C49.1005 8.6 48.9006 8.2 48.9006 7.8V2.4C48.9006 2.1 49.2005 1.8 49.5005 1.8H57.7006C58.0006 1.8 58.3005 2.1 58.3005 2.4V3.9C58.2005 4.3 58.6005 4.7 59.1005 4.7ZM51.2006 31.5C51.1006 31.8 50.7006 31.9 50.4006 31.7L48.6005 30.2C51.3005 27.9 52.6005 24.4 53.0005 20.9C53.2005 20.9 53.4005 20.9 53.6005 20.9C53.4005 26.4 52.0006 29.8 51.2006 31.5ZM52.6005 11.5L54.2006 12V18.3C54.2006 18.5 54.1006 18.8 53.9006 18.9C53.4006 19.3 52.6005 19 52.6005 18.3V11.5Z" fill="black"/>
        <path d="M50.7008 34C49.6008 34 49.0008 33.5 48.3008 32.8C48.0008 32.5 47.6008 32.2 47.2008 31.9C46.7008 31.4 46.3008 30.8 46.3008 30.1C46.3008 29.4 46.6008 28.8 47.1008 28.4C50.0008 25.9 50.7008 21.7 50.8008 19.9C50.5008 19.4 50.4008 18.9 50.4008 18.3V11.4L48.9008 11C47.6008 10.6 46.6008 9.4 46.6008 8V2.4C46.6008 0.8 47.9008 -0.5 49.5008 -0.5H57.7008C59.3008 -0.5 60.6008 0.8 60.6008 2.4V3.9C60.6008 4.7 60.0008 5.3 59.2008 5.3C58.8008 5.3 58.5008 5.2 58.2008 4.9C57.9008 4.6 57.8008 4.3 57.8008 3.9V2.4C57.8008 2.3 57.7008 2.3 57.7008 2.3H49.5008C49.4008 2.3 49.4008 2.4 49.4008 2.4V8C49.4008 8.2 49.5008 8.3 49.7008 8.4L55.5008 10.1C56.1008 10.3 56.6008 10.4 57.0008 10.5C57.6008 10.7 57.7008 10.7 57.7008 10.6L57.8008 10.5V8C57.8008 7.2 58.4008 6.6 59.2008 6.6C60.0008 6.6 60.6008 7.2 60.6008 8V10.4C60.6008 11.3 60.2008 12.2 59.4008 12.7C58.3008 13.5 57.2008 13.3 56.5008 13.1V18.3C56.5008 18.9 56.3008 19.6 55.9008 20.1C55.7008 26.5 54.1008 30.6 53.2008 32.5C52.7008 33.4 51.8008 34 50.7008 34ZM49.5008 0.5C48.5008 0.5 47.6008 1.3 47.6008 2.4V8C47.6008 9 48.2008 9.8 49.2008 10.1L51.4008 10.7V18.4C51.4008 18.8 51.5008 19.2 51.8008 19.6L51.9008 19.7V19.9C51.8008 22.3 51.1008 26.6 47.8008 29.3C47.5008 29.5 47.3008 29.9 47.3008 30.3C47.3008 30.7 47.5008 31 47.8008 31.3C48.2008 31.6 48.6008 32 49.0008 32.2C49.8008 32.9 50.1008 33.2 50.8008 33.2C51.5008 33.2 52.1008 32.8 52.4008 32.2C53.3008 30.4 54.9008 26.4 55.0008 20.1V19.9L55.1008 19.8C55.4008 19.4 55.6008 19 55.6008 18.5V12.1H56.1008C56.3008 12.1 56.4008 12.2 56.6008 12.2C57.2008 12.4 58.0008 12.7 58.8008 12C59.3008 11.6 59.6008 11.1 59.6008 10.5V8C59.6008 7.8 59.4008 7.6 59.2008 7.6C59.0008 7.6 58.7008 7.8 58.7008 8V10.4C58.7008 10.8 58.5008 11.1 58.2008 11.3C57.7008 11.7 57.3008 11.5 56.6008 11.3C56.3008 11.2 55.8008 11 55.2008 10.9L49.4008 9.2C48.8008 9 48.4008 8.5 48.4008 7.9V2.4C48.4008 1.8 48.9008 1.3 49.5008 1.3H57.7008C58.3008 1.3 58.8008 1.8 58.8008 2.4V3.9C58.8008 4 58.8008 4.1 58.9008 4.2C59.1008 4.4 59.5008 4.2 59.5008 3.9V2.4C59.5008 1.4 58.7008 0.5 57.6008 0.5H49.5008ZM50.7008 32.3C50.5008 32.3 50.2008 32.2 50.1008 32.1L48.1008 30.4V29.8L48.3008 29.7C50.6008 27.8 52.1008 24.6 52.5008 20.8L52.6008 20.3L53.1008 20.4C53.3008 20.4 53.4008 20.4 53.6008 20.4H54.2008V21C53.9008 26.6 52.5008 30.2 51.7008 31.9C51.6008 32.2 51.3008 32.4 51.0008 32.4C50.9008 32.3 50.8008 32.3 50.7008 32.3ZM49.3008 30.1L50.7008 31.2C51.3008 30 52.2008 27.8 52.7008 24.4C52.0008 26.8 50.9008 28.7 49.3008 30.1ZM53.4008 19.6C53.2008 19.6 53.0008 19.6 52.9008 19.5C52.4008 19.3 52.2008 18.8 52.2008 18.3V10.9L54.8008 11.6V18.3C54.8008 18.7 54.6008 19 54.4008 19.3C54.0008 19.5 53.7008 19.6 53.4008 19.6ZM53.1008 12.2V18.3C53.1008 18.5 53.2008 18.5 53.3008 18.6C53.4008 18.6 53.5008 18.7 53.6008 18.6C53.7008 18.5 53.7008 18.5 53.7008 18.4V12.5L53.1008 12.2Z" fill="#F5F2EF"/>
        <path d="M49.3 34.8999C49.2 33.6999 48.5 33.1999 48 32.9999C47.2 32.6999 45.7 32.4999 42 34.6999C42.3 33.2999 42.2 31.7999 41.6 30.3999C42.9 28.7999 44.3 26.5999 44.1 24.9999C44 23.7999 43.3 23.2999 42.8 23.0999C39.8 21.8999 33 27.3999 30.4 29.3999C30.5 28.4999 30.4 27.5999 30 26.7999C31.2 25.2999 32.8 23.0999 32.6 21.3999C32.5 20.1999 31.7 19.6999 31.3 19.5999C29.6 18.8999 26.8 20.3999 24.9 21.5999C22 23.3999 22.1 23.4999 2.1 39.4999C0.8 40.6999 0 42.2999 0 43.9999C0 45.8999 0 54.5999 0 56.4999C0 58.3999 1.6 59.9999 3.5 59.9999H5.4C5.9 59.9999 6.3 59.5999 6.3 59.0999C6.3 58.5999 5.9 58.1999 5.4 58.1999H3.5C2.5 58.1999 1.8 57.3999 1.8 56.4999V54.5999L26.3 34.9999C27.1 39.1999 31.8 39.3999 34.5 37.3999C36.2 36.1999 38.7 33.6999 40.3 31.8999C40.8 33.5999 40.2 35.5999 38.7 36.6999C38.7 36.6999 35 39.5999 12 58.0999H9.5C9 58.0999 8.6 58.4999 8.6 58.9999C8.6 59.5999 9 59.9999 9.5 59.9999C13.6 59.9999 24.1 59.9999 28.1 59.9999C29.7 59.9999 31.3 59.3999 32.6 58.3999L38.8 53.4999C39.2 53.1999 39.2 52.5999 38.9 52.2999C38.6 51.8999 38 51.8999 37.7 52.1999L31.5 57.0999C30.5 57.8999 29.3 58.2999 28.1 58.2999H14.8L31.7 44.7999C31.9 45.5999 32.1 46.2999 32.5 46.6999C33.8 48.5999 36.9 48.7999 39.1 47.5999C40.4 46.8999 43 44.3999 44 43.2999C44.5 45.0999 43.9 47.0999 42.4 48.2999L40.8 49.4999C40.4 49.7999 40.4 50.3999 40.7 50.6999C41 51.0999 41.6 51.0999 41.9 50.7999L43.5 49.5999C45.8 47.6999 46.6 44.4999 45.4 41.7999C46.4 40.6999 49.6 37.1999 49.3 34.8999ZM25.9 23.0999C29.4 20.8999 30.5 21.0999 30.7 21.1999C30.7 21.1999 30.9 21.2999 30.9 21.5999C31.2 23.7999 24.2 30.5999 22.3 31.7999C20.7 32.7999 18.6 32.5999 17.9 31.6999C17.4 30.9999 17.4 29.9999 17.4 29.5999C21 26.5999 23.1 24.8999 25.9 23.0999ZM26.5 32.4999C25 33.6999 3.2 51.1999 1.8 52.3999V43.9999C1.8 42.7999 2.3 41.6999 3.3 40.9999L15.8 30.9999C16.1 32.6999 17 33.5999 18.2 34.0999C19.4 34.4999 20.8 34.5999 22.2 34.0999C24.1 33.3999 27.4 29.9999 28.7 28.4999C29 31.0999 26.7 32.2999 26.5 32.4999ZM33.5 35.9999C31.7 37.2999 29.2 37.0999 28.4 35.7999C28 35.1999 27.9 34.2999 27.9 33.5999C31.7 30.5999 34 28.4999 37 26.6999C40.8 24.3999 41.9 24.5999 42.1 24.6999C42.2 24.6999 42.3 24.7999 42.3 25.1999C42.6 27.6999 35.5 34.4999 33.5 35.9999ZM38.5 45.7999C37 46.6999 34.6 46.7999 33.7 45.4999C33.3 44.8999 33.2 43.9999 33.2 43.3999C37.9 39.5999 39.4 38.2999 42.2 36.5999C45.9 34.2999 47.1 34.5999 47.2 34.5999C47.3 34.5999 47.4 34.6999 47.4 35.0999C47.9 37.4999 40.4 44.5999 38.5 45.7999Z" fill="black"/>
        <path d="M28.1 60.5H9.5C8.7 60.5 8.1 59.9 8.1 59.1C8.1 58.3 8.7 57.7 9.5 57.7H11.8L36.2 38.2C38 36.8 38.4 36.4 38.4 36.4C39.4 35.6 40 34.3 39.9 33.1C38.3 34.8 36.3 36.8 34.8 37.9C33 39.2 30.5 39.6 28.7 38.8C27.4 38.3 26.5 37.3 26 35.9L2.3 54.9V56.5C2.3 57.2 2.8 57.7 3.5 57.7H5.4C6.2 57.7 6.8 58.3 6.8 59.1C6.8 59.9 6.2 60.5 5.4 60.5H3.5C1.3 60.5 -0.5 58.7 -0.5 56.5V44C-0.5 42.1 0.3 40.4 1.8 39.2C6 35.8 9.3 33.2 11.9 31.1C21.9 23 22.3 22.7 24.6 21.3C26.8 19.9 29.5 18.5 31.4 19.2C31.9 19.4 32.8 20 33 21.4C33.2 22.8 32.3 24.6 30.5 26.9C30.7 27.4 30.8 27.9 30.8 28.4C35.1 25 40.1 21.6 42.8 22.7C43.3 22.9 44.3 23.5 44.4 25C44.6 26.4 43.7 28.3 42 30.5C42.4 31.5 42.6 32.6 42.5 33.7C45.7 32 47.1 32.1 48 32.5C48.5 32.7 49.4 33.3 49.6 34.8C49.9 37 47.6 39.9 45.7 42C46.8 44.9 46 48.1 43.6 50.1L42.1 51.3C41.5 51.8 40.6 51.7 40.2 51.1C40 50.8 39.9 50.5 39.9 50.1C39.9 49.7 40.1 49.4 40.4 49.2L41.9 48C43 47.1 43.6 45.8 43.5 44.4C42.4 45.5 40.4 47.4 39.1 48.1C36.8 49.3 33.4 49.3 31.8 47C31.5 46.6 31.3 46.2 31.2 45.7L16.2 57.7H28.1C29.2 57.7 30.3 57.3 31.2 56.6L37.4 51.7C38 51.2 38.9 51.3 39.3 51.9C39.8 52.5 39.7 53.4 39.1 53.8L32.9 58.7C31.5 59.9 29.8 60.5 28.1 60.5ZM9.5 58.7C9.3 58.7 9.1 58.9 9.1 59.1C9.1 59.3 9.3 59.5 9.5 59.5H28.1C29.6 59.5 31.1 59 32.3 58L38.5 53.1C38.7 53 38.7 52.7 38.6 52.6C38.5 52.4 38.2 52.4 38.1 52.5L31.9 57.4C30.9 58.2 29.5 58.7 28.2 58.7H13.4L32 43.7L32.2 44.5C32.3 45.2 32.6 45.8 32.9 46.2C34.1 47.9 37 48 38.9 47C40.1 46.3 42.5 44.1 43.7 42.8L44.3 42.2L44.5 43C45.1 45 44.4 47.2 42.7 48.5L41.2 49.7C41 49.8 41 50.1 41.1 50.2C41.2 50.4 41.5 50.4 41.6 50.3L43.1 49.1C45.2 47.4 45.9 44.4 44.8 41.9L44.7 41.6L44.9 41.4C47.6 38.4 48.9 36.2 48.7 34.8C48.6 34.1 48.3 33.6 47.7 33.3C47.3 33.1 46.1 32.6 42.2 35L41.2 35.6L41.5 34.5C41.8 33.2 41.7 31.8 41.1 30.6L41 30.4L41.2 30.2C42.9 28 43.8 26.3 43.6 25.2C43.5 24.4 43.2 23.9 42.6 23.7C39.9 22.6 33 28.1 30.8 29.9L29.9 30.6L30 29.5C30.1 28.7 30 27.9 29.7 27.1L29.6 26.8L29.8 26.6C32 23.9 32.4 22.4 32.3 21.6C32.2 20.7 31.7 20.3 31.3 20.2C29.6 19.5 26.4 21.5 25.4 22.2C23.1 23.6 22.7 23.9 12.8 32C9.9 33.9 6.6 36.6 2.4 40C1.2 41 0.5 42.5 0.5 44V56.5C0.5 58.1 1.8 59.5 3.5 59.5H5.4C5.6 59.5 5.8 59.3 5.8 59.1C5.8 58.9 5.6 58.7 5.4 58.7H3.5C2.3 58.7 1.3 57.7 1.3 56.5V54.4L1.5 54.3L26.7 34.1L26.8 34.9C27.1 36.3 27.8 37.4 29.1 37.8C30.6 38.4 32.8 38.1 34.3 37C36 35.8 38.4 33.3 40 31.6L40.6 30.9L40.8 31.8C41.3 33.8 40.7 35.9 39.1 37.2C39.1 37.2 38.6 37.6 36.9 39L12.1 58.7H9.5ZM1.3 53.4V44C1.3 42.7 1.9 41.4 2.9 40.6L16 30L16.2 30.8C16.5 32.2 17.1 33.1 18.3 33.5C19.4 33.9 20.7 33.9 21.9 33.5C23.5 32.9 26.3 30.2 28.3 28.1L29 27.3L29.1 28.4C29.4 31 27.6 32.4 27 32.8C26.9 32.8 26.9 32.9 26.9 32.9H26.8L1.3 53.4ZM15.4 31.8L3.5 41.3C2.7 42 2.3 43 2.3 44V51.3L26.2 32.1C26.3 32 26.3 32 26.4 31.9C26.9 31.6 27.8 30.9 28.1 29.6C26.6 31.1 24 33.7 22.3 34.3C20.9 34.8 19.3 34.9 18 34.3C16.7 34 15.8 33.1 15.4 31.8ZM36 47C35.7 47 35.3 47 35 46.9C34.2 46.7 33.6 46.3 33.3 45.8C32.8 45 32.7 43.9 32.7 43.4V43.2L33 43C33.9 42.3 34.7 41.7 35.4 41.1C38.4 38.7 39.8 37.6 42.1 36.2C45.7 34 47.1 34 47.6 34.2C47.9 34.3 48.1 34.6 48.1 35.1C48.5 37.9 40.5 45.3 38.9 46.3C38 46.7 37 47 36 47ZM33.8 43.6C33.8 44 33.9 44.7 34.2 45.2C34.5 45.6 34.9 45.8 35.3 45.9C36.2 46.1 37.4 45.9 38.3 45.4C40.3 44.1 47.3 37.2 47.1 35.2V35.1C46.8 35.1 45.6 35.2 42.6 37C40.4 38.4 39 39.5 36 41.9C35.3 42.4 34.6 43 33.8 43.6ZM30.8 37.4C30.5 37.4 30.2 37.4 29.9 37.3C29 37.1 28.4 36.7 28 36.1C27.5 35.3 27.5 34.1 27.4 33.7V33.5L29.4 31.9C32.2 29.6 34.3 28 36.7 26.4C40.3 24.1 41.7 24.1 42.3 24.4C42.6 24.5 42.8 24.8 42.9 25.3C43.3 28.3 35.2 35.5 33.8 36.5C32.9 37 31.8 37.4 30.8 37.4ZM28.4 33.9C28.4 34.6 28.6 35.2 28.8 35.6C29 36 29.5 36.2 30 36.3C31 36.5 32.2 36.2 33.1 35.6C35.6 33.8 42 27.3 41.8 25.3V25.2C41.5 25.2 40.3 25.2 37.2 27.2C34.8 28.7 32.8 30.3 30 32.6L28.4 33.9ZM20 33.1C18.9 33.1 17.9 32.7 17.5 32.1C17 31.4 16.9 30.5 16.9 29.9V29.5L17.1 29.3C17.8 28.7 18.5 28.2 19.1 27.7C21.6 25.7 23.4 24.2 25.7 22.8C29.1 20.7 30.4 20.7 30.9 20.9C31.2 21 31.4 21.3 31.4 21.7C31.7 24.4 24.2 31.4 22.6 32.4C21.8 32.8 20.8 33.1 20 33.1ZM17.9 29.8C17.9 30.3 18 31 18.3 31.4C18.8 32.1 20.6 32.4 22 31.4C24.1 30 30.6 23.5 30.3 21.6C30 21.6 28.8 21.7 26.1 23.5C23.9 24.9 22.1 26.3 19.6 28.4C19.1 28.8 18.5 29.3 17.9 29.8Z" fill="#F5F2EF"/>
    </g>
    <defs>
        <clipPath id="clip0_621:11656">
            <rect width="60" height="60" fill="white"/>
        </clipPath>
    </defs>
</svg>
