<svg width="60" height="60" viewBox="0 0 60 60" fill="none" xmlns="http://www.w3.org/2000/svg">
<g clip-path="url(#clip0_194:1704)">
<path d="M51.1388 11.0211V10.8325L50.9573 10.7807L49.1116 10.2544C48.0859 9.96196 47.3686 9.01161 47.3686 7.94496V2.36191C47.3686 1.19767 48.3162 0.25 49.4805 0.25H57.6386C58.8029 0.25 59.7506 1.19768 59.7506 2.36191V3.86156C59.7506 4.209 59.4691 4.49047 59.1217 4.49047C58.7741 4.49047 58.4927 4.20898 58.4929 3.86168V3.86156V2.36191C58.4929 1.89642 58.1044 1.50793 57.6389 1.50793H49.4808C49.0153 1.50793 48.6268 1.89642 48.6268 2.36191V7.94496C48.6268 8.45364 48.9674 8.9051 49.4567 9.0446C49.4567 9.0446 49.4567 9.0446 49.4568 9.0446L55.2772 10.7043L55.2771 10.7045L55.2865 10.7068C55.9281 10.8634 56.3697 11.0034 56.7114 11.1117C56.8677 11.1612 57.003 11.2041 57.127 11.2389C57.3152 11.2918 57.4888 11.3289 57.6544 11.3192C57.833 11.3087 57.9827 11.2454 58.127 11.1363C58.3591 10.9613 58.4929 10.6923 58.4929 10.4017V7.96336C58.4929 7.61592 58.7743 7.33445 59.1218 7.33445C59.4692 7.33445 59.7507 7.61602 59.7507 7.96336V10.4017C59.7507 11.092 59.4355 11.7248 58.8845 12.1405C58.2909 12.5885 57.7041 12.6258 57.2055 12.5458C56.9528 12.5052 56.7237 12.4345 56.5249 12.3686C56.4982 12.3598 56.4715 12.3508 56.4452 12.342C56.3762 12.3189 56.3093 12.2965 56.2504 12.2785C56.1712 12.2543 56.0827 12.2304 56.0014 12.2246L55.7334 12.2052V12.4739V18.2967C55.7334 18.8539 55.534 19.3651 55.2024 19.7636L55.1465 19.8309L55.1447 19.9183C55.0118 26.2862 53.4464 30.3212 52.5221 32.1627C52.175 32.8538 51.4777 33.2713 50.7193 33.2713C50.1665 33.2713 49.7847 33.0799 49.3433 32.736C49.1651 32.5971 48.9828 32.4379 48.7756 32.257C48.7194 32.208 48.6615 32.1574 48.6012 32.1051C48.3231 31.8638 48.0055 31.5953 47.6221 31.3126C46.8858 30.7008 46.8807 29.5709 47.6099 28.9624L47.61 28.9624C50.8252 26.2788 51.4645 21.8229 51.5854 19.7507L51.5904 19.6651L51.5419 19.5945C51.2877 19.2248 51.1388 18.7781 51.1388 18.2967V11.0211ZM51.3976 31.5984L51.3977 31.5983C52.2388 29.9229 53.6055 26.3986 53.8564 20.8497L53.8691 20.5702L53.5899 20.589C53.4155 20.6007 53.2275 20.5919 53.0509 20.5624L52.7899 20.5188L52.7612 20.7819C52.3815 24.2676 51.0695 27.7132 48.4158 29.9281L48.4158 29.9281C48.3914 29.9484 48.3774 29.9679 48.3732 29.9737L48.373 29.9739C48.3639 29.9867 48.3578 29.9977 48.3544 30.004C48.3476 30.0171 48.3432 30.0282 48.3408 30.0347C48.3356 30.0488 48.3322 30.0618 48.33 30.0727C48.3253 30.0949 48.3228 30.1212 48.325 30.1502C48.3297 30.2129 48.3574 30.2888 48.4268 30.3459L50.2394 31.8389C50.614 32.1477 51.1795 32.0325 51.3976 31.5984ZM48.7445 29.9598C48.7447 29.9599 48.7449 29.9601 48.7451 29.9602L48.7446 29.9598L48.7445 29.9598ZM52.7149 11.282L52.3963 11.1912V11.5225V18.2967C52.3963 19.174 53.4272 19.6675 54.1145 19.0826L54.1164 19.081C54.335 18.8912 54.4753 18.6105 54.4753 18.2967V11.9727V11.784L54.2939 11.7323L52.7149 11.282Z" fill="black" stroke="#F5F2EF" stroke-width="0.5"/>
<path d="M47.8882 33.2165L47.8882 33.2164C47.203 32.9371 45.8125 32.7316 42.1248 34.9097L41.616 35.2103L41.7546 34.6358C42.0787 33.2929 41.9509 31.8483 41.3275 30.5519L41.2593 30.4101L41.3577 30.2873C41.9921 29.4954 42.6649 28.5625 43.1529 27.6316C43.6451 26.6928 43.9287 25.7943 43.8367 25.0581C43.7024 23.9838 43.1155 23.5498 42.6588 23.3642L42.6588 23.3642C41.9938 23.0938 41.0774 23.1831 39.992 23.5514C38.916 23.9165 37.7207 24.5397 36.5291 25.2707C34.1801 26.7116 31.8842 28.5471 30.6029 29.5715L30.549 29.6145L30.0884 29.9828L30.144 29.3957C30.2237 28.5556 30.1122 27.6946 29.7955 26.8819L29.7426 26.7459L29.8349 26.6329C30.4536 25.8759 31.134 24.9581 31.6337 24.0338C32.1382 23.1009 32.4354 22.2026 32.344 21.4709C32.2088 20.3888 31.5681 19.9893 31.2105 19.8439C30.4565 19.5374 29.4241 19.7111 28.293 20.151C27.1751 20.5858 26.0225 21.2556 25.064 21.855L24.9314 21.6431L25.0639 21.855C22.7856 23.2796 22.3677 23.6157 12.406 31.6272C9.76889 33.748 6.46301 36.4067 2.27675 39.7659C0.988452 40.7998 0.25 42.3393 0.25 43.9912V44.0024V44.0137V44.0252V44.0369V44.0487V44.0606V44.0728V44.085V44.0974V44.11V44.1227V44.1356V44.1486V44.1617V44.175V44.1885V44.2021V44.2158V44.2297V44.2438V44.2579V44.2722V44.2867V44.3013V44.3161V44.3309V44.346V44.3611V44.3764V44.3919V44.4075V44.4232V44.439V44.455V44.4711V44.4874V44.5038V44.5203V44.537V44.5538V44.5707V44.5877V44.6049V44.6222V44.6397V44.6572V44.6749V44.6928V44.7107V44.7288V44.747V44.7653V44.7838V44.8024V44.8211V44.8399V44.8588V44.8779V44.8971V44.9164V44.9358V44.9553V44.975V44.9948V45.0147V45.0347V45.0548V45.0751V45.0954V45.1159V45.1365V45.1572V45.178V45.1989V45.2199V45.2411V45.2623V45.2837V45.3051V45.3267V45.3484V45.3702V45.3921V45.4141V45.4362V45.4584V45.4807V45.5031V45.5257V45.5483V45.571V45.5938V45.6167V45.6398V45.6629V45.6861V45.7094V45.7328V45.7563V45.7799V45.8036V45.8274V45.8513V45.8753V45.8994V45.9236V45.9478V45.9722V45.9966V46.0211V46.0457V46.0704V46.0952V46.1201V46.1451V46.1701V46.1953V46.2205V46.2458V46.2712V46.2967V46.3222V46.3479V46.3736V46.3994V46.4253V46.4512V46.4773V46.5034V46.5296V46.5558V46.5822V46.6086V46.6351V46.6617V46.6883V46.715V46.7418V46.7687V46.7956V46.8226V46.8497V46.8768V46.9041V46.9313V46.9587V46.9861V47.0136V47.0411V47.0688V47.0964V47.1242V47.152V47.1799V47.2078V47.2358V47.2638V47.2919V47.3201V47.3484V47.3766V47.405V47.4334V47.4619V47.4904V47.519V47.5476V47.5763V47.605V47.6338V47.6627V47.6916V47.7205V47.7495V47.7786V47.8077V47.8368V47.866V47.8952V47.9245V47.9539V47.9833V48.0127V48.0422V48.0717V48.1012V48.1308V48.1605V48.1902V48.2199V48.2497V48.2795V48.3093V48.3392V48.3691V48.3991V48.4291V48.4591V48.4892V48.5193V48.5495V48.5796V48.6098V48.6401V48.6704V48.7007V48.731V48.7614V48.7917V48.8222V48.8526V48.8831V48.9136V48.9441V48.9747V49.0053V49.0359V49.0665V49.0972V49.1278V49.1585V49.1893V49.22V49.2508V49.2815V49.3123V49.3432V49.374V49.4049V49.4357V49.4666V49.4975V49.5284V49.5594V49.5903V49.6213V49.6523V49.6832V49.7142V49.7452V49.7763V49.8073V49.8383V49.8694V49.9004V49.9315V49.9625V49.9936V50.0247V50.0557V50.0868V50.1179V50.149V50.1801V50.2112V50.2423V50.2734V50.3045V50.3356V50.3667V50.3977V50.4288V50.4599V50.491V50.5221V50.5531V50.5842V50.6153V50.6463V50.6774V50.7084V50.7394V50.7704V50.8014V50.8324V50.8634V50.8944V50.9254V50.9563V50.9872V51.0182V51.0491V51.08V51.1108V51.1417V51.1725V51.2034V51.2342V51.2649V51.2957V51.3265V51.3572V51.3879V51.4186V51.4492V51.4799V51.5105V51.541V51.5716V51.6021V51.6327V51.6631V51.6936V51.724V51.7544V51.7848V51.8151V51.8454V51.8757V51.9059V51.9362V51.9663V51.9965V52.0266V52.0567V52.0867V52.1167V52.1467V52.1766V52.2065V52.2364V52.2662V52.2959V52.3257V52.3554V52.385V52.4146V52.4442V52.4737V52.5032V52.5326V52.562V52.5914V52.6207V52.6499V52.6791V52.7083V52.7374V52.7664V52.7954V52.8244V52.8533V52.8822V52.911V52.9397V52.9684V52.997V53.0256V53.0541V53.0826V53.111V53.1394V53.1677V53.1959V53.2241V53.2522V53.2803V53.3083V53.3362V53.3641V53.3919V53.4197V53.4474V53.475V53.5026V53.53V53.5575V53.5848V53.6121V53.6393V53.6665V53.6936V53.7206V53.7475V53.7744V53.8012V53.8279V53.8546V53.8812V53.9077V53.9341V53.9605V53.9868V54.013V54.0391V54.0651V54.0911V54.117V54.1428V54.1685V54.1942V54.2197V54.2452V54.2706V54.2959V54.3212V54.3463V54.3714V54.3964V54.4213V54.4461V54.4708V54.4954V54.52V54.5444V54.5688V54.593V54.6172V54.6413V54.6653V54.6892V54.713V54.7367V54.7603V54.7839V54.8073V54.8306V54.8539V54.877V54.9V54.923V54.9458V54.9685V54.9912V55.0137V55.0361V55.0585V55.0807V55.1028V55.1248V55.1467V55.1685V55.1902V55.2118V55.2333V55.2547V55.2759V55.2971V55.3181V55.3391V55.3599V55.3806V55.4012V55.4217V55.4421V55.4623V55.4825V55.5025V55.5224V55.5422V55.5619V55.5814V55.6009V55.6202V55.6394V55.6585V55.6774V55.6963V55.715V55.7336V55.7521V55.7704V55.7886V55.8067V55.8247V55.8425V55.8602V55.8778V55.8953V55.9126V55.9298V55.9469V55.9638V55.9806V55.9973V56.0139V56.0303V56.0465V56.0627V56.0787V56.0946V56.1103V56.1259V56.1414V56.1567V56.1719V56.1869V56.2018V56.2166V56.2312V56.2457V56.26V56.2742V56.2883V56.3022V56.3159V56.3296V56.343V56.3563V56.3695V56.3826V56.3954V56.4082V56.4208V56.4332V56.4455V56.4576V56.4696V56.4814V56.4931V56.5046V56.516C0.25 58.299 1.701 59.75 3.48398 59.75H5.36719C5.71462 59.75 5.99609 59.4685 5.99609 59.121C5.99609 58.7736 5.71462 58.4921 5.36719 58.4921H3.48398C2.39424 58.4921 1.50793 57.606 1.50793 56.5161V54.6517V54.5318L1.60147 54.4568L26.1278 34.7763L26.4565 34.5125L26.5304 34.9275C26.8879 36.9366 28.1768 37.9724 29.7029 38.2845C31.2474 38.6004 33.0393 38.1727 34.3427 37.2172C36.0245 35.9828 38.4864 33.5523 40.0686 31.7953L40.3734 31.4568L40.4953 31.8957C41.0033 33.7254 40.4 35.7498 38.8542 36.99L38.8539 36.9903L38.8531 36.9909L38.8507 36.9928L38.8416 37.0002L38.8049 37.0297L38.6473 37.1561L37.9149 37.7437L34.1333 40.7774C30.3357 43.824 23.656 49.1826 12.1196 58.4371L12.0511 58.4921H11.9632H9.46898C9.12155 58.4921 8.84008 58.7736 8.84008 59.121C8.84008 59.4685 9.12155 59.75 9.46898 59.75H9.49288H9.51692H9.54111H9.56545H9.58993H9.61455H9.63932H9.66423H9.68928H9.71448H9.73981H9.76529H9.79091H9.81666H9.84256H9.8686H9.89477H9.92108H9.94752H9.97411H10.0008H10.0277H10.0547H10.0818H10.109H10.1364H10.164H10.1916H10.2194H10.2473H10.2753H10.3035H10.3318H10.3602H10.3888H10.4175H10.4463H10.4752H10.5043H10.5335H10.5628H10.5922H10.6218H10.6515H10.6813H10.7112H10.7412H10.7714H10.8017H10.8321H10.8626H10.8932H10.924H10.9549H10.9858H11.017H11.0482H11.0795H11.1109H11.1425H11.1742H11.206H11.2379H11.2699H11.302H11.3342H11.3665H11.399H11.4315H11.4642H11.497H11.5298H11.5628H11.5959H11.6291H11.6624H11.6958H11.7293H11.7629H11.7966H11.8304H11.8643H11.8983H11.9324H11.9666H12.0009H12.0353H12.0698H12.1044H12.1391H12.1739H12.2088H12.2437H12.2788H12.314H12.3492H12.3846H12.42H12.4555H12.4911H12.5268H12.5626H12.5985H12.6345H12.6706H12.7067H12.7429H12.7793H12.8157H12.8521H12.8887H12.9254H12.9621H12.9989H13.0358H13.0728H13.1099H13.147H13.1842H13.2215H13.2589H13.2964H13.3339H13.3715H13.4092H13.447H13.4848H13.5227H13.5607H13.5988H13.6369H13.6751H13.7134H13.7517H13.7901H13.8286H13.8671H13.9058H13.9445H13.9832H14.022H14.0609H14.0999H14.1389H14.178H14.2171H14.2563H14.2956H14.3349H14.3743H14.4138H14.4533H14.4929H14.5325H14.5722H14.612H14.6518H14.6916H14.7316H14.7715H14.8116H14.8517H14.8918H14.932H14.9723H15.0126H15.0529H15.0933H15.1338H15.1743H15.2148H15.2554H15.2961H15.3368H15.3775H15.4183H15.4592H15.5H15.541H15.5819H15.623H15.664H15.7051H15.7463H15.7875H15.8287H15.87H15.9113H15.9526H15.994H16.0354H16.0769H16.1184H16.1599H16.2015H16.2431H16.2847H16.3264H16.3681H16.4098H16.4516H16.4934H16.5352H16.5771H16.619H16.6609H16.7029H16.7448H16.7868H16.8289H16.8709H16.913H16.9551H16.9973H17.0394H17.0816H17.1238H17.166H17.2083H17.2506H17.2929H17.3352H17.3775H17.4199H17.4622H17.5046H17.547H17.5894H17.6319H17.6743H17.7168H17.7593H17.8018H17.8443H17.8868H17.9293H17.9719H18.0144H18.057H18.0996H18.1422H18.1848H18.2274H18.27H18.3126H18.3552H18.3978H18.4405H18.4831H18.5258H18.5684H18.6111H18.6537H18.6964H18.739H18.7817H18.8243H18.867H18.9096H18.9523H18.9949H19.0376H19.0802H19.1229H19.1655H19.2081H19.2507H19.2934H19.336H19.3786H19.4212H19.4638H19.5063H19.5489H19.5915H19.634H19.6765H19.7191H19.7616H19.8041H19.8465H19.889H19.9315H19.9739H20.0163H20.0587H20.1011H20.1435H20.1858H20.2282H20.2705H20.3128H20.355H20.3973H20.4395H20.4817H20.5239H20.5661H20.6082H20.6503H20.6924H20.7345H20.7765H20.8185H20.8605H20.9024H20.9444H20.9862H21.0281H21.0699H21.1117H21.1535H21.1952H21.237H21.2786H21.3203H21.3619H21.4034H21.445H21.4865H21.5279H21.5693H21.6107H21.6521H21.6934H21.7346H21.7759H21.8171H21.8582H21.8993H21.9404H21.9814H22.0223H22.0633H22.1042H22.145H22.1858H22.2265H22.2672H22.3079H22.3485H22.389H22.4295H22.47H22.5104H22.5508H22.5911H22.6313H22.6715H22.7116H22.7517H22.7918H22.8317H22.8717H22.9115H22.9513H22.9911H23.0308H23.0704H23.11H23.1495H23.189H23.2284H23.2677H23.307H23.3462H23.3853H23.4244H23.4634H23.5024H23.5413H23.5801H23.6188H23.6575H23.6962H23.7347H23.7732H23.8116H23.8499H23.8882H23.9264H23.9645H24.0026H24.0406H24.0785H24.1163H24.1541H24.1918H24.2294H24.2669H24.3044H24.3417H24.379H24.4163H24.4534H24.4905H24.5275H24.5644H24.6012H24.6379H24.6746H24.7111H24.7476H24.784H24.8203H24.8566H24.8927H24.9288H24.9648H25.0006H25.0364H25.0721H25.1078H25.1433H25.1787H25.2141H25.2493H25.2845H25.3195H25.3545H25.3894H25.4242H25.4589H25.4935H25.5279H25.5623H25.5966H25.6308H25.665H25.699H25.7329H25.7667H25.8004H25.834H25.8675H25.9009H25.9342H25.9673H26.0004H26.0334H26.0663H26.099H26.1317H26.1643H26.1967H26.229H26.2613H26.2934H26.3254H26.3573H26.3891H26.4207H26.4523H26.4837H26.5151H26.5463H26.5774H26.6084H26.6392H26.67H26.7006H26.7311H26.7616H26.7918H26.822H26.852H26.882H26.9118H26.9414H26.971H27.0004H27.0297H27.0589H27.088H27.1169H27.1457H27.1744H27.203H27.2314H27.2597H27.2879H27.3159H27.3438H27.3716H27.3992H27.4268H27.4542H27.4814H27.5085H27.5355H27.5624H27.5891H27.6157H27.6421H27.6684H27.6946H27.7206H27.7465H27.7723H27.7979H27.8234H27.8487H27.8739H27.8989H27.9239H27.9486H27.9732H27.9977H28.0221H28.0462H28.0703H28.0942C29.6631 59.75 31.2018 59.209 32.4255 58.2269L38.5921 53.2785C38.5921 53.2785 38.5922 53.2785 38.5922 53.2784C38.863 53.061 38.9064 52.6652 38.689 52.3942C38.4716 52.1234 38.0758 52.0799 37.8047 52.2973C37.8047 52.2973 37.8047 52.2973 37.8047 52.2974L31.6382 57.2458C30.6365 58.0496 29.3781 58.492 28.0941 58.492H14.7791H14.0681L14.6226 58.047L31.5021 44.5025L31.8286 44.2405L31.9044 44.6522C32.0532 45.4599 32.3238 46.0593 32.6175 46.4763L32.6177 46.4766C33.2271 47.3439 34.2576 47.8494 35.4261 47.9891C36.5939 48.1288 37.8736 47.8988 38.9429 47.3245C39.5864 46.9785 40.5366 46.2038 41.4732 45.3644C42.4032 44.5308 43.2984 43.653 43.8259 43.1188L44.1297 42.8111L44.2448 43.2279C44.766 45.1156 44.1395 47.2143 42.5541 48.4865L41.004 49.7304C40.7331 49.9478 40.6897 50.3437 40.9071 50.6148C41.1244 50.8853 41.5201 50.9289 41.7914 50.7116L47.8882 33.2165ZM47.8882 33.2165C48.3406 33.4007 48.9213 33.8304 49.0546 34.8905C49.1206 35.4152 48.9928 36.0269 48.727 36.6834C48.4624 37.3371 48.0692 38.0152 47.629 38.6646C46.7483 39.9635 45.6981 41.1209 45.1664 41.7057L45.0556 41.8274L45.1237 41.9773C46.2911 44.546 45.581 47.6705 43.3414 49.4676L43.4979 49.6626L43.3414 49.4676L41.7915 50.7115L47.8882 33.2165ZM31.0957 21.6271C31.0711 21.4302 31.0239 21.287 30.9529 21.1835C30.8734 21.0676 30.7812 21.0274 30.7369 21.0094C30.5781 20.9447 30.2067 20.8761 29.4485 21.0891C28.6885 21.3026 27.5185 21.8049 25.7432 22.9139C23.4933 24.3194 21.7088 25.7628 19.1645 27.8207C18.5541 28.3144 17.9001 28.8434 17.1854 29.4157L17.0809 29.4994L17.0926 29.6327C17.0971 29.6836 17.1013 29.7435 17.1059 29.8106C17.1216 30.0345 17.1429 30.3383 17.1982 30.6509C17.2705 31.0599 17.4057 31.52 17.6862 31.9007C18.0871 32.445 18.867 32.7587 19.7173 32.813C20.5783 32.8679 21.5621 32.6622 22.4219 32.107L22.4219 32.107L22.4242 32.1055C23.3988 31.4606 25.626 29.4438 27.5683 27.3172C28.5416 26.2516 29.4522 25.1488 30.1035 24.1665C30.429 23.6756 30.694 23.2086 30.8691 22.7869C31.042 22.3705 31.1388 21.9715 31.0957 21.6271ZM31.0957 21.6271L30.8476 21.6581M31.0957 21.6271C31.0957 21.627 31.0957 21.627 31.0957 21.627L30.8476 21.6581M30.8476 21.6581C30.8037 21.3064 30.6909 21.2606 30.6428 21.241L30.8476 21.6581ZM38.6797 46.0191L38.679 46.0195C37.905 46.5172 36.8708 46.7895 35.9193 46.7634C34.9742 46.7374 34.0456 46.4119 33.5706 45.6356L33.5701 45.6348C33.1586 44.9567 33.057 43.983 33.0469 43.387L33.0448 43.2641L33.1408 43.1874C34.0283 42.4784 34.8004 41.8571 35.4877 41.304C38.4665 38.9069 39.8521 37.7919 42.1418 36.3698C44.0152 35.2062 45.2521 34.6815 46.0559 34.46C46.8588 34.2387 47.2501 34.3145 47.4139 34.3813M38.6797 46.0191L47.5587 35.0786M38.6797 46.0191C39.633 45.4015 41.9799 43.3051 44.0435 41.0712C45.0777 39.9516 46.0502 38.7876 46.7466 37.7466C47.0947 37.2263 47.3781 36.7304 47.5653 36.2816C47.7503 35.8379 47.8527 35.4139 47.8067 35.0475L47.5587 35.0786M38.6797 46.0191L47.5587 35.0786M47.4139 34.3813L47.3194 34.6128L47.4138 34.3813C47.4138 34.3813 47.4139 34.3813 47.4139 34.3813ZM47.4139 34.3813C47.461 34.4005 47.5609 34.4426 47.6477 34.5648C47.7267 34.676 47.7796 34.8314 47.8067 35.0475L47.5587 35.0786M31.7154 44.9724C31.8772 45.6765 32.1318 46.2209 32.4131 46.6203C33.7351 48.5019 36.8306 48.7428 39.0613 47.5447L31.7154 44.9724ZM26.6654 32.731L26.6861 32.7144L26.7009 32.6963C26.701 32.6964 26.7077 32.6895 26.7271 32.6736C26.7497 32.655 26.7801 32.6316 26.8198 32.6016C26.8344 32.5906 26.8501 32.5788 26.8667 32.5664C26.9381 32.5127 27.027 32.446 27.1246 32.3683C27.3667 32.1756 27.6718 31.9086 27.9612 31.5576C28.5433 30.8514 29.0583 29.8075 28.8816 28.3597L28.8159 27.8209L28.4492 28.2211C27.7732 28.9588 26.617 30.165 25.3956 31.2758C24.7848 31.8312 24.1605 32.3604 23.5735 32.7946C22.9836 33.231 22.4443 33.5617 22.0022 33.7313C20.6915 34.2338 19.3161 34.2009 18.2156 33.7744C17.6256 33.5457 17.1417 33.2241 16.7663 32.7659C16.3904 32.3072 16.1116 31.6972 15.9544 30.8743L15.8765 30.4661L15.5524 30.7262L3.06409 40.7471L3.06407 40.7471C2.07542 41.5406 1.50793 42.7235 1.50793 43.9912V52.36V52.8806L1.91421 52.5552L26.6654 32.731ZM27.7695 33.4588L27.6752 33.5348L27.6763 33.6559C27.6827 34.3614 27.8061 35.2889 28.193 35.9434C28.6225 36.6703 29.5386 37.0625 30.5305 37.1166C31.5326 37.1713 32.6696 36.8875 33.6122 36.1929C34.6381 35.4388 36.9452 33.3461 38.9566 31.141C39.9632 30.0375 40.9031 28.8978 41.5739 27.8766C41.9091 27.3662 42.1814 26.8791 42.3605 26.4364C42.5379 25.9981 42.6341 25.579 42.5885 25.214L42.3404 25.245L42.5885 25.214C42.5605 24.9905 42.5058 24.8306 42.4248 24.7169C42.3359 24.5921 42.2337 24.5493 42.1853 24.5296L42.1851 24.5295C42.0204 24.4627 41.625 24.3858 40.8133 24.6108C40.0009 24.8361 38.7513 25.369 36.8596 26.5508C34.404 28.0849 32.3516 29.7485 29.556 32.0145C28.9937 32.4703 28.4013 32.9505 27.7695 33.4588Z" fill="black" stroke="#F5F2EF" stroke-width="0.5"/>
</g>
<defs>
<clipPath id="clip0_194:1704">
<rect width="60" height="60" fill="white"/>
</clipPath>
</defs>
</svg>
