<svg width="60" height="60" viewBox="0 0 60 60" fill="none" xmlns="http://www.w3.org/2000/svg">
<mask id="path-1-inside-1_194:1609" fill="white">
<path d="M0.878903 59.9998C0.393514 59.9998 0 59.6064 0 59.1209V43.766C0 43.2805 0.393514 42.8871 0.878903 42.8871H4.646C5.13139 42.8871 5.5249 43.2805 5.5249 43.766C5.5249 44.2515 5.13139 44.6449 4.646 44.6449H1.75781V59.1209C1.75781 59.6064 1.36429 59.9998 0.878903 59.9998ZM32.987 28.5634C32.7927 28.5634 32.5972 28.4993 32.4344 28.3676C32.0572 28.0622 31.999 27.5087 32.3044 27.1315C33.0978 26.1515 33.3279 25.2254 33.39 24.8731C33.4742 24.3949 33.9299 24.0768 34.4081 24.1599C34.8861 24.2441 35.2054 24.6999 35.1212 25.178C35.0145 25.7831 34.6843 26.9854 33.6706 28.2375C33.497 28.4521 33.243 28.5634 32.987 28.5634ZM13.3751 25.8215C12.8898 25.8215 12.4962 25.4281 12.4962 24.9426V12.3356C12.4962 11.8501 12.8898 11.4567 13.3751 11.4567C13.8605 11.4567 14.254 11.8501 14.254 12.3356V24.9426C14.254 25.4279 13.8605 25.8215 13.3751 25.8215ZM17.3976 21.6944C16.9122 21.6944 16.5187 21.301 16.5187 20.8155V12.3356C16.5187 11.8501 16.9122 11.4567 17.3976 11.4567C17.883 11.4567 18.2765 11.8501 18.2765 12.3356V20.8155C18.2765 21.301 17.883 21.6944 17.3976 21.6944ZM58.4994 59.7424L50.5758 51.8187C48.1749 49.4177 44.2768 49.4036 41.8578 51.7759C41.3456 52.4561 40.7595 53.1381 40.1036 53.8145C37.5888 56.4077 34.3237 58.6384 31.146 59.9348C31.0372 59.9791 30.9248 60.0002 30.8142 60.0002C30.4676 60.0002 30.1391 59.7937 30.0001 59.4531C29.8168 59.0036 30.0325 58.4906 30.4819 58.3074C36.2161 55.9682 42.6282 50.0038 42.6269 45.5226C42.6268 45.0387 42.2324 44.6451 41.748 44.6451H8.16161C7.67622 44.6451 7.2827 44.2517 7.2827 43.7662C7.2827 43.2807 7.67622 42.8873 8.16161 42.8873H12.4962V38.0444C12.4962 34.6583 13.0667 31.6064 14.1917 28.9732C15.235 26.5315 16.7267 24.5015 18.6255 22.9396C21.9214 20.2286 26.2408 19.1514 30.4762 19.9839C30.7771 20.0431 31.0254 20.2548 31.1314 20.5425C31.2375 20.8302 31.1858 21.1524 30.9953 21.3926C30.1444 22.4651 29.6182 25.1084 29.8311 26.3747C29.9118 26.8533 29.5889 27.3067 29.1103 27.3873C28.6318 27.467 28.1782 27.1452 28.0977 26.6664C27.8759 25.348 28.1893 23.1533 28.9044 21.5277C25.5936 21.203 22.3116 22.1837 19.742 24.2973C17.2383 26.3567 14.2539 30.4133 14.2539 38.0447V42.8875H17.7695V38.0447C17.7695 37.5591 18.163 37.1657 18.6484 37.1657C19.1338 37.1657 19.5273 37.5591 19.5273 38.0447V42.8875H24.9259C24.4814 42.2451 24.2428 41.49 24.2429 40.6986C24.2431 39.2744 25.0275 38.024 26.2002 37.3302C23.4671 35.433 21.8064 33.3021 21.0457 30.6659C20.418 31.6921 19.9921 32.9897 19.7542 34.5908C19.683 35.0709 19.236 35.4007 18.7557 35.3311C18.2756 35.2598 17.9441 34.8126 18.0155 34.3325C18.4027 31.7251 19.2544 29.768 20.6173 28.3569C20.5716 27.872 20.5492 27.3717 20.5492 26.8539C20.5492 26.3684 20.9427 25.975 21.4281 25.975C21.9135 25.975 22.307 26.3684 22.307 26.8539C22.307 29.0651 22.7366 30.8024 23.6589 32.3216C24.6668 33.9818 26.3363 35.4697 28.7626 36.8706C29.1071 37.0694 29.2751 37.4749 29.1721 37.8593C29.0692 38.2434 28.7209 38.5107 28.3232 38.5107C28.323 38.5107 28.3229 38.5107 28.3227 38.5107C27.0424 38.5107 26.0009 39.4921 26.0006 40.6988C26.0006 41.2762 26.2372 41.8211 26.6672 42.2333C27.1073 42.6551 27.6952 42.8874 28.3225 42.8875H31.851C34.4438 40.3912 37.6625 38.6889 41.1778 37.9579C42.9809 37.5831 44.8157 37.4711 46.6284 37.6179C48.0662 34.8286 49.3464 31.3328 48.9331 29.8089C48.6373 28.7179 47.4206 27.6577 44.8312 26.3327C44.3985 27.502 43.5755 28.7715 42.5339 29.4137C42.1209 29.6686 41.5792 29.5402 41.3245 29.127C41.0697 28.7139 41.198 28.1723 41.6112 27.9176C42.3093 27.487 42.9439 26.4588 43.2399 25.5636C42.5159 25.2306 41.7137 24.8804 40.8267 24.5091C40.5308 24.3852 40.3259 24.1101 40.2921 23.7911C40.049 21.4995 39.4389 20.6173 39.1816 20.549C38.8187 20.4707 37.5043 21.0694 36.7981 21.3918C35.6871 21.8991 34.6376 22.3783 33.8012 22.3783C33.3158 22.3783 32.9223 21.9849 32.9223 21.4994C32.9223 21.0139 33.3158 20.6205 33.8012 20.6205C34.2553 20.6205 35.2604 20.1616 36.0681 19.7928C37.4716 19.152 38.6836 18.5982 39.6322 18.85C41.1085 19.2414 41.7242 21.2669 41.9766 23.0862C47.8398 25.5744 50.041 27.1781 50.6296 29.3488C50.98 30.6405 50.6739 32.5111 49.694 35.067C49.2814 36.1434 48.8207 37.1423 48.4709 37.8579C49.5628 38.0546 50.6399 38.347 51.6904 38.7343C52.1458 38.9022 52.3788 39.4075 52.211 39.8629C52.0431 40.3184 51.5382 40.5516 51.0824 40.3836C48.0304 39.2586 44.7292 39.0146 41.5357 39.6789C38.9806 40.2103 36.5977 41.3074 34.5409 42.8875H41.7478C43.2012 42.8875 44.3841 44.0695 44.3845 45.5224C44.3847 46.5071 44.1489 47.5613 43.6942 48.651C46.4573 47.7408 49.6246 48.3825 51.8185 50.5762L59.7421 58.4998V58.4999C60.0853 58.8431 60.0853 59.3997 59.7421 59.7429C59.3988 60.0861 58.8427 60.0857 58.4994 59.7424ZM59.7423 44.3162C60.0855 44.6594 60.0855 45.2159 59.7423 45.5592C59.3991 45.9024 58.8426 45.9024 58.4993 45.5592V45.5593L57.3274 44.3875C56.3032 43.3633 55.159 42.4721 53.9267 41.739C53.5095 41.4909 53.3725 40.9515 53.6207 40.5343C53.869 40.1171 54.4083 39.9801 54.8254 40.2284C56.1831 41.0361 57.4431 42.0173 58.5703 43.1446L59.7423 44.3162ZM21.42 19.2577C20.9346 19.2577 20.5411 18.8643 20.5411 18.3788V12.3356C20.5411 11.8501 20.9346 11.4567 21.42 11.4567C21.9054 11.4567 22.2989 11.8501 22.2989 12.3356V18.3788C22.2989 18.8643 21.9054 19.2577 21.42 19.2577ZM21.3703 9.69887H13.3751C11.9212 9.69887 10.7384 8.51598 10.7384 7.06216V6.27595C10.7384 5.72318 10.2888 5.27342 9.7359 5.27342H0.878903C0.393514 5.27342 0 4.88002 0 4.39451C0 3.90901 0.393514 3.51561 0.878903 3.51561H9.73602C11.258 3.51561 12.4964 4.75381 12.4964 6.27595V7.06216C12.4964 7.54685 12.8906 7.94106 13.3753 7.94106H21.3705C21.855 7.94106 22.2494 7.54685 22.2494 7.06216C22.2494 4.13729 19.8699 1.75781 16.9451 1.75781H0.878903C0.393514 1.75781 0 1.36441 0 0.878903C0 0.393397 0.393514 0 0.878903 0H16.945C20.839 0 24.007 3.16803 24.007 7.06216C24.007 8.51598 22.8242 9.69887 21.3703 9.69887Z"/>
</mask>
<path d="M0.878903 59.9998C0.393514 59.9998 0 59.6064 0 59.1209V43.766C0 43.2805 0.393514 42.8871 0.878903 42.8871H4.646C5.13139 42.8871 5.5249 43.2805 5.5249 43.766C5.5249 44.2515 5.13139 44.6449 4.646 44.6449H1.75781V59.1209C1.75781 59.6064 1.36429 59.9998 0.878903 59.9998ZM32.987 28.5634C32.7927 28.5634 32.5972 28.4993 32.4344 28.3676C32.0572 28.0622 31.999 27.5087 32.3044 27.1315C33.0978 26.1515 33.3279 25.2254 33.39 24.8731C33.4742 24.3949 33.9299 24.0768 34.4081 24.1599C34.8861 24.2441 35.2054 24.6999 35.1212 25.178C35.0145 25.7831 34.6843 26.9854 33.6706 28.2375C33.497 28.4521 33.243 28.5634 32.987 28.5634ZM13.3751 25.8215C12.8898 25.8215 12.4962 25.4281 12.4962 24.9426V12.3356C12.4962 11.8501 12.8898 11.4567 13.3751 11.4567C13.8605 11.4567 14.254 11.8501 14.254 12.3356V24.9426C14.254 25.4279 13.8605 25.8215 13.3751 25.8215ZM17.3976 21.6944C16.9122 21.6944 16.5187 21.301 16.5187 20.8155V12.3356C16.5187 11.8501 16.9122 11.4567 17.3976 11.4567C17.883 11.4567 18.2765 11.8501 18.2765 12.3356V20.8155C18.2765 21.301 17.883 21.6944 17.3976 21.6944ZM58.4994 59.7424L50.5758 51.8187C48.1749 49.4177 44.2768 49.4036 41.8578 51.7759C41.3456 52.4561 40.7595 53.1381 40.1036 53.8145C37.5888 56.4077 34.3237 58.6384 31.146 59.9348C31.0372 59.9791 30.9248 60.0002 30.8142 60.0002C30.4676 60.0002 30.1391 59.7937 30.0001 59.4531C29.8168 59.0036 30.0325 58.4906 30.4819 58.3074C36.2161 55.9682 42.6282 50.0038 42.6269 45.5226C42.6268 45.0387 42.2324 44.6451 41.748 44.6451H8.16161C7.67622 44.6451 7.2827 44.2517 7.2827 43.7662C7.2827 43.2807 7.67622 42.8873 8.16161 42.8873H12.4962V38.0444C12.4962 34.6583 13.0667 31.6064 14.1917 28.9732C15.235 26.5315 16.7267 24.5015 18.6255 22.9396C21.9214 20.2286 26.2408 19.1514 30.4762 19.9839C30.7771 20.0431 31.0254 20.2548 31.1314 20.5425C31.2375 20.8302 31.1858 21.1524 30.9953 21.3926C30.1444 22.4651 29.6182 25.1084 29.8311 26.3747C29.9118 26.8533 29.5889 27.3067 29.1103 27.3873C28.6318 27.467 28.1782 27.1452 28.0977 26.6664C27.8759 25.348 28.1893 23.1533 28.9044 21.5277C25.5936 21.203 22.3116 22.1837 19.742 24.2973C17.2383 26.3567 14.2539 30.4133 14.2539 38.0447V42.8875H17.7695V38.0447C17.7695 37.5591 18.163 37.1657 18.6484 37.1657C19.1338 37.1657 19.5273 37.5591 19.5273 38.0447V42.8875H24.9259C24.4814 42.2451 24.2428 41.49 24.2429 40.6986C24.2431 39.2744 25.0275 38.024 26.2002 37.3302C23.4671 35.433 21.8064 33.3021 21.0457 30.6659C20.418 31.6921 19.9921 32.9897 19.7542 34.5908C19.683 35.0709 19.236 35.4007 18.7557 35.3311C18.2756 35.2598 17.9441 34.8126 18.0155 34.3325C18.4027 31.7251 19.2544 29.768 20.6173 28.3569C20.5716 27.872 20.5492 27.3717 20.5492 26.8539C20.5492 26.3684 20.9427 25.975 21.4281 25.975C21.9135 25.975 22.307 26.3684 22.307 26.8539C22.307 29.0651 22.7366 30.8024 23.6589 32.3216C24.6668 33.9818 26.3363 35.4697 28.7626 36.8706C29.1071 37.0694 29.2751 37.4749 29.1721 37.8593C29.0692 38.2434 28.7209 38.5107 28.3232 38.5107C28.323 38.5107 28.3229 38.5107 28.3227 38.5107C27.0424 38.5107 26.0009 39.4921 26.0006 40.6988C26.0006 41.2762 26.2372 41.8211 26.6672 42.2333C27.1073 42.6551 27.6952 42.8874 28.3225 42.8875H31.851C34.4438 40.3912 37.6625 38.6889 41.1778 37.9579C42.9809 37.5831 44.8157 37.4711 46.6284 37.6179C48.0662 34.8286 49.3464 31.3328 48.9331 29.8089C48.6373 28.7179 47.4206 27.6577 44.8312 26.3327C44.3985 27.502 43.5755 28.7715 42.5339 29.4137C42.1209 29.6686 41.5792 29.5402 41.3245 29.127C41.0697 28.7139 41.198 28.1723 41.6112 27.9176C42.3093 27.487 42.9439 26.4588 43.2399 25.5636C42.5159 25.2306 41.7137 24.8804 40.8267 24.5091C40.5308 24.3852 40.3259 24.1101 40.2921 23.7911C40.049 21.4995 39.4389 20.6173 39.1816 20.549C38.8187 20.4707 37.5043 21.0694 36.7981 21.3918C35.6871 21.8991 34.6376 22.3783 33.8012 22.3783C33.3158 22.3783 32.9223 21.9849 32.9223 21.4994C32.9223 21.0139 33.3158 20.6205 33.8012 20.6205C34.2553 20.6205 35.2604 20.1616 36.0681 19.7928C37.4716 19.152 38.6836 18.5982 39.6322 18.85C41.1085 19.2414 41.7242 21.2669 41.9766 23.0862C47.8398 25.5744 50.041 27.1781 50.6296 29.3488C50.98 30.6405 50.6739 32.5111 49.694 35.067C49.2814 36.1434 48.8207 37.1423 48.4709 37.8579C49.5628 38.0546 50.6399 38.347 51.6904 38.7343C52.1458 38.9022 52.3788 39.4075 52.211 39.8629C52.0431 40.3184 51.5382 40.5516 51.0824 40.3836C48.0304 39.2586 44.7292 39.0146 41.5357 39.6789C38.9806 40.2103 36.5977 41.3074 34.5409 42.8875H41.7478C43.2012 42.8875 44.3841 44.0695 44.3845 45.5224C44.3847 46.5071 44.1489 47.5613 43.6942 48.651C46.4573 47.7408 49.6246 48.3825 51.8185 50.5762L59.7421 58.4998V58.4999C60.0853 58.8431 60.0853 59.3997 59.7421 59.7429C59.3988 60.0861 58.8427 60.0857 58.4994 59.7424ZM59.7423 44.3162C60.0855 44.6594 60.0855 45.2159 59.7423 45.5592C59.3991 45.9024 58.8426 45.9024 58.4993 45.5592V45.5593L57.3274 44.3875C56.3032 43.3633 55.159 42.4721 53.9267 41.739C53.5095 41.4909 53.3725 40.9515 53.6207 40.5343C53.869 40.1171 54.4083 39.9801 54.8254 40.2284C56.1831 41.0361 57.4431 42.0173 58.5703 43.1446L59.7423 44.3162ZM21.42 19.2577C20.9346 19.2577 20.5411 18.8643 20.5411 18.3788V12.3356C20.5411 11.8501 20.9346 11.4567 21.42 11.4567C21.9054 11.4567 22.2989 11.8501 22.2989 12.3356V18.3788C22.2989 18.8643 21.9054 19.2577 21.42 19.2577ZM21.3703 9.69887H13.3751C11.9212 9.69887 10.7384 8.51598 10.7384 7.06216V6.27595C10.7384 5.72318 10.2888 5.27342 9.7359 5.27342H0.878903C0.393514 5.27342 0 4.88002 0 4.39451C0 3.90901 0.393514 3.51561 0.878903 3.51561H9.73602C11.258 3.51561 12.4964 4.75381 12.4964 6.27595V7.06216C12.4964 7.54685 12.8906 7.94106 13.3753 7.94106H21.3705C21.855 7.94106 22.2494 7.54685 22.2494 7.06216C22.2494 4.13729 19.8699 1.75781 16.9451 1.75781H0.878903C0.393514 1.75781 0 1.36441 0 0.878903C0 0.393397 0.393514 0 0.878903 0H16.945C20.839 0 24.007 3.16803 24.007 7.06216C24.007 8.51598 22.8242 9.69887 21.3703 9.69887Z" fill="#080508" stroke="#F5F2EF" mask="url(#path-1-inside-1_194:1609)"/>
</svg>
