<svg width="60" height="60" viewBox="0 0 60 60" fill="none" xmlns="http://www.w3.org/2000/svg">
<mask id="path-1-inside-1_194:1734" fill="white">
<path d="M9.05922 6.56797L5.81939 4.67132C5.40045 4.42605 4.8621 4.56691 4.61683 4.98585C4.37156 5.40479 4.51242 5.94314 4.93136 6.18841L8.17107 8.08494C8.58275 8.32634 9.12578 8.19369 9.37363 7.77042C9.6189 7.35159 9.47804 6.81313 9.05922 6.56797ZM10.0211 4.39652C10.3465 4.75839 10.9024 4.78581 11.2623 4.46226C11.6231 4.13766 11.6527 3.58197 11.3281 3.22103L8.69302 0.291158C8.36853 -0.0696572 7.81284 -0.0990708 7.45179 0.225416C7.09097 0.550021 7.06144 1.10572 7.38605 1.46665L10.0211 4.39652ZM6.74844 9.98663L2.90369 9.12321C2.42933 9.01645 1.95988 9.31457 1.85359 9.78812C1.74719 10.2618 2.04496 10.7319 2.5185 10.8382L6.36325 11.7016C6.42817 11.7163 6.49286 11.7233 6.55661 11.7233C6.95879 11.7233 7.32148 11.4456 7.41335 11.0368C7.51975 10.5631 7.22199 10.093 6.74844 9.98663ZM57.201 25.0526C55.707 21.5202 52.7172 18.9565 48.9982 18.0189L26.2477 12.2832L19.8432 5.06085C19.0712 4.18992 17.7576 4.08317 16.8527 4.81757C15.1244 6.21946 13.6595 7.8862 12.4986 9.77136C11.139 11.9796 10.2409 14.4076 9.82913 16.9878C9.64597 18.1355 10.3957 19.2172 11.5359 19.4508L20.9924 21.3859L24.1516 24.6402C24.49 24.9887 25.0463 24.9966 25.3943 24.6587C25.7427 24.3205 25.7509 23.7642 25.4128 23.416L22.5271 20.4435L26.1989 14.0838L48.5683 19.7234C51.7481 20.525 54.3044 22.7171 55.5818 25.7373C56.8593 28.7576 56.6514 32.1187 55.0118 34.9585C53.3722 37.7984 50.5653 39.659 47.311 40.0629C44.0568 40.4672 40.8802 39.349 38.596 36.9961L27.9192 25.9978C27.5811 25.6493 27.0248 25.6412 26.6766 25.9793C26.3282 26.3175 26.32 26.8739 26.658 27.2221L33.767 34.545C32.3457 34.7885 31.0797 35.6511 30.3474 36.9205C29.694 38.0527 29.5202 39.3715 29.8584 40.634C30.245 42.0771 31.3065 43.2663 32.661 43.9067L28.6986 50.7694C27.8768 52.1927 27.6585 53.851 28.084 55.4384C28.5093 57.0257 29.5273 58.3521 30.9502 59.1732C32.3774 59.9968 34.0409 60.2111 35.6184 59.7884C37.2057 59.3632 38.5325 58.3452 39.3544 56.9216L46.3252 44.8481C46.5679 44.4277 46.4239 43.8902 46.0035 43.6475C45.5833 43.4048 45.0455 43.5486 44.803 43.9692L37.8322 56.0429C37.2451 57.0598 36.2973 57.787 35.1636 58.0908C34.0298 58.3946 32.8458 58.2385 31.8292 57.6512C30.8129 57.0646 30.0857 56.1172 29.7819 54.9835C29.478 53.8497 29.6339 52.6653 30.221 51.6485L37.7428 38.6211C40.0049 40.7475 42.9295 41.9021 46.0001 41.9021C46.506 41.9021 47.0161 41.8707 47.5276 41.8072C51.3337 41.3349 54.6166 39.1588 56.5342 35.8374C58.4518 32.516 58.6949 28.5849 57.201 25.0526ZM20.9898 19.5909L11.8884 17.7285C11.6726 17.6843 11.5304 17.4805 11.5649 17.2646C11.94 14.9141 12.7578 12.703 13.9954 10.6929C15.0521 8.97673 16.3859 7.45917 17.9601 6.18243C18.0372 6.11986 18.1297 6.08915 18.2216 6.08915C18.3349 6.08915 18.4473 6.13579 18.5279 6.22685L24.692 13.1782L20.9898 19.5909ZM33.54 42.3846L33.0175 42.0831C31.5202 41.219 31.0053 39.2972 31.8699 37.7991C32.4283 36.8314 33.4701 36.2302 34.5889 36.2302C34.9184 36.2302 35.2417 36.2825 35.5528 36.3846L36.463 37.3221L33.54 42.3846ZM52.8679 33.6621C54.6981 30.4922 53.5261 26.4895 50.4737 24.7271C47.3659 22.9327 43.3208 24.0343 41.5386 27.1212C39.7353 30.2446 40.8092 34.2529 43.9327 36.0563C47.0172 37.8371 51.0457 36.8184 52.8679 33.6621ZM43.061 27.9999C44.3654 25.7406 47.3206 24.9362 49.5949 26.2493C51.8376 27.544 52.6477 30.5279 51.3457 32.7832C50.027 35.0674 47.0956 35.8526 44.8116 34.534C42.5276 33.2152 41.7423 30.284 43.061 27.9999ZM38.6709 49.5302C39.3512 49.3479 39.9198 48.9117 40.2719 48.3017C40.624 47.6918 40.7176 46.9812 40.5353 46.3011C40.353 45.6207 39.9168 45.0521 39.3069 44.7001C38.6969 44.3478 37.9864 44.2542 37.3061 44.4366C36.6259 44.619 36.0573 45.0551 35.7051 45.6652C34.9782 46.9243 35.4112 48.54 36.6702 49.2668C37.0764 49.5014 37.5274 49.6212 37.9843 49.6212C38.2133 49.6212 38.4439 49.5911 38.6709 49.5302ZM37.549 47.7444C37.1294 47.5022 36.985 46.9635 37.2274 46.5439C37.3448 46.3406 37.5343 46.195 37.7612 46.1343C37.8369 46.114 37.9136 46.1041 37.9899 46.1041C38.1422 46.1041 38.2926 46.144 38.4281 46.2222C38.6313 46.3396 38.7768 46.5291 38.8375 46.7559C38.8982 46.9826 38.867 47.2194 38.7496 47.4228V47.4229C38.6322 47.6261 38.4427 47.7716 38.216 47.8323C37.9893 47.893 37.7524 47.8617 37.549 47.7444ZM48.7017 33.2864C48.9444 32.8661 48.8004 32.3285 48.3801 32.0859L45.1478 30.2198C44.7273 29.9772 44.1897 30.121 43.9473 30.5415C43.7046 30.9618 43.8486 31.4993 44.2689 31.742L47.5012 33.6081C47.9139 33.8467 48.4563 33.7112 48.7017 33.2864ZM36.3488 53.5556L33.1166 51.6895C32.6959 51.4468 32.1585 51.5907 31.916 52.0112C31.6734 52.4315 31.8174 52.969 32.2377 53.2117L35.4699 55.0778C35.6085 55.1577 35.7595 55.1957 35.9086 55.1957C36.2123 55.1957 36.5077 55.0381 36.6705 54.7561C36.9132 54.3359 36.7691 53.7984 36.3488 53.5556ZM46.0267 28.6973L49.2589 30.5635C49.6718 30.8024 50.2142 30.6665 50.4595 30.2418C50.7022 29.8215 50.5582 29.2839 50.1378 29.0413L46.9056 27.1751C46.4854 26.9324 45.9476 27.0763 45.7051 27.4967C45.4622 27.9171 45.6064 28.4546 46.0267 28.6973Z"/>
</mask>
<path d="M9.05922 6.56797L5.81939 4.67132C5.40045 4.42605 4.8621 4.56691 4.61683 4.98585C4.37156 5.40479 4.51242 5.94314 4.93136 6.18841L8.17107 8.08494C8.58275 8.32634 9.12578 8.19369 9.37363 7.77042C9.6189 7.35159 9.47804 6.81313 9.05922 6.56797ZM10.0211 4.39652C10.3465 4.75839 10.9024 4.78581 11.2623 4.46226C11.6231 4.13766 11.6527 3.58197 11.3281 3.22103L8.69302 0.291158C8.36853 -0.0696572 7.81284 -0.0990708 7.45179 0.225416C7.09097 0.550021 7.06144 1.10572 7.38605 1.46665L10.0211 4.39652ZM6.74844 9.98663L2.90369 9.12321C2.42933 9.01645 1.95988 9.31457 1.85359 9.78812C1.74719 10.2618 2.04496 10.7319 2.5185 10.8382L6.36325 11.7016C6.42817 11.7163 6.49286 11.7233 6.55661 11.7233C6.95879 11.7233 7.32148 11.4456 7.41335 11.0368C7.51975 10.5631 7.22199 10.093 6.74844 9.98663ZM57.201 25.0526C55.707 21.5202 52.7172 18.9565 48.9982 18.0189L26.2477 12.2832L19.8432 5.06085C19.0712 4.18992 17.7576 4.08317 16.8527 4.81757C15.1244 6.21946 13.6595 7.8862 12.4986 9.77136C11.139 11.9796 10.2409 14.4076 9.82913 16.9878C9.64597 18.1355 10.3957 19.2172 11.5359 19.4508L20.9924 21.3859L24.1516 24.6402C24.49 24.9887 25.0463 24.9966 25.3943 24.6587C25.7427 24.3205 25.7509 23.7642 25.4128 23.416L22.5271 20.4435L26.1989 14.0838L48.5683 19.7234C51.7481 20.525 54.3044 22.7171 55.5818 25.7373C56.8593 28.7576 56.6514 32.1187 55.0118 34.9585C53.3722 37.7984 50.5653 39.659 47.311 40.0629C44.0568 40.4672 40.8802 39.349 38.596 36.9961L27.9192 25.9978C27.5811 25.6493 27.0248 25.6412 26.6766 25.9793C26.3282 26.3175 26.32 26.8739 26.658 27.2221L33.767 34.545C32.3457 34.7885 31.0797 35.6511 30.3474 36.9205C29.694 38.0527 29.5202 39.3715 29.8584 40.634C30.245 42.0771 31.3065 43.2663 32.661 43.9067L28.6986 50.7694C27.8768 52.1927 27.6585 53.851 28.084 55.4384C28.5093 57.0257 29.5273 58.3521 30.9502 59.1732C32.3774 59.9968 34.0409 60.2111 35.6184 59.7884C37.2057 59.3632 38.5325 58.3452 39.3544 56.9216L46.3252 44.8481C46.5679 44.4277 46.4239 43.8902 46.0035 43.6475C45.5833 43.4048 45.0455 43.5486 44.803 43.9692L37.8322 56.0429C37.2451 57.0598 36.2973 57.787 35.1636 58.0908C34.0298 58.3946 32.8458 58.2385 31.8292 57.6512C30.8129 57.0646 30.0857 56.1172 29.7819 54.9835C29.478 53.8497 29.6339 52.6653 30.221 51.6485L37.7428 38.6211C40.0049 40.7475 42.9295 41.9021 46.0001 41.9021C46.506 41.9021 47.0161 41.8707 47.5276 41.8072C51.3337 41.3349 54.6166 39.1588 56.5342 35.8374C58.4518 32.516 58.6949 28.5849 57.201 25.0526ZM20.9898 19.5909L11.8884 17.7285C11.6726 17.6843 11.5304 17.4805 11.5649 17.2646C11.94 14.9141 12.7578 12.703 13.9954 10.6929C15.0521 8.97673 16.3859 7.45917 17.9601 6.18243C18.0372 6.11986 18.1297 6.08915 18.2216 6.08915C18.3349 6.08915 18.4473 6.13579 18.5279 6.22685L24.692 13.1782L20.9898 19.5909ZM33.54 42.3846L33.0175 42.0831C31.5202 41.219 31.0053 39.2972 31.8699 37.7991C32.4283 36.8314 33.4701 36.2302 34.5889 36.2302C34.9184 36.2302 35.2417 36.2825 35.5528 36.3846L36.463 37.3221L33.54 42.3846ZM52.8679 33.6621C54.6981 30.4922 53.5261 26.4895 50.4737 24.7271C47.3659 22.9327 43.3208 24.0343 41.5386 27.1212C39.7353 30.2446 40.8092 34.2529 43.9327 36.0563C47.0172 37.8371 51.0457 36.8184 52.8679 33.6621ZM43.061 27.9999C44.3654 25.7406 47.3206 24.9362 49.5949 26.2493C51.8376 27.544 52.6477 30.5279 51.3457 32.7832C50.027 35.0674 47.0956 35.8526 44.8116 34.534C42.5276 33.2152 41.7423 30.284 43.061 27.9999ZM38.6709 49.5302C39.3512 49.3479 39.9198 48.9117 40.2719 48.3017C40.624 47.6918 40.7176 46.9812 40.5353 46.3011C40.353 45.6207 39.9168 45.0521 39.3069 44.7001C38.6969 44.3478 37.9864 44.2542 37.3061 44.4366C36.6259 44.619 36.0573 45.0551 35.7051 45.6652C34.9782 46.9243 35.4112 48.54 36.6702 49.2668C37.0764 49.5014 37.5274 49.6212 37.9843 49.6212C38.2133 49.6212 38.4439 49.5911 38.6709 49.5302ZM37.549 47.7444C37.1294 47.5022 36.985 46.9635 37.2274 46.5439C37.3448 46.3406 37.5343 46.195 37.7612 46.1343C37.8369 46.114 37.9136 46.1041 37.9899 46.1041C38.1422 46.1041 38.2926 46.144 38.4281 46.2222C38.6313 46.3396 38.7768 46.5291 38.8375 46.7559C38.8982 46.9826 38.867 47.2194 38.7496 47.4228V47.4229C38.6322 47.6261 38.4427 47.7716 38.216 47.8323C37.9893 47.893 37.7524 47.8617 37.549 47.7444ZM48.7017 33.2864C48.9444 32.8661 48.8004 32.3285 48.3801 32.0859L45.1478 30.2198C44.7273 29.9772 44.1897 30.121 43.9473 30.5415C43.7046 30.9618 43.8486 31.4993 44.2689 31.742L47.5012 33.6081C47.9139 33.8467 48.4563 33.7112 48.7017 33.2864ZM36.3488 53.5556L33.1166 51.6895C32.6959 51.4468 32.1585 51.5907 31.916 52.0112C31.6734 52.4315 31.8174 52.969 32.2377 53.2117L35.4699 55.0778C35.6085 55.1577 35.7595 55.1957 35.9086 55.1957C36.2123 55.1957 36.5077 55.0381 36.6705 54.7561C36.9132 54.3359 36.7691 53.7984 36.3488 53.5556ZM46.0267 28.6973L49.2589 30.5635C49.6718 30.8024 50.2142 30.6665 50.4595 30.2418C50.7022 29.8215 50.5582 29.2839 50.1378 29.0413L46.9056 27.1751C46.4854 26.9324 45.9476 27.0763 45.7051 27.4967C45.4622 27.9171 45.6064 28.4546 46.0267 28.6973Z" fill="black" stroke="#F5F2EF" mask="url(#path-1-inside-1_194:1734)"/>
</svg>
