<svg width="16" height="18" viewBox="0 0 16 18" fill="none" xmlns="http://www.w3.org/2000/svg">
    <path d="M7.97504 8.94551C3.71716 8.94551 0.253125 12.4096 0.253125 16.6674C0.253125 16.8924 0.435663 17.0749 0.660611 17.0749H0.661682H0.662745H0.663799H0.664845H0.665883H0.666913H0.667934H0.668948H0.669953H0.670951H0.67194H0.672921H0.673895H0.67486H0.675818H0.676768H0.67771H0.678645H0.679571H0.68049H0.681402H0.682306H0.683202H0.684091H0.684973H0.685847H0.686713H0.687573H0.688425H0.68927H0.690107H0.690938H0.691761H0.692577H0.693386H0.694189H0.694984H0.695772H0.696553H0.697328H0.698096H0.698857H0.699611H0.700358H0.701099H0.701834H0.702561H0.703283H0.703997H0.704705H0.705407H0.706103H0.706792H0.707475H0.708151H0.708822H0.709486H0.710144H0.710796H0.711442H0.712082H0.712716H0.713344H0.713966H0.714582H0.715192H0.715797H0.716396H0.716989H0.717577H0.718158H0.718735H0.719306H0.719871H0.720431H0.720985H0.721534H0.722078H0.722617H0.72315H0.723678H0.724201H0.724718H0.725231H0.725738H0.726241H0.726738H0.727231H0.727718H0.728201H0.728679H0.729152H0.729621H0.730085H0.730544H0.730998H0.731448H0.731893H0.732334H0.73277H0.733202H0.73363H0.734053H0.734472H0.734887H0.735297H0.735703H0.736106H0.736504H0.736898H0.737287H0.737673H0.738055H0.738433H0.738808H0.739178H0.739545H0.739907H0.740267H0.740622H0.740974H0.741322H0.741667H0.742008H0.742346H0.74268H0.743011H0.743339H0.743663H0.743984H0.744302H0.744616H0.744928H0.745236H0.745541H0.745844H0.746143H0.746439H0.746732H0.747023H0.747311H0.747595H0.747878H0.748157H0.748434H0.748708H0.748979H0.749248H0.749515H0.749779H0.75004H0.750299H0.750556H0.750811H0.751063H0.751313H0.751561H0.751806H0.75205H0.752291H0.752531H0.752768H0.753003H0.753237H0.753469H0.753698H0.753926H0.754153H0.754377H0.7546H0.754821H0.755041H0.755259H0.755476H0.755691H0.755904H0.756117H0.756327H0.756537H0.756745H0.756952H0.757158H0.757363H0.757566H0.757769H0.75797H0.758171H0.75837H0.758569H0.758766H0.758963H0.759159H0.759355H0.759549H0.759743H0.759936H0.760129H0.760321H0.760512H0.760703H0.760894H0.761084H0.761274H0.761463H0.761653H0.761842H0.76203H0.762219H0.762408H0.762596H0.762784H0.762973H0.763161H0.763349H0.763538H0.763727H0.763916H0.764105H0.764294H0.764484H0.764674H0.764864H0.765055H0.765247H0.765438H0.765631H0.765824H0.766017H0.766212H0.766407H0.766603H0.766799H0.766997H0.767195H0.767394H0.767594H0.767795H0.767997H0.7682H0.768405H0.76861H0.768817H0.769025H0.769234H0.769444H0.769656H0.769869H0.770084H0.7703H0.770517H0.770737H0.770957H0.77118H0.771404H0.771629H0.771857H0.772086H0.772317H0.77255H0.772785H0.773021H0.77326H0.773501H0.773744H0.773989H0.774236H0.774485H0.774736H0.77499H0.775246H0.775504H0.775765H0.776028H0.776294H0.776562H0.776833H0.777106H0.777382H0.77766H0.777942H0.778226H0.778512H0.778802H0.779094H0.77939H0.779688H0.779989H0.780293H0.780601H0.780911H0.781224H0.781541H0.781861H0.782184H0.782511H0.782841H0.783174H0.78351H0.78385H0.784194H0.784541H0.784892H0.785246H0.785604H0.785966H0.786331H0.7867H0.787073H0.78745H0.78783H0.788215H0.788604H0.788996H0.789393H0.789794H0.790198H0.790608H0.791021H0.791438H0.79186H0.792286H0.792717H0.793152H0.793591H0.794035H0.794483H0.794936H0.795394H0.795856H0.796323H0.796794H0.797271H0.797752H0.798238H0.798729H0.799225H0.799725H0.800231H0.800742H0.801258H0.801779H0.802305H0.802837H0.803374H0.803916H0.804463H0.805016H0.805574H0.806137H0.806706H0.807281H0.807861H0.808446H0.809038H0.809635H0.810237H0.810846H0.81146H0.81208H0.812706H0.813338H0.813976H0.81462H0.81527H0.815926H0.816588H0.817257H0.817931H0.818612H0.819299H0.819992H0.820692H0.821398H0.822111H0.82283H0.823555H0.824287H0.825026H0.825771H0.826523H0.827282H0.828047H0.82882H0.829599H0.830385H0.831178H0.831978H0.832784H0.833598H0.834419H0.835247H0.836083H0.836925H0.837775H0.838632H0.839496H0.840368H0.841247H0.842133H0.843027H0.843928H0.844837H0.845754H0.846678H0.84761H0.84855H0.849497H0.850452H0.851415H0.852386H0.853365H0.854351H0.855346H0.856349H0.857359H0.858378H0.859405H0.86044H0.861484H0.862536H0.863596H0.864664H0.865741H0.866826H0.86792H0.869022H0.870133H0.871252H0.87238H0.873516H0.874662H0.875816H0.876979H0.87815H0.879331H0.88052H0.881719H0.882926H0.884142H0.885368H0.886602H0.887846H0.889099H0.890361H0.891632H0.892913H0.894203H0.895502H0.896811H0.89813H0.899457H0.900795H0.902142H0.903498H0.904864H0.90624H0.907626H0.909021H0.910426H0.911842H0.913266H0.914701H0.916146H0.917601H0.919066H0.920541H0.922027H0.923522H0.925028H0.926543H0.92807H0.929606H0.931153H0.93271H0.934278H0.935856H0.937445H0.939044H0.940654H0.942275H0.943906H0.945549H0.947201H0.948865H0.95054H0.952225H0.953921H0.955629H0.957347H0.959076H0.960817H0.962568H0.964331H0.966105H0.967891H0.969687H0.971495H0.973314H0.975145H0.976987H0.978841H0.980706H0.982582H0.984471H0.986371H0.988282H0.990206H0.992141H0.994088H0.996047H0.998017H1L8 17.075H13L15.2895 17.0749C15.5145 17.0749 15.697 16.8924 15.697 16.6674C15.697 12.4089 12.2329 8.94551 7.97504 8.94551Z" fill="#E33834" stroke="#E33834" stroke-width="0.15"/>
    <path d="M7.97753 0.925C5.91998 0.925 4.24531 2.59899 4.24531 4.65722C4.24531 6.71544 5.92001 8.38943 7.97753 8.38943C10.0351 8.38943 11.7097 6.71544 11.7097 4.65722C11.7097 2.59899 10.0351 0.925 7.97753 0.925Z" fill="#E33834" stroke="#E33834" stroke-width="0.15"/>
</svg>
