<svg width="16" height="18" viewBox="0 0 16 18" fill="none" xmlns="http://www.w3.org/2000/svg">
<path d="M7.97504 8.94551C3.71716 8.94551 0.253125 12.4096 0.253125 16.6674C0.253125 16.8924 0.435663 17.0749 0.660611 17.0749C0.885558 17.0749 1.0681 16.8924 1.0681 16.6674C1.0681 12.8588 4.16643 9.76045 7.97507 9.76045C11.7837 9.76045 14.8821 12.8588 14.8821 16.6674C14.8821 16.8924 15.0646 17.0749 15.2895 17.0749C15.5145 17.0749 15.697 16.8924 15.697 16.6674C15.697 12.4089 12.2329 8.94551 7.97504 8.94551Z" fill="#080508" stroke="#080508" stroke-width="0.15"/>
<path d="M7.97753 0.925C5.91998 0.925 4.24531 2.59899 4.24531 4.65722C4.24531 6.71544 5.92001 8.38943 7.97753 8.38943C10.0351 8.38943 11.7097 6.71544 11.7097 4.65722C11.7097 2.59899 10.0351 0.925 7.97753 0.925ZM7.97753 7.57449C6.36921 7.57449 5.06025 6.26554 5.06025 4.65722C5.06025 3.0489 6.36921 1.73994 7.97753 1.73994C9.58585 1.73994 10.8948 3.0489 10.8948 4.65722C10.8948 6.26554 9.58585 7.57449 7.97753 7.57449Z" fill="#080508" stroke="#080508" stroke-width="0.15"/>
</svg>
