<svg width="12" height="12" viewBox="0 0 12 12" fill="none" xmlns="http://www.w3.org/2000/svg">
<path d="M2.68 5.416C2.2 5.416 1.75733 5.304 1.352 5.08C0.957333 4.84533 0.642667 4.536 0.408 4.152C0.173333 3.75733 0.056 3.32 0.056 2.84C0.056 2.36 0.173333 1.928 0.408 1.544C0.642667 1.14933 0.957333 0.84 1.352 0.615999C1.75733 0.381333 2.2 0.264 2.68 0.264C3.14933 0.264 3.58133 0.381333 3.976 0.615999C4.38133 0.84 4.70133 1.14933 4.936 1.544C5.17067 1.928 5.288 2.36 5.288 2.84C5.288 3.32 5.17067 3.75733 4.936 4.152C4.70133 4.536 4.38133 4.84533 3.976 5.08C3.58133 5.304 3.14933 5.416 2.68 5.416ZM8.216 0.44H9.32L3.272 11H2.168L8.216 0.44ZM2.68 4.504C3.13867 4.504 3.51733 4.344 3.816 4.024C4.11467 3.704 4.264 3.30933 4.264 2.84C4.264 2.37067 4.11467 1.976 3.816 1.656C3.51733 1.336 3.13867 1.176 2.68 1.176C2.22133 1.176 1.84267 1.336 1.544 1.656C1.24533 1.96533 1.096 2.36 1.096 2.84C1.096 3.32 1.24533 3.72 1.544 4.04C1.84267 4.34933 2.22133 4.504 2.68 4.504ZM8.792 11.16C8.32267 11.16 7.88533 11.048 7.48 10.824C7.08533 10.5893 6.77067 10.28 6.536 9.896C6.312 9.50133 6.2 9.064 6.2 8.584C6.2 8.104 6.312 7.672 6.536 7.288C6.77067 6.89333 7.08533 6.584 7.48 6.36C7.88533 6.12533 8.32267 6.008 8.792 6.008C9.26133 6.008 9.69867 6.12533 10.104 6.36C10.5093 6.584 10.8293 6.89333 11.064 7.288C11.2987 7.672 11.416 8.104 11.416 8.584C11.416 9.064 11.2987 9.50133 11.064 9.896C10.8293 10.28 10.5093 10.5893 10.104 10.824C9.69867 11.048 9.26133 11.16 8.792 11.16ZM8.808 10.232C9.256 10.232 9.62933 10.0773 9.928 9.768C10.2267 9.448 10.376 9.05333 10.376 8.584C10.376 8.104 10.2267 7.70933 9.928 7.4C9.62933 7.08 9.256 6.92 8.808 6.92C8.34933 6.92 7.97067 7.08 7.672 7.4C7.37333 7.70933 7.224 8.104 7.224 8.584C7.224 9.05333 7.37333 9.448 7.672 9.768C7.97067 10.0773 8.34933 10.232 8.808 10.232Z" fill="#E33834"/>
</svg>
