<svg width="15" height="17" viewBox="0 0 15 17" fill="none" xmlns="http://www.w3.org/2000/svg">
<path d="M7.49904 8.44429C3.5047 8.44429 0.255078 11.6939 0.255078 15.6883C0.255078 15.9017 0.428306 16.075 0.641782 16.075C0.855259 16.075 1.02849 15.9017 1.02849 15.6883C1.02849 12.1203 3.93107 9.21767 7.49907 9.21767C11.0671 9.21767 13.9697 12.1203 13.9697 15.6883C13.9697 15.9017 14.1429 16.075 14.3564 16.075C14.5698 16.075 14.7431 15.9017 14.7431 15.6883C14.743 11.6933 11.4934 8.44429 7.49904 8.44429Z" fill="#515855" stroke="#515855" stroke-width="0.15"/>
<path d="M7.49894 0.925C5.56741 0.925 3.99531 2.49646 3.99531 4.42863C3.99531 6.3608 5.56743 7.93226 7.49894 7.93226C9.43045 7.93226 11.0026 6.3608 11.0026 4.42863C11.0026 2.49646 9.43048 0.925 7.49894 0.925ZM7.49894 7.15888C5.99374 7.15888 4.76869 5.93384 4.76869 4.42863C4.76869 2.92342 5.99374 1.69838 7.49894 1.69838C9.00415 1.69838 10.2292 2.92342 10.2292 4.42863C10.2292 5.93384 9.00415 7.15888 7.49894 7.15888Z" fill="#515855" stroke="#515855" stroke-width="0.15"/>
</svg>
