<svg width="18" height="17" viewBox="0 0 18 17" fill="none" xmlns="http://www.w3.org/2000/svg">
<path d="M1.75872 2.2759L1.75873 2.27588C2.60448 1.42111 3.72938 0.95 4.92601 0.95C6.12228 0.95 7.24754 1.42111 8.09329 2.27588M1.75872 2.2759L1.78142 8.62952C0.0689427 6.88241 0.072514 4.05245 1.79427 2.31105C2.63069 1.46571 3.74281 1 4.92601 1C6.10885 1 7.22133 1.46571 8.05775 2.31105M1.75872 2.2759C0.018855 4.03561 0.0141493 6.89425 1.74237 8.66111M1.75872 2.2759L1.74237 8.66111M8.09329 2.27588L8.09261 2.27656C8.09386 2.27743 8.09524 2.27846 8.09668 2.27964M8.09329 2.27588C8.09323 2.27582 8.09316 2.27576 8.0931 2.27569L8.09239 2.27641C8.09001 2.27478 8.08817 2.27375 8.08749 2.27339M8.09329 2.27588C8.09454 2.27714 8.09567 2.27841 8.09668 2.27964M8.09668 2.27964C8.09792 2.28114 8.09899 2.28259 8.09989 2.28391C8.10023 2.28441 8.10055 2.28489 8.10084 2.28534C8.10222 2.28749 8.10307 2.28912 8.10341 2.28976L8.1035 2.28993C8.10412 2.29111 8.10342 2.28974 8.10266 2.28848C8.10224 2.28779 8.10158 2.28675 8.10067 2.2855C8.10036 2.28507 8.10002 2.28462 8.09965 2.28414C8.09865 2.28287 8.09742 2.28145 8.09596 2.27998C8.09475 2.27877 8.09352 2.2777 8.09238 2.27679L8.05775 2.31105M8.09668 2.27964C8.09797 2.2807 8.09929 2.28189 8.1006 2.28319L8.10183 2.28442L8.10181 2.28444L8.99954 3.24669M8.05775 2.31105L8.09217 2.27662C8.0901 2.27499 8.08833 2.27388 8.08749 2.27339M8.05775 2.31105C8.05851 2.31182 8.05897 2.31268 8.0594 2.31349C8.05976 2.31419 8.06011 2.31484 8.0606 2.31534C8.06132 2.31605 8.06212 2.3165 8.06293 2.31694C8.06373 2.31739 8.06453 2.31784 8.06525 2.31855L8.96533 3.28332L8.99954 3.24669M8.08749 2.27339C8.08694 2.27306 8.08678 2.273 8.08721 2.27324L8.08749 2.27339ZM8.99954 3.24669L9.89832 2.28442L9.89949 2.28317L9.89951 2.28319C9.9008 2.2819 9.90212 2.28072 9.9034 2.27967M8.99954 3.24669L9.03373 3.28334L9.93486 2.31855C9.93558 2.31784 9.93638 2.31739 9.93718 2.31694L16.2588 8.65999M1.74237 8.66111C1.74344 8.66253 1.74466 8.66403 1.74605 8.66553L1.74569 8.66513L1.74237 8.66111ZM16.2544 8.66451C16.2544 8.66456 16.2543 8.66462 16.2543 8.66467L16.2544 8.66451ZM16.2544 8.66451C16.2559 8.66301 16.2574 8.6615 16.2588 8.65999M16.2544 8.66451C16.2606 8.65821 16.2636 8.65157 16.2648 8.6484L16.2646 8.64905C16.2641 8.65034 16.2631 8.65274 16.2616 8.65558C16.2609 8.65681 16.26 8.65832 16.2588 8.65999M16.2588 8.65999C17.9845 6.8934 17.9795 4.03525 16.2418 2.27592L16.2417 2.27588C15.3956 1.42111 14.2707 0.95 13.0741 0.95C11.8778 0.95 10.7526 1.42111 9.90682 2.27588M16.2588 8.65999C16.2577 8.66163 16.2563 8.66343 16.2546 8.66528L16.2588 8.65999ZM9.90682 2.27588C9.90688 2.27582 9.90694 2.27576 9.90701 2.27569L9.90772 2.27641M9.90682 2.27588L9.9075 2.27656M9.90682 2.27588C9.90555 2.27717 9.90441 2.27844 9.9034 2.27967M9.90772 2.27641C9.90765 2.27646 9.90757 2.27651 9.9075 2.27656M9.90772 2.27641C9.91004 2.27481 9.91185 2.2738 9.91256 2.27341M9.90772 2.27641L9.91256 2.27341M9.9075 2.27656C9.90624 2.27743 9.90485 2.27847 9.9034 2.27967M9.9075 2.27656L9.89692 2.28924L9.89722 2.28868C9.89767 2.28788 9.89834 2.28671 9.89926 2.2853C9.89955 2.28485 9.89986 2.28438 9.9002 2.28389C9.90108 2.2826 9.90215 2.28117 9.9034 2.27967M9.91256 2.27341C9.91276 2.27331 9.91288 2.27325 9.9129 2.27324C9.91304 2.27316 9.91312 2.27311 9.91314 2.2731C9.91317 2.27307 9.91296 2.27318 9.91256 2.27341ZM9.29311 4.1214L9.29309 4.12138C9.29005 4.12441 9.28713 4.12669 9.28483 4.12831C9.28304 4.1308 9.28065 4.13381 9.27773 4.13674L9.27682 4.13764L9.27681 4.13763C9.25465 4.15868 9.227 4.17339 9.20725 4.1839C9.20262 4.18636 9.19842 4.18859 9.19483 4.19062L9.17023 4.14709M9.29311 4.1214L9.25344 4.08906C9.25192 4.08995 9.25041 4.09084 9.24916 4.09209C9.24773 4.09352 9.24675 4.09513 9.24576 4.09674C9.24478 4.09834 9.2438 4.09995 9.24237 4.10138C9.22571 4.11721 9.20624 4.12764 9.18682 4.13804C9.18126 4.14102 9.17571 4.144 9.17023 4.14709M9.29311 4.1214L9.29427 4.12016L10.4855 2.84502C11.1783 2.14797 12.0971 1.76427 13.0741 1.76427C14.0542 1.76427 14.9757 2.14994 15.6685 2.85046C17.0992 4.29918 17.0992 6.65604 15.6685 8.10439L15.7041 8.13953L15.6687 8.10418C15.6659 8.10698 15.6636 8.10986 15.6619 8.11234C15.6595 8.11575 15.6581 8.11839 15.6578 8.11899C15.6576 8.1193 15.6575 8.11951 15.6574 8.11963L15.6558 8.11821L15.6555 8.11854L9.42629 15.0335L9.42611 15.0337C9.309 15.1651 9.15755 15.2351 8.99952 15.2351H8.99916C8.84159 15.2351 8.69046 15.1652 8.5722 15.0326L8.57203 15.0324L2.34515 8.11918M9.29311 4.1214L2.32905 8.10582M9.17023 4.14709L9.19542 4.19028C9.19278 4.19182 9.19064 4.19339 9.18665 4.19631C9.18509 4.19745 9.18324 4.19879 9.18098 4.20043C9.17448 4.20511 9.16418 4.21232 9.15136 4.21742M9.17023 4.14709C9.16518 4.15004 9.16041 4.15354 9.15565 4.15702C9.14829 4.16241 9.14097 4.16777 9.13273 4.17102M9.15136 4.21742C9.15127 4.21746 9.15118 4.21749 9.15109 4.21753L9.13273 4.17102M9.15136 4.21742C9.15145 4.21739 9.15154 4.21735 9.15163 4.21731L9.13273 4.17102M9.15136 4.21742C9.10321 4.23705 9.0519 4.24816 8.99952 4.24816C8.94704 4.24816 8.89563 4.23701 8.8474 4.21731M9.13273 4.17102C9.08987 4.18852 9.04487 4.19816 8.99952 4.19816C8.95416 4.19816 8.90916 4.18852 8.86631 4.17102M8.8474 4.21731C8.84759 4.21738 8.84777 4.21746 8.84795 4.21753L8.86631 4.17102M8.8474 4.21731L8.86631 4.17102M8.8474 4.21731C8.83461 4.21217 8.82439 4.20493 8.81825 4.20051C8.81697 4.1996 8.81584 4.19878 8.81483 4.19805C8.80973 4.19437 8.80754 4.1928 8.80503 4.19144L8.8042 4.19099L8.8042 4.19098C8.80064 4.18897 8.79663 4.1868 8.79227 4.18445C8.77226 4.17366 8.74512 4.15902 8.72253 4.13791L8.72129 4.13676L8.72131 4.13674C8.7183 4.13373 8.71589 4.13068 8.71406 4.1281M8.86631 4.17102C8.85849 4.16794 8.85163 4.16296 8.84469 4.15793C8.83957 4.15422 8.83442 4.15048 8.82881 4.14745L8.71731 4.12972C8.71993 4.13202 8.7224 4.13332 8.72042 4.13216L8.72017 4.13201C8.71924 4.13147 8.71691 4.13012 8.71406 4.1281M8.71406 4.1281C8.7123 4.12686 8.71034 4.12536 8.70838 4.12365L8.70456 4.12031L8.70475 4.12013L7.51778 2.84785M8.71406 4.1281L7.51778 2.84785M7.51778 2.84785C6.82468 2.14903 5.90481 1.76427 4.92601 1.76427C3.94589 1.76427 3.02475 2.14994 2.33123 2.8505C0.899453 4.29923 0.899475 6.65604 2.33125 8.10402L2.32929 8.10596C2.33057 8.10669 2.33386 8.10859 2.33775 8.11183M7.51778 2.84785L2.33907 8.11469C2.34025 8.11615 2.34107 8.11739 2.34158 8.1182C2.34191 8.11871 2.34218 8.11918 2.34235 8.11947C2.34257 8.11986 2.3426 8.11994 2.34231 8.11939L2.34226 8.11929C2.34194 8.1187 2.3408 8.11654 2.33935 8.11425C2.33889 8.11352 2.33836 8.11271 2.33775 8.11183M2.33775 8.11183C2.33612 8.10949 2.33392 8.10669 2.33105 8.10382L2.32905 8.10582M2.33775 8.11183C2.34009 8.11378 2.34266 8.11622 2.34515 8.11918M2.32905 8.10582L2.32889 8.10573C2.32787 8.10514 2.32824 8.10534 2.32904 8.10583L2.29569 8.13917L2.32905 8.10582ZM2.34515 8.11918L2.34427 8.11821L2.30712 8.15167L2.34781 8.12261C2.34694 8.1214 2.34605 8.12025 2.34515 8.11918ZM9.90773 2.27679L9.94236 2.31105L9.90773 2.27679ZM16.2062 2.31105C17.9262 4.05245 17.9297 6.88277 16.2187 8.62952C16.218 8.63024 16.218 8.63131 16.2176 8.63167L16.2062 2.31105Z" fill="#515855" stroke="#515855" stroke-width="0.1"/>
</svg>
