<svg width="14" height="16" viewBox="0 0 14 16" fill="none" xmlns="http://www.w3.org/2000/svg">
<path d="M11 5V4C11 1.8125 9.1875 0 7 0C4.78125 0 3 1.8125 3 4V5H0V13.5C0 14.9062 1.09375 16 2.5 16H11.5C12.875 16 14 14.9062 14 13.5V5H11ZM5 4C5 2.90625 5.875 2 7 2C8.09375 2 9 2.90625 9 4V5H5V4ZM10 7.75C9.5625 7.75 9.25 7.4375 9.25 7C9.25 6.59375 9.5625 6.25 10 6.25C10.4062 6.25 10.75 6.59375 10.75 7C10.75 7.4375 10.4062 7.75 10 7.75ZM4 7.75C3.5625 7.75 3.25 7.4375 3.25 7C3.25 6.59375 3.5625 6.25 4 6.25C4.40625 6.25 4.75 6.59375 4.75 7C4.75 7.4375 4.40625 7.75 4 7.75Z" fill="#515855"/>
</svg>
