<svg width="16" height="16" viewBox="0 0 16 16" fill="none" xmlns="http://www.w3.org/2000/svg">
<path d="M4.5 7C6.40625 7 8 5.4375 8 3.5C8 1.59375 6.40625 0 4.5 0C2.5625 0 1 1.59375 1 3.5C1 5.4375 2.5625 7 4.5 7ZM4.5 2C5.3125 2 6 2.6875 6 3.5C6 4.34375 5.3125 5 4.5 5C3.65625 5 3 4.34375 3 3.5C3 2.6875 3.65625 2 4.5 2ZM11.5 9C9.5625 9 8 10.5938 8 12.5C8 14.4375 9.5625 16 11.5 16C13.4062 16 15 14.4375 15 12.5C15 10.5938 13.4062 9 11.5 9ZM11.5 14C10.6562 14 10 13.3438 10 12.5C10 11.6875 10.6562 11 11.5 11C12.3125 11 13 11.6875 13 12.5C13 13.3438 12.3125 14 11.5 14ZM13.25 0.03125C13 0.03125 12.7812 0.125 12.625 0.34375L1.125 14.8438C0.78125 15.3125 1.125 16 1.75 16H2.78125C3 16 3.28125 15.875 3.40625 15.6875L14.8438 1.1875C15.1875 0.6875 14.8438 0 14.2188 0.03125H13.25Z" fill="#515855"/>
</svg>
