<svg width="19" height="22" viewBox="0 0 19 22" fill="none" xmlns="http://www.w3.org/2000/svg">
<path d="M8.70635 0.0294228C7.31845 0.250225 6.15765 1.12082 5.55833 2.38255C5.26813 2.99449 5.14827 3.57489 5.14827 4.43287V5.14575H3.72882C2.22736 5.14575 2.00024 5.1836 1.90561 5.44226C1.8236 5.64413 -0.0311455 19.8702 0.000397775 20.009C0.0193238 20.0784 0.246436 20.337 0.505091 20.5894L0.971932 21.0436H9.30568H17.6331L17.9675 20.7471C18.3586 20.4001 18.6488 20.0531 18.6488 19.9333C18.6488 19.7503 16.7562 5.53058 16.7184 5.42964C16.6237 5.1836 16.384 5.14575 14.8952 5.14575H13.4757V4.43287C13.4757 3.5812 13.3558 2.99449 13.0719 2.40148C12.5546 1.31008 11.6904 0.546732 10.5674 0.193447C10.0312 0.0294228 9.20474 -0.0462818 8.70635 0.0294228ZM10.3466 1.17129C10.8513 1.34162 11.2677 1.61921 11.6462 2.03558C12.2581 2.7043 12.4663 3.30993 12.4663 4.40133V5.14575H9.31198H6.15765V4.49596C6.15765 4.14267 6.20181 3.66952 6.25228 3.44872C6.52355 2.30054 7.44462 1.37317 8.5928 1.07666C9.07226 0.956795 9.85453 0.994648 10.3466 1.17129ZM15.8351 6.32547C15.8919 6.61567 17.5763 19.4412 17.5763 19.5989C17.5763 19.6746 17.5132 19.8071 17.4375 19.8891L17.3051 20.0342H9.31198H1.32522L1.16119 19.8576L1.00348 19.6872L1.90561 12.9369C2.39769 9.22114 2.80775 6.18037 2.80775 6.16775C2.81406 6.16144 5.73497 6.15513 9.30568 6.15513H15.7973L15.8351 6.32547Z" fill="#fff"/>
</svg>
