<svg width="24" height="22" viewBox="0 0 24 22" fill="none" xmlns="http://www.w3.org/2000/svg">
<path d="M2.62299 11.2091C2.62129 11.2072 2.61982 11.2053 2.61859 11.2036C0.387514 8.8544 0.393342 5.05344 2.63896 2.71347L2.63897 2.71346C3.73065 1.57673 5.18288 0.95 6.72809 0.95C8.27283 0.95 9.72552 1.57673 10.8172 2.71346C10.8189 2.71519 10.8203 2.71693 10.8216 2.71858C10.8232 2.71993 10.825 2.7215 10.8267 2.72328L10.8279 2.72451L10.8279 2.72453L12 4.01887L13.1734 2.72451L13.1746 2.72326L13.1746 2.72328C13.1763 2.72153 13.178 2.71998 13.1797 2.71864L2.62299 11.2091ZM2.62299 11.2091L10.6805 20.4256C10.6805 20.4256 10.6805 20.4256 10.6805 20.4256C11.0272 20.8267 11.4959 21.05 11.999 21.05H11.9991H11.9991H11.9991H11.9991H11.9991H11.9991H11.9992H11.9992H11.9992H11.9992H11.9992H11.9992H11.9992H11.9993H11.9993H11.9993H11.9993H11.9993H11.9993H11.9993H11.9994H11.9994H11.9994H11.9994H11.9994H11.9994H11.9994H11.9995H11.9995H11.9995H11.9995H11.9995H11.9995H11.9995H11.9996H11.9996H11.9996H11.9996H11.9996H11.9996H11.9996H11.9997H11.9997H11.9997H11.9997H11.9997H11.9997H11.9998H11.9998H11.9998H11.9998H11.9998H11.9998H11.9998H11.9999H11.9999H11.9999H11.9999H11.9999H11.9999H11.9999H12C12.5035 21.05 12.9722 20.8273 13.3184 20.4276C13.3185 20.4276 13.3185 20.4275 13.3185 20.4275L21.3792 11.2086C21.3811 11.2064 21.3827 11.2042 21.3839 11.2023C23.612 8.85357 23.6058 5.05306 21.3629 2.71349L21.3628 2.71345C20.2707 1.57673 18.8185 0.95 17.2732 0.95C15.7285 0.95 14.2759 1.5767 13.1842 2.71337L2.62299 11.2091ZM12.2209 5.19619L12.2461 5.2394C12.2512 5.2364 12.257 5.2332 12.2633 5.22975C12.2889 5.21569 12.3222 5.1974 12.3492 5.17097L12.3501 5.17006C12.3541 5.16594 12.3572 5.16166 12.3592 5.1586C12.3595 5.1584 12.3598 5.15819 12.3601 5.15798C12.3627 5.15613 12.3663 5.15339 12.37 5.14959L12.37 5.14961L12.3712 5.14835L13.913 3.44796C14.8125 2.51547 16.0052 2.00238 17.2732 2.00238C18.5452 2.00238 19.7414 2.51803 20.6408 3.4551C22.4988 5.39338 22.4988 8.54713 20.6408 10.4849L20.6769 10.5195L20.641 10.4847C20.6375 10.4884 20.6347 10.4922 20.6328 10.4952C20.6303 10.4972 20.6274 10.4999 20.6246 10.5032L12.5627 19.7233L12.5626 19.7235C12.4083 19.9018 12.2085 19.9971 12 19.9971H11.9995C11.7915 19.9971 11.5922 19.9019 11.4364 19.722L11.4363 19.7219L3.37736 10.5039C3.37417 10.5 3.37082 10.4969 3.36791 10.4945C3.36619 10.4918 3.36363 10.4882 3.36004 10.4844C1.50069 8.54712 1.50067 5.3934 3.36002 3.45512C4.26043 2.51803 5.45617 2.00238 6.72809 2.00238C7.99838 2.00238 9.19252 2.51688 10.0924 3.45174L11.6287 5.14832L11.6285 5.1485L11.6323 5.1519C11.6353 5.15455 11.6382 5.15674 11.6406 5.15837C11.6427 5.16161 11.6457 5.16588 11.6498 5.17006L11.6498 5.17008L11.651 5.17126C11.6786 5.19787 11.7116 5.21621 11.7375 5.23065C11.7434 5.2339 11.7489 5.23696 11.7539 5.23987L11.7539 5.23988L11.7547 5.24035C11.7588 5.24265 11.7625 5.24539 11.7692 5.25033C11.7705 5.25129 11.7718 5.25233 11.7734 5.25346C11.7813 5.2593 11.7933 5.26804 11.8082 5.27418C11.8691 5.29982 11.9339 5.31429 12 5.31429C12.0659 5.31429 12.1306 5.29986 12.1915 5.2743M12.2209 5.19619L12.2467 5.23905C12.2426 5.24151 12.239 5.24416 12.2335 5.24832C12.2316 5.24979 12.2294 5.25145 12.2268 5.25336C12.2185 5.25949 12.2064 5.26819 12.1915 5.2743M12.2209 5.19619C12.2144 5.20012 12.2082 5.20478 12.202 5.20943C12.1925 5.21661 12.183 5.22376 12.1724 5.2281M12.2209 5.19619C12.228 5.19206 12.2352 5.18809 12.2424 5.18412C12.2675 5.17025 12.2927 5.15634 12.3143 5.13524C12.3161 5.13333 12.3174 5.13119 12.3187 5.12905C12.3199 5.1269 12.3212 5.12476 12.3231 5.12286C12.3247 5.12119 12.3266 5.12 12.3286 5.11881C12.3306 5.11762 12.3325 5.11643 12.3341 5.11476L12.1724 5.2281M12.1915 5.2743C12.1916 5.27426 12.1917 5.27422 12.1918 5.27418L12.1724 5.2281M12.1915 5.2743C12.1914 5.27434 12.1913 5.27437 12.1912 5.27441L12.1724 5.2281M21.3788 11.2077L21.3792 11.2073L21.3788 11.2077ZM11.7595 5.1856C11.7338 5.17125 11.7081 5.15687 11.6857 5.13524L11.7996 5.21064C11.793 5.20569 11.7863 5.20071 11.779 5.19667C11.7726 5.1929 11.766 5.18925 11.7595 5.1856ZM21.3896 11.1899C21.3898 11.1895 21.3898 11.1895 21.3897 11.1896L21.3896 11.1899Z" fill="#515855" stroke="#515855" stroke-width="0.1"/>
</svg>
