<svg width="56" height="45" viewBox="0 0 56 45" fill="none" xmlns="http://www.w3.org/2000/svg">
<mask id="path-1-inside-1_92:1261" fill="white">
<path fill-rule="evenodd" clip-rule="evenodd" d="M45.8296 17.8215C44.2573 16.5055 41.9628 16.6789 40.606 18.2163L33.143 26.6727C30.4611 29.7114 29.5248 33.8521 30.6381 37.749L31.2907 40.0326V44.043C31.2907 44.5715 31.7191 45 32.2477 45C32.7763 45 33.2046 44.5715 33.2046 44.043V39.8986C33.2046 39.8097 33.1922 39.7212 33.1677 39.6357L32.4784 37.2231C31.5452 33.9567 32.3301 30.486 34.5779 27.9391L42.0409 19.4826C42.7059 18.7292 43.8305 18.644 44.6013 19.2891C45.35 19.9156 45.4787 21.0193 44.8943 21.8014L39.6134 28.8698C39.2971 29.2932 39.3838 29.8929 39.8072 30.2092C40.2306 30.5254 40.8302 30.4387 41.1465 30.0152L46.4275 22.9469C47.0918 22.0578 47.3039 20.9651 47.0976 19.9506L48.5231 18.3528C48.8534 17.9825 49.0352 17.5056 49.0352 17.0098V4.40968C49.0352 3.3272 49.9157 2.4467 50.9982 2.4467C52.0806 2.4467 52.9611 3.32733 52.9611 4.40968V10.9038C52.9611 10.9042 52.9611 10.9046 52.9611 10.905V21.962C52.9611 25.1484 52.1521 28.3098 50.6216 31.1047L46.6828 38.2974C46.6056 38.4384 46.5651 38.5964 46.5651 38.7571V44.043C46.5651 44.5715 46.9935 45 47.5221 45C48.0507 45 48.479 44.5715 48.479 44.043V39.0019L52.3002 32.024C53.9847 28.9481 54.875 25.4687 54.875 21.962V10.9038V9.85735V4.40968C54.875 2.2719 53.1358 0.532837 50.9982 0.532837C48.8605 0.532837 47.1213 2.27203 47.1213 4.40968V17.0098C47.1213 17.0353 47.112 17.0598 47.095 17.0788L46.1562 18.131C46.0544 18.0228 45.9462 17.9191 45.8296 17.8215Z"/>
</mask>
<path fill-rule="evenodd" clip-rule="evenodd" d="M45.8296 17.8215C44.2573 16.5055 41.9628 16.6789 40.606 18.2163L33.143 26.6727C30.4611 29.7114 29.5248 33.8521 30.6381 37.749L31.2907 40.0326V44.043C31.2907 44.5715 31.7191 45 32.2477 45C32.7763 45 33.2046 44.5715 33.2046 44.043V39.8986C33.2046 39.8097 33.1922 39.7212 33.1677 39.6357L32.4784 37.2231C31.5452 33.9567 32.3301 30.486 34.5779 27.9391L42.0409 19.4826C42.7059 18.7292 43.8305 18.644 44.6013 19.2891C45.35 19.9156 45.4787 21.0193 44.8943 21.8014L39.6134 28.8698C39.2971 29.2932 39.3838 29.8929 39.8072 30.2092C40.2306 30.5254 40.8302 30.4387 41.1465 30.0152L46.4275 22.9469C47.0918 22.0578 47.3039 20.9651 47.0976 19.9506L48.5231 18.3528C48.8534 17.9825 49.0352 17.5056 49.0352 17.0098V4.40968C49.0352 3.3272 49.9157 2.4467 50.9982 2.4467C52.0806 2.4467 52.9611 3.32733 52.9611 4.40968V10.9038C52.9611 10.9042 52.9611 10.9046 52.9611 10.905V21.962C52.9611 25.1484 52.1521 28.3098 50.6216 31.1047L46.6828 38.2974C46.6056 38.4384 46.5651 38.5964 46.5651 38.7571V44.043C46.5651 44.5715 46.9935 45 47.5221 45C48.0507 45 48.479 44.5715 48.479 44.043V39.0019L52.3002 32.024C53.9847 28.9481 54.875 25.4687 54.875 21.962V10.9038V9.85735V4.40968C54.875 2.2719 53.1358 0.532837 50.9982 0.532837C48.8605 0.532837 47.1213 2.27203 47.1213 4.40968V17.0098C47.1213 17.0353 47.112 17.0598 47.095 17.0788L46.1562 18.131C46.0544 18.0228 45.9462 17.9191 45.8296 17.8215Z" fill="#080508"/>
<path d="M40.606 18.2163L40.3061 17.9516L40.3061 17.9516L40.606 18.2163ZM45.8296 17.8215L46.0863 17.5148L46.0863 17.5148L45.8296 17.8215ZM33.143 26.6727L33.4429 26.9374L33.4429 26.9374L33.143 26.6727ZM30.6381 37.749L30.2535 37.8589L30.2535 37.8589L30.6381 37.749ZM31.2907 40.0326L31.6753 39.9227L31.6907 39.9766V40.0326H31.2907ZM33.1677 39.6357L32.7832 39.7459L32.7831 39.7456L33.1677 39.6357ZM32.4784 37.2231L32.0937 37.333L32.0937 37.333L32.4784 37.2231ZM34.5779 27.9391L34.8778 28.2037V28.2037L34.5779 27.9391ZM42.0409 19.4826L41.741 19.2179L41.741 19.2179L42.0409 19.4826ZM44.6013 19.2891L44.3445 19.5958L44.3445 19.5958L44.6013 19.2891ZM44.8943 21.8014L44.5739 21.562L44.5739 21.562L44.8943 21.8014ZM39.6134 28.8698L39.9338 29.1092L39.9338 29.1092L39.6134 28.8698ZM39.8072 30.2092L39.5678 30.5296L39.5678 30.5296L39.8072 30.2092ZM41.1465 30.0152L40.826 29.7758L40.826 29.7758L41.1465 30.0152ZM46.4275 22.9469L46.107 22.7075L46.107 22.7075L46.4275 22.9469ZM47.0976 19.9506L46.7056 20.0303L46.6657 19.8339L46.7991 19.6843L47.0976 19.9506ZM48.5231 18.3528L48.8217 18.619L48.8216 18.6191L48.5231 18.3528ZM52.9611 10.905L53.3611 10.9045V10.905H52.9611ZM50.6216 31.1047L50.9725 31.2968L50.9725 31.2968L50.6216 31.1047ZM46.6828 38.2974L46.3319 38.1053L46.3319 38.1052L46.6828 38.2974ZM48.479 39.0019H48.079V38.8996L48.1282 38.8098L48.479 39.0019ZM52.3002 32.024L51.9494 31.8319L51.9494 31.8318L52.3002 32.024ZM47.095 17.0788L46.7966 16.8125L46.7966 16.8124L47.095 17.0788ZM46.1562 18.131L46.4547 18.3973L46.1641 18.7231L45.8649 18.4052L46.1562 18.131ZM40.3061 17.9516C41.8064 16.2517 44.3477 16.0596 46.0863 17.5148L45.5728 18.1282C44.1668 16.9514 42.1192 17.1062 40.9059 18.481L40.3061 17.9516ZM32.8431 26.408L40.3061 17.9516L40.9059 18.4809L33.4429 26.9374L32.8431 26.408ZM30.2535 37.8589C29.1027 33.8309 30.071 29.549 32.8431 26.408L33.4429 26.9374C30.8513 29.8739 29.9468 33.8734 31.0227 37.6391L30.2535 37.8589ZM30.9061 40.1425L30.2535 37.8589L31.0227 37.6391L31.6753 39.9227L30.9061 40.1425ZM30.8907 44.043V40.0326H31.6907V44.043H30.8907ZM32.2477 45.4C31.4981 45.4 30.8907 44.7924 30.8907 44.043H31.6907C31.6907 44.3506 31.94 44.6 32.2477 44.6V45.4ZM33.6046 44.043C33.6046 44.7924 32.9972 45.4 32.2477 45.4V44.6C32.5553 44.6 32.8046 44.3506 32.8046 44.043H33.6046ZM33.6046 39.8986V44.043H32.8046V39.8986H33.6046ZM33.5523 39.5255C33.5871 39.647 33.6046 39.7726 33.6046 39.8986H32.8046C32.8046 39.8468 32.7974 39.7953 32.7832 39.7459L33.5523 39.5255ZM32.863 37.1132L33.5523 39.5258L32.7831 39.7456L32.0937 37.333L32.863 37.1132ZM34.8778 28.2037C32.7202 30.6485 31.9672 33.978 32.863 37.1132L32.0937 37.333C31.1231 33.9355 31.94 30.3236 34.278 27.6744L34.8778 28.2037ZM42.3408 19.7473L34.8778 28.2037L34.278 27.6744L41.741 19.2179L42.3408 19.7473ZM44.3445 19.5958C43.7401 19.0899 42.8624 19.1564 42.3408 19.7473L41.741 19.2179C42.5494 18.302 43.9209 18.198 44.858 18.9823L44.3445 19.5958ZM44.5739 21.562C45.0312 20.95 44.9304 20.0861 44.3445 19.5958L44.858 18.9823C45.7695 19.7452 45.9262 21.0886 45.2148 22.0408L44.5739 21.562ZM39.2929 28.6304L44.5739 21.562L45.2148 22.0408L39.9338 29.1092L39.2929 28.6304ZM39.5678 30.5296C38.9674 30.0811 38.8444 29.2307 39.2929 28.6304L39.9338 29.1092C39.7497 29.3556 39.8002 29.7046 40.0466 29.8887L39.5678 30.5296ZM41.467 30.2546C41.0184 30.8551 40.1682 30.9781 39.5678 30.5296L40.0465 29.8887C40.2931 30.0728 40.642 30.0223 40.826 29.7758L41.467 30.2546ZM46.7479 23.1864L41.4669 30.2546L40.826 29.7758L46.107 22.7075L46.7479 23.1864ZM47.4896 19.8709C47.7176 20.9924 47.4833 22.2021 46.7479 23.1864L46.107 22.7075C46.7004 21.9134 46.8901 20.9377 46.7056 20.0303L47.4896 19.8709ZM48.8216 18.6191L47.396 20.2169L46.7991 19.6843L48.2247 18.0865L48.8216 18.6191ZM49.4352 17.0098C49.4352 17.6038 49.2172 18.1755 48.8217 18.619L48.2246 18.0866C48.4895 17.7895 48.6352 17.4073 48.6352 17.0098H49.4352ZM49.4352 4.40968V17.0098H48.6352V4.40968H49.4352ZM50.9982 2.8467C50.1366 2.8467 49.4352 3.54812 49.4352 4.40968H48.6352C48.6352 3.10629 49.6948 2.0467 50.9982 2.0467V2.8467ZM52.5611 4.40968C52.5611 3.54823 51.8597 2.8467 50.9982 2.8467V2.0467C52.3016 2.0467 53.3611 3.10643 53.3611 4.40968H52.5611ZM52.5611 10.9038V4.40968H53.3611V10.9038H52.5611ZM52.5611 10.9055C52.5611 10.9049 52.5611 10.9043 52.5611 10.9038H53.3611C53.3611 10.904 53.3611 10.9043 53.3611 10.9045L52.5611 10.9055ZM52.5611 21.962V10.905H53.3611V21.962H52.5611ZM50.2708 30.9126C51.769 28.1766 52.5611 25.0812 52.5611 21.962H53.3611C53.3611 25.2155 52.5352 28.443 50.9725 31.2968L50.2708 30.9126ZM46.3319 38.1052L50.2708 30.9126L50.9725 31.2968L47.0336 38.4895L46.3319 38.1052ZM46.1651 38.7571C46.1651 38.5293 46.2225 38.3051 46.3319 38.1053L47.0336 38.4895C46.9887 38.5716 46.9651 38.6636 46.9651 38.7571H46.1651ZM46.1651 44.043V38.7571H46.9651V44.043H46.1651ZM47.5221 45.4C46.7725 45.4 46.1651 44.7924 46.1651 44.043H46.9651C46.9651 44.3506 47.2144 44.6 47.5221 44.6V45.4ZM48.879 44.043C48.879 44.7924 48.2716 45.4 47.5221 45.4V44.6C47.8297 44.6 48.079 44.3506 48.079 44.043H48.879ZM48.879 39.0019V44.043H48.079V39.0019H48.879ZM52.6511 32.2161L48.8298 39.194L48.1282 38.8098L51.9494 31.8319L52.6511 32.2161ZM55.275 21.962C55.275 25.5359 54.3678 29.0814 52.6511 32.2161L51.9494 31.8318C53.6016 28.8149 54.475 25.4016 54.475 21.962H55.275ZM55.275 10.9038V21.962H54.475V10.9038H55.275ZM55.275 9.85735V10.9038H54.475V9.85735H55.275ZM55.275 4.40968V9.85735H54.475V4.40968H55.275ZM50.9982 0.132837C53.3567 0.132837 55.275 2.05098 55.275 4.40968H54.475C54.475 2.49282 52.9149 0.932837 50.9982 0.932837V0.132837ZM46.7213 4.40968C46.7213 2.05111 48.6396 0.132837 50.9982 0.132837V0.932837C49.0814 0.932837 47.5213 2.49294 47.5213 4.40968H46.7213ZM46.7213 17.0098V4.40968H47.5213V17.0098H46.7213ZM46.7966 16.8124C46.7479 16.867 46.7213 16.9374 46.7213 17.0098H47.5213C47.5213 17.1332 47.4761 17.2526 47.3934 17.3452L46.7966 16.8124ZM45.8577 17.8647L46.7966 16.8125L47.3935 17.3451L46.4547 18.3973L45.8577 17.8647ZM46.0863 17.5148C46.2165 17.6238 46.3362 17.7386 46.4475 17.8569L45.8649 18.4052C45.7726 18.307 45.6759 18.2145 45.5728 18.1282L46.0863 17.5148Z" fill="white" mask="url(#path-1-inside-1_92:1261)"/>
<mask id="path-3-inside-2_92:1261" fill="white">
<path fill-rule="evenodd" clip-rule="evenodd" d="M10.19 17.8215C11.7623 16.5055 14.0567 16.6789 15.4135 18.2163L22.8766 26.6727C25.5584 29.7114 26.4948 33.8521 25.3814 37.749L24.7288 40.0326V44.043C24.7288 44.5715 24.3005 45 23.7719 45C23.2433 45 22.8149 44.5715 22.8149 44.043V39.8986C22.8149 39.8097 22.8273 39.7212 22.8518 39.6357L23.5412 37.2231C24.4744 33.9567 23.6894 30.486 21.4417 27.9391L13.9786 19.4826C13.3136 18.7292 12.189 18.644 11.4183 19.2891C10.6696 19.9156 10.5408 21.0193 11.1252 21.8014L16.4062 28.8698C16.7225 29.2932 16.6357 29.8929 16.2124 30.2092C15.7889 30.5254 15.1893 30.4387 14.873 30.0152L9.59206 22.9469C8.9277 22.0578 8.71564 20.9651 8.92195 19.9506L7.49638 18.3528C7.16618 17.9825 6.98436 17.5056 6.98436 17.0098V4.40968C6.98436 3.3272 6.10386 2.4467 5.02138 2.4467C3.9389 2.4467 3.05839 3.32733 3.05839 4.40968V10.1606C3.05839 10.1608 3.05839 10.161 3.05839 10.1613V21.962C3.05839 25.1484 3.86745 28.3098 5.3979 31.1047L9.33675 38.2974C9.41395 38.4384 9.45439 38.5964 9.45439 38.7571V44.043C9.45439 44.5715 9.02607 45 8.49746 45C7.96885 45 7.54053 44.5715 7.54053 44.043V39.0019L3.71931 32.024C2.03486 28.9481 1.14453 25.4687 1.14453 21.962V10.9038V9.85735V4.40968C1.14453 2.2719 2.88372 0.532837 5.02138 0.532837C7.15903 0.532837 8.89822 2.27203 8.89822 4.40968V17.0098C8.89822 17.0353 8.90754 17.0598 8.92451 17.0788L9.86332 18.131C9.96514 18.0228 10.0733 17.9191 10.19 17.8215Z"/>
</mask>
<path fill-rule="evenodd" clip-rule="evenodd" d="M10.19 17.8215C11.7623 16.5055 14.0567 16.6789 15.4135 18.2163L22.8766 26.6727C25.5584 29.7114 26.4948 33.8521 25.3814 37.749L24.7288 40.0326V44.043C24.7288 44.5715 24.3005 45 23.7719 45C23.2433 45 22.8149 44.5715 22.8149 44.043V39.8986C22.8149 39.8097 22.8273 39.7212 22.8518 39.6357L23.5412 37.2231C24.4744 33.9567 23.6894 30.486 21.4417 27.9391L13.9786 19.4826C13.3136 18.7292 12.189 18.644 11.4183 19.2891C10.6696 19.9156 10.5408 21.0193 11.1252 21.8014L16.4062 28.8698C16.7225 29.2932 16.6357 29.8929 16.2124 30.2092C15.7889 30.5254 15.1893 30.4387 14.873 30.0152L9.59206 22.9469C8.9277 22.0578 8.71564 20.9651 8.92195 19.9506L7.49638 18.3528C7.16618 17.9825 6.98436 17.5056 6.98436 17.0098V4.40968C6.98436 3.3272 6.10386 2.4467 5.02138 2.4467C3.9389 2.4467 3.05839 3.32733 3.05839 4.40968V10.1606C3.05839 10.1608 3.05839 10.161 3.05839 10.1613V21.962C3.05839 25.1484 3.86745 28.3098 5.3979 31.1047L9.33675 38.2974C9.41395 38.4384 9.45439 38.5964 9.45439 38.7571V44.043C9.45439 44.5715 9.02607 45 8.49746 45C7.96885 45 7.54053 44.5715 7.54053 44.043V39.0019L3.71931 32.024C2.03486 28.9481 1.14453 25.4687 1.14453 21.962V10.9038V9.85735V4.40968C1.14453 2.2719 2.88372 0.532837 5.02138 0.532837C7.15903 0.532837 8.89822 2.27203 8.89822 4.40968V17.0098C8.89822 17.0353 8.90754 17.0598 8.92451 17.0788L9.86332 18.131C9.96514 18.0228 10.0733 17.9191 10.19 17.8215Z" fill="#080508"/>
<path d="M15.4135 18.2163L15.7134 17.9516L15.7134 17.9516L15.4135 18.2163ZM10.19 17.8215L9.93322 17.5148L9.93322 17.5148L10.19 17.8215ZM22.8766 26.6727L22.5766 26.9374L22.5767 26.9374L22.8766 26.6727ZM25.3814 37.749L25.766 37.8589L25.766 37.8589L25.3814 37.749ZM24.7288 40.0326L24.3442 39.9227L24.3288 39.9766V40.0326H24.7288ZM22.8518 39.6357L23.2363 39.7459L23.2364 39.7456L22.8518 39.6357ZM23.5412 37.2231L23.9258 37.333L23.9258 37.333L23.5412 37.2231ZM21.4417 27.9391L21.1418 28.2037V28.2037L21.4417 27.9391ZM13.9786 19.4826L14.2785 19.2179L14.2785 19.2179L13.9786 19.4826ZM11.4183 19.2891L11.675 19.5958L11.675 19.5958L11.4183 19.2891ZM11.1252 21.8014L11.4456 21.562L11.4456 21.562L11.1252 21.8014ZM16.4062 28.8698L16.0857 29.1092L16.0857 29.1092L16.4062 28.8698ZM16.2124 30.2092L16.4517 30.5296L16.4518 30.5296L16.2124 30.2092ZM14.873 30.0152L15.1935 29.7758L15.1935 29.7758L14.873 30.0152ZM9.59206 22.9469L9.9125 22.7075L9.9125 22.7075L9.59206 22.9469ZM8.92195 19.9506L9.31393 20.0303L9.35388 19.8339L9.22043 19.6843L8.92195 19.9506ZM7.49638 18.3528L7.19785 18.619L7.19791 18.6191L7.49638 18.3528ZM5.3979 31.1047L5.04706 31.2968L5.04706 31.2968L5.3979 31.1047ZM9.33675 38.2974L9.68761 38.1053L9.68759 38.1052L9.33675 38.2974ZM7.54053 39.0019H7.94053V38.8996L7.89137 38.8098L7.54053 39.0019ZM3.71931 32.024L4.07015 31.8319L4.07015 31.8318L3.71931 32.024ZM8.92451 17.0788L9.22298 16.8125L9.22291 16.8124L8.92451 17.0788ZM9.86332 18.131L9.56485 18.3973L9.85546 18.7231L10.1546 18.4052L9.86332 18.131ZM15.7134 17.9516C14.2132 16.2517 11.6718 16.0596 9.93322 17.5148L10.4467 18.1282C11.8527 16.9514 13.9003 17.1062 15.1136 18.481L15.7134 17.9516ZM23.1765 26.408L15.7134 17.9516L15.1136 18.4809L22.5766 26.9374L23.1765 26.408ZM25.766 37.8589C26.9169 33.8309 25.9485 29.549 23.1765 26.408L22.5767 26.9374C25.1682 29.8739 26.0727 33.8734 24.9968 37.6391L25.766 37.8589ZM25.1134 40.1425L25.766 37.8589L24.9968 37.6391L24.3442 39.9227L25.1134 40.1425ZM25.1288 44.043V40.0326H24.3288V44.043H25.1288ZM23.7719 45.4C24.5214 45.4 25.1288 44.7924 25.1288 44.043H24.3288C24.3288 44.3506 24.0795 44.6 23.7719 44.6V45.4ZM22.4149 44.043C22.4149 44.7924 23.0223 45.4 23.7719 45.4V44.6C23.4642 44.6 23.2149 44.3506 23.2149 44.043H22.4149ZM22.4149 39.8986V44.043H23.2149V39.8986H22.4149ZM22.4673 39.5255C22.4325 39.647 22.4149 39.7726 22.4149 39.8986H23.2149C23.2149 39.8468 23.2221 39.7953 23.2363 39.7459L22.4673 39.5255ZM23.1566 37.1132L22.4672 39.5258L23.2364 39.7456L23.9258 37.333L23.1566 37.1132ZM21.1418 28.2037C23.2993 30.6485 24.0523 33.978 23.1566 37.1132L23.9258 37.333C24.8965 33.9355 24.0796 30.3236 21.7416 27.6744L21.1418 28.2037ZM13.6787 19.7473L21.1418 28.2037L21.7416 27.6744L14.2785 19.2179L13.6787 19.7473ZM11.675 19.5958C12.2794 19.0899 13.1572 19.1564 13.6787 19.7473L14.2785 19.2179C13.4701 18.302 12.0987 18.198 11.1615 18.9823L11.675 19.5958ZM11.4456 21.562C10.9884 20.95 11.0891 20.0861 11.675 19.5958L11.1615 18.9823C10.25 19.7452 10.0933 21.0886 10.8048 22.0408L11.4456 21.562ZM16.7266 28.6304L11.4456 21.562L10.8048 22.0408L16.0857 29.1092L16.7266 28.6304ZM16.4518 30.5296C17.0521 30.0811 17.1751 29.2307 16.7266 28.6304L16.0857 29.1092C16.2698 29.3556 16.2193 29.7046 15.973 29.8887L16.4518 30.5296ZM14.5526 30.2546C15.0011 30.8551 15.8513 30.9781 16.4517 30.5296L15.973 29.8887C15.7265 30.0728 15.3776 30.0223 15.1935 29.7758L14.5526 30.2546ZM9.27162 23.1864L14.5526 30.2546L15.1935 29.7758L9.9125 22.7075L9.27162 23.1864ZM8.52998 19.8709C8.30189 20.9924 8.53624 22.2021 9.27163 23.1864L9.9125 22.7075C9.31915 21.9134 9.12939 20.9377 9.31393 20.0303L8.52998 19.8709ZM7.19791 18.6191L8.62348 20.2169L9.22043 19.6843L7.79486 18.0865L7.19791 18.6191ZM6.58436 17.0098C6.58436 17.6038 6.80233 18.1755 7.19785 18.619L7.79491 18.0866C7.53003 17.7895 7.38436 17.4073 7.38436 17.0098H6.58436ZM6.58436 4.40968V17.0098H7.38436V4.40968H6.58436ZM5.02138 2.8467C5.88294 2.8467 6.58436 3.54812 6.58436 4.40968H7.38436C7.38436 3.10629 6.32477 2.0467 5.02138 2.0467V2.8467ZM3.45839 4.40968C3.45839 3.54823 4.15983 2.8467 5.02138 2.8467V2.0467C3.71797 2.0467 2.65839 3.10643 2.65839 4.40968H3.45839ZM3.45839 10.1606V4.40968H2.65839V10.1606H3.45839ZM3.45839 10.1613L3.45839 10.1606H2.65839L2.65839 10.1613H3.45839ZM3.45839 21.962V10.1613H2.65839V21.962H3.45839ZM5.74874 30.9126C4.25053 28.1766 3.45839 25.0812 3.45839 21.962H2.65839C2.65839 25.2155 3.48436 28.443 5.04706 31.2968L5.74874 30.9126ZM9.68759 38.1052L5.74874 30.9126L5.04706 31.2968L8.98592 38.4895L9.68759 38.1052ZM9.85439 38.7571C9.85439 38.5293 9.79703 38.3051 9.68761 38.1053L8.9859 38.4895C9.03086 38.5716 9.05439 38.6636 9.05439 38.7571H9.85439ZM9.85439 44.043V38.7571H9.05439V44.043H9.85439ZM8.49746 45.4C9.24702 45.4 9.85439 44.7924 9.85439 44.043H9.05439C9.05439 44.3506 8.80512 44.6 8.49746 44.6V45.4ZM7.14053 44.043C7.14053 44.7924 7.7479 45.4 8.49746 45.4V44.6C8.1898 44.6 7.94053 44.3506 7.94053 44.043H7.14053ZM7.14053 39.0019V44.043H7.94053V39.0019H7.14053ZM3.36847 32.2161L7.18969 39.194L7.89137 38.8098L4.07015 31.8319L3.36847 32.2161ZM0.744531 21.962C0.744531 25.5359 1.65177 29.0814 3.36848 32.2161L4.07015 31.8318C2.41795 28.8149 1.54453 25.4016 1.54453 21.962H0.744531ZM0.744531 10.9038V21.962H1.54453V10.9038H0.744531ZM0.744531 9.85735V10.9038H1.54453V9.85735H0.744531ZM0.744531 4.40968V9.85735H1.54453V4.40968H0.744531ZM5.02138 0.132837C2.66282 0.132837 0.744531 2.05098 0.744531 4.40968H1.54453C1.54453 2.49282 3.10463 0.932837 5.02138 0.932837V0.132837ZM9.29822 4.40968C9.29822 2.05111 7.37995 0.132837 5.02138 0.132837V0.932837C6.93812 0.932837 8.49822 2.49294 8.49822 4.40968H9.29822ZM9.29822 17.0098V4.40968H8.49822V17.0098H9.29822ZM9.22291 16.8124C9.27163 16.867 9.29822 16.9374 9.29822 17.0098H8.49822C8.49822 17.1332 8.54345 17.2526 8.6261 17.3452L9.22291 16.8124ZM10.1618 17.8647L9.22298 16.8125L8.62603 17.3451L9.56485 18.3973L10.1618 17.8647ZM9.93322 17.5148C9.80299 17.6238 9.68332 17.7386 9.57202 17.8569L10.1546 18.4052C10.2469 18.307 10.3437 18.2145 10.4467 18.1282L9.93322 17.5148Z" fill="white" mask="url(#path-3-inside-2_92:1261)"/>
</svg>
