<svg width="50" height="50" viewBox="0 0 50 50" fill="none" xmlns="http://www.w3.org/2000/svg">
<path d="M34.0156 17.8704L33.9911 17.8086L32.2424 13.379L34.0156 17.8704ZM34.0156 17.8704L34.0682 17.8298M34.0156 17.8704L34.0682 17.8298M34.0682 17.8298C34.5661 17.4457 35.0971 17.1065 35.655 16.816C39.2343 15.0132 42.3165 15.8399 44.5137 17.1278C46.6554 18.3832 47.9533 20.0758 48.0416 20.1934L48.0419 20.1944L48.0465 20.2007C48.1203 20.3014 48.1627 20.4216 48.1683 20.5463C48.174 20.671 48.1427 20.7946 48.0784 20.9015C48.0141 21.0085 47.9196 21.0941 47.8068 21.1476C47.694 21.2011 47.568 21.22 47.4444 21.2021L47.4426 21.2019C46.5785 21.1095 45.7059 21.1341 44.8483 21.2749L44.848 21.2749C43.5651 21.493 42.4106 22.1844 41.6128 23.2126C40.8151 24.2406 40.4321 25.5305 40.5394 26.8273C40.7443 29.8852 40.3359 35.5941 35.3166 39.5333C32.206 41.9735 28.668 42.3092 25.6018 41.8731C22.5351 41.4368 19.9445 40.2287 18.7361 39.5871L18.6889 39.5621L18.667 39.6108C17.1039 43.0929 14.3393 45.8959 10.879 47.507L10.8784 47.5073C10.7928 47.5487 10.6989 47.5701 10.6039 47.5701C10.5088 47.5701 10.4149 47.5487 10.3293 47.5073L10.3292 47.5073C2.62276 43.8209 1.8596 36.6116 1.83118 36.3106C1.82298 36.2227 1.83319 36.1342 1.86117 36.0505C1.88914 35.9669 1.93428 35.8899 1.99368 35.8247C2.05307 35.7595 2.12543 35.7074 2.20612 35.6717C2.28681 35.6361 2.37406 35.6176 2.46227 35.6176C9.37312 35.6176 15.5665 33.5817 21.34 29.4026L21.4285 29.3386L21.3222 29.3135C13.5913 27.485 8.73245 22.809 5.80066 18.569C2.86845 14.3285 1.86533 10.5261 1.84671 10.4516L1.84668 10.4514C1.82301 10.3578 1.82105 10.2601 1.84093 10.1656C1.86081 10.0712 1.90201 9.98249 1.96139 9.90638C2.02077 9.83027 2.09675 9.76873 2.18354 9.72647C2.27034 9.68421 2.36563 9.66233 2.46217 9.66252H2.46227H10.2826H10.349M34.0682 17.8298L10.349 9.66252M10.349 9.66252L10.3306 9.59871M10.349 9.66252L10.3306 9.59871M10.3306 9.59871C9.71913 7.47019 9.37855 5.27304 9.31696 3.05929C9.31776 2.96319 9.3404 2.86853 9.38317 2.78247C9.42607 2.69615 9.48808 2.62075 9.5645 2.56199C9.64091 2.50324 9.72972 2.46269 9.82416 2.44342C9.91858 2.42415 10.0162 2.42666 10.1095 2.45076L10.3306 9.59871ZM10.6236 3.99769V3.959V3.95822L10.6743 3.95627L10.6862 3.91061L23.633 7.26998L23.6331 7.27C25.3008 7.70585 26.8425 8.52819 28.1333 9.6705C29.4242 10.8128 30.4279 12.243 31.0634 13.8453L31.0634 13.8453L32.9748 18.6809L32.9877 18.7137L32.9612 18.7369C32.3154 19.3012 31.6631 19.9242 31.0033 20.5774L30.962 20.6183L30.9277 20.5713L26.6309 14.6803C25.4955 13.1279 24.0105 11.8647 22.2961 10.9928C20.5818 10.121 18.6863 9.66497 16.763 9.66174C16.763 9.66174 16.763 9.66174 16.763 9.66174M10.6236 3.99769L16.763 9.61174L16.763 9.66174M10.6236 3.99769L10.6266 3.99846M10.6236 3.99769L10.6266 3.99846M16.763 9.66174L11.7025 9.66174H11.665L11.6545 9.62571C11.1205 7.78998 10.776 5.90437 10.6266 3.99846M16.763 9.66174L10.6266 3.99846M44.6459 20.0239L44.6877 20.017V20.0162C45.1102 19.9502 45.5362 19.9081 45.9636 19.8902L46.0799 19.8853L45.9963 19.8043C44.3273 18.1883 40.7467 15.6689 36.2249 17.9495C34.7077 18.7136 33.0417 20.323 31.3327 22.037L31.3323 22.0374C31.2684 22.103 31.1907 22.1535 31.1048 22.1853C31.0189 22.2171 30.927 22.2294 30.8358 22.2213L30.8352 22.2213C30.744 22.2142 30.6553 22.1875 30.5753 22.1429C30.4954 22.0982 30.4261 22.0368 30.3722 21.9628L30.3722 21.9628L25.607 15.4264L25.6069 15.4264C24.5891 14.0354 23.2582 12.9035 21.7218 12.1224C20.1854 11.3413 18.4867 10.9328 16.7631 10.9301H16.763H3.39039H3.3201L3.34316 10.9965C3.73868 12.1356 4.21001 13.2469 4.75397 14.323L4.76784 14.3504H4.79859H12.1404C12.3084 14.3504 12.4696 14.4172 12.5884 14.536C12.7072 14.6548 12.774 14.816 12.774 14.984C12.774 15.152 12.7072 15.3132 12.5884 15.432C12.4696 15.5508 12.3084 15.6176 12.1404 15.6176H5.53062H5.44466L5.48716 15.6923C6.14676 16.8519 6.88643 17.9641 7.70079 19.0208L7.7158 19.0403H7.74039H15.6564C15.8244 19.0403 15.9856 19.107 16.1044 19.2258C16.2232 19.3447 16.29 19.5058 16.29 19.6738C16.29 19.8419 16.2232 20.003 16.1044 20.1219C15.9856 20.2407 15.8244 20.3074 15.6564 20.3074H8.8693H8.75868L8.83176 20.3905C9.90696 21.612 11.0976 22.7268 12.3872 23.7193L12.4007 23.7297H12.4177H19.0767C19.2448 23.7297 19.4059 23.7965 19.5247 23.9153C19.6436 24.0341 19.7103 24.1953 19.7103 24.3633C19.7103 24.5313 19.6436 24.6925 19.5247 24.8113C19.4059 24.9301 19.2448 24.9969 19.0767 24.9969H14.3892H14.2126L14.363 25.0895C17.021 26.7258 19.966 27.8416 23.041 28.3774C23.1612 28.3991 23.2726 28.4551 23.3617 28.5387C23.4509 28.6223 23.5139 28.7299 23.5433 28.8485C23.5727 28.9671 23.5672 29.0917 23.5273 29.2073C23.4875 29.3228 23.4152 29.4244 23.319 29.4997C17.1902 34.2962 10.6228 36.7128 3.26428 36.8758L3.20329 36.8772L3.21659 36.9367C3.6641 38.939 4.5589 40.8141 5.83396 42.4216C7.10901 44.029 8.73128 45.327 10.5792 46.2185L10.6015 46.2293L10.6236 46.218C16.2127 43.3715 17.7295 38.517 17.7461 38.4621L17.7461 38.4621C17.7741 38.3691 17.823 38.2837 17.8891 38.2126C17.9553 38.1415 18.0369 38.0865 18.1276 38.0519C18.2183 38.0173 18.3158 38.0039 18.4125 38.0129C18.5092 38.0219 18.6026 38.0529 18.6854 38.1036L18.6854 38.1036C18.7336 38.133 21.0496 39.529 24.1748 40.2745C27.2995 41.02 31.2429 41.1174 34.5341 38.5355C38.8702 35.1334 39.5041 30.3328 39.2743 26.9107L39.2742 26.9101C39.1449 25.2982 39.625 23.6964 40.6196 22.4214C41.6142 21.1463 43.051 20.2908 44.6459 20.0239ZM28.9726 8.72177C30.4129 9.99602 31.533 11.5914 32.2423 13.3789L23.9517 6.04412C25.8123 6.53022 27.5323 7.44752 28.9726 8.72177ZM10.1095 2.45077L23.9516 6.0441L10.1095 2.45077Z" fill="#080508" stroke="white" stroke-width="0.1"/>
<path d="M39.9312 20.0727C40.3884 20.0727 40.759 19.7021 40.759 19.245C40.759 18.7878 40.3884 18.4172 39.9312 18.4172C39.4741 18.4172 39.1035 18.7878 39.1035 19.245C39.1035 19.7021 39.4741 20.0727 39.9312 20.0727Z" fill="#080508"/>
</svg>
