<svg width="50" height="50" viewBox="0 0 50 50" fill="none" xmlns="http://www.w3.org/2000/svg">
<path d="M1.51667 44.3198V44.1698V10.8348V10.6848H1.66667H4.16667H4.31667V10.8348V40.0015V40.002C4.31538 40.3579 4.58735 40.6551 4.94194 40.6854L7.18418 40.877C7.79721 40.9283 8.41013 40.9915 9.02314 41.0668C9.02319 41.0668 9.02323 41.0668 9.02327 41.0668L9.005 41.2157C9.12454 41.2298 9.2435 41.2468 9.36257 41.2638C9.44686 41.2759 9.5312 41.2879 9.61583 41.299L1.51667 44.3198ZM1.51667 44.3198H1.66667H20.7792L20.8317 44.0293C20.7825 44.0109 20.733 43.991 20.6815 43.9702C20.6306 43.9497 20.5776 43.9282 20.5243 43.908M1.51667 44.3198L20.5243 43.908M20.5243 43.908C20.2862 43.8173 20.0439 43.7259 19.802 43.6418C19.4634 43.5193 19.1242 43.399 18.7822 43.2844C18.5348 43.2008 18.2868 43.1194 18.0382 43.0403C17.6989 42.9316 17.3586 42.8268 17.0175 42.726L17.0172 42.7259L17.0164 42.7257C16.7668 42.6524 16.5162 42.5789 16.2654 42.5087L16.2651 42.5086C15.9213 42.4132 15.5769 42.323 15.2323 42.2345L15.2321 42.2345C14.9802 42.1703 14.7252 42.1059 14.4742 42.0456L14.474 42.0456C14.1231 41.9618 13.7709 41.8849 13.4197 41.8098L13.3883 41.9565C13.3527 41.9488 13.317 41.941 13.2814 41.9333C13.067 41.8867 12.8527 41.8402 12.6383 41.7973L20.5243 43.908ZM22.63 43.1098L24.0167 43.6889V43.7515H24.1667L24.2245 43.6131L22.63 43.1098ZM22.63 43.1098C17.7519 41.0661 12.5831 39.8007 7.3125 39.3598L22.63 43.1098ZM48.4833 44.3182H48.3333H29.2333L29.1792 44.0283C29.2255 44.0104 29.2745 43.9909 29.3242 43.9711C29.3903 43.9449 29.4577 43.9181 29.5218 43.8937C29.773 43.7975 30.0238 43.7063 30.2799 43.6154M48.4833 44.3182L30.3308 43.7565M48.4833 44.3182V44.1682V10.8348V10.6848H48.3333H45.8333H45.6833V10.8348V40.0015L45.6833 40.002C45.6845 40.3585 45.4114 40.656 45.0562 40.6853M48.4833 44.3182L45.0562 40.6853M30.2799 43.6154C30.2801 43.6153 30.2804 43.6152 30.2806 43.6151L30.3308 43.7565M30.2799 43.6154C30.2798 43.6154 30.2798 43.6154 30.2797 43.6155L30.3308 43.7565M30.2799 43.6154C30.6075 43.4967 30.9366 43.3817 31.2671 43.2702L31.2687 43.2696C31.4395 43.2142 31.6112 43.1587 31.7828 43.1032C31.869 43.0753 31.9552 43.0475 32.0413 43.0196L32.0419 43.0194C32.3725 42.914 32.7044 42.8136 33.0356 42.7152L33.0359 42.7151C33.2961 42.6384 33.5578 42.5623 33.8199 42.4903M30.3308 43.7565C30.6575 43.6382 30.9855 43.5235 31.315 43.4123C31.4854 43.357 31.6565 43.3017 31.8276 43.2464C31.9143 43.2184 32.0009 43.1903 32.0875 43.1623C32.4167 43.0573 32.7475 42.9573 33.0783 42.859C33.3383 42.7823 33.5992 42.7065 33.86 42.6348M33.8199 42.4903C33.8198 42.4903 33.8197 42.4903 33.8196 42.4904L33.86 42.6348M33.8199 42.4903C33.82 42.4902 33.8201 42.4902 33.8203 42.4902L33.86 42.6348M33.8199 42.4903C34.1547 42.3965 34.4892 42.3087 34.8318 42.2227L34.8683 42.3682C34.5267 42.454 34.1933 42.5415 33.86 42.6348M37.4458 41.7823C37.2404 41.8226 37.0382 41.8667 36.8366 41.9106C36.788 41.9212 36.7394 41.9318 36.6908 41.9423C36.3417 42.0165 35.9925 42.0915 35.6458 42.1748L41.0917 41.1973C40.9915 41.2104 40.8915 41.2249 40.7916 41.2394C40.6938 41.2537 40.5961 41.2679 40.4983 41.2807C40.0858 41.3357 39.6742 41.3915 39.2633 41.4565C39.1054 41.484 38.9482 41.5115 38.791 41.539C38.7101 41.5532 38.6293 41.5673 38.5483 41.5815M37.4458 41.7823C37.8064 41.711 38.1686 41.6478 38.5301 41.5847L38.5483 41.5815M37.4458 41.7823L37.4167 41.6352C37.779 41.5635 38.1426 41.5 38.5036 41.437L38.5225 41.4337M37.4458 41.7823L37.417 41.6351C37.2098 41.6757 37.0056 41.7202 36.8039 41.7642C36.7555 41.7748 36.7072 41.7853 36.6591 41.7957C36.3102 41.8698 35.9596 41.9451 35.6111 42.0289L38.5225 41.4337M38.5483 41.5815L38.5225 41.4337M38.5483 41.5815L38.5225 41.4337C38.6036 41.4195 38.6846 41.4054 38.7656 41.3912C38.9227 41.3637 39.0798 41.3362 39.2376 41.3087L39.2399 41.3083C39.6527 41.243 40.066 41.187 40.4785 41.132L40.4789 41.1319C40.5757 41.1193 40.6726 41.1052 40.7709 41.0909L40.7731 41.0905C40.8718 41.0762 40.9718 41.0617 41.0723 41.0486L41.0737 41.0484C41.6866 40.9743 42.3025 40.911 42.9215 40.8587L42.922 40.8586L45.056 40.6853L45.0562 40.6853M38.5225 41.4337L45.0683 40.8348L45.0562 40.6853M45.6833 9.16815V9.31815H45.8333H49.1667C49.544 9.31815 49.85 9.62412 49.85 10.0015V45.0015C49.85 45.3789 49.544 45.6848 49.1667 45.6848H0.833333C0.455967 45.6848 0.15 45.3789 0.15 45.0015V10.0015C0.15 9.62412 0.455968 9.31815 0.833333 9.31815H4.16667H4.31667V9.16815L4.31667 5.00148L4.31667 5.00084C4.31658 4.98085 4.31735 4.96098 4.31903 4.9414L4.31905 4.94116C4.35074 4.56511 4.68125 4.28597 5.05733 4.31762C5.05735 4.31762 5.05738 4.31762 5.05741 4.31762L7.23223 4.50344L7.23263 4.50347C12.4899 4.93853 17.6464 6.19594 22.5138 8.22989L22.5142 8.23003L24.9425 9.23753L25.0001 9.26141L25.0576 9.23749L27.4884 8.22665L27.4887 8.22656C32.3555 6.19292 37.5114 4.93572 42.7682 4.50097L42.7684 4.50095L44.9422 4.31766C44.9423 4.31765 44.9423 4.31764 44.9424 4.31764C44.9628 4.31598 44.9827 4.31515 45.0023 4.31523L45.0024 4.31523C45.3799 4.31652 45.6847 4.62358 45.6833 5.00094V5.00148V9.16815ZM24.1089 43.8899L24.3167 43.9767V43.7515V10.5573V10.4572L24.2242 10.4188L21.9887 9.49058C17.2518 7.51141 12.2337 6.28809 7.11743 5.86533C7.11741 5.86533 7.11738 5.86533 7.11735 5.86533L5.84587 5.75868L5.68333 5.74504V5.90815V39.2365V39.3745L5.82087 39.386L7.3 39.5093C7.30001 39.5093 7.30002 39.5093 7.30004 39.5093C12.555 39.9488 17.7084 41.2105 22.572 43.2482L22.5722 43.2482L24.1089 43.8899ZM25.6833 43.7515V43.9762L25.8909 43.89L27.5217 43.2125L27.5218 43.2125C32.3935 41.1859 37.5516 39.9317 42.8099 39.4951L44.1789 39.3835L44.3167 39.3722V39.234V5.90815V5.74504L44.1541 5.75868L42.8826 5.86533C42.8826 5.86533 42.8825 5.86534 42.8825 5.86534C37.7672 6.28799 32.7499 7.51098 28.014 9.48969C28.0139 9.48971 28.0139 9.48973 28.0138 9.48975L25.7758 10.4188L25.6833 10.4572V10.5573V43.7515ZM29.6164 44.0182H29.569H29.6164Z" fill="#080508" stroke="white" stroke-width="0.3"/>
</svg>
