<svg width="16" height="18" viewBox="0 0 16 18" fill="none" xmlns="http://www.w3.org/2000/svg">
<path d="M13.875 2.5625C13.4688 2.21875 11.8438 1.03125 8.28125 1.03125C8.28125 1.03125 4.0625 0.78125 2 2.65625C0.84375 3.8125 0.4375 5.46875 0.40625 7.5625C0.375 9.625 0.3125 13.5312 4.0625 14.5938V16.1875C4.0625 16.1875 4.03125 16.8438 4.46875 17C5 17.1562 5.28125 16.6562 5.78125 16.125C6.0625 15.8125 6.4375 15.4062 6.71875 15.0625C9.28125 15.2812 11.25 14.7812 11.5 14.7188C12 14.5312 14.9375 14.1562 15.4062 10.2812C15.9062 6.25 15.1875 3.71875 13.875 2.5625ZM14.2812 9.96875C13.9062 13.2188 11.5 13.4375 11.0625 13.5938C10.875 13.625 9.15625 14.0625 6.96875 13.9375C6.96875 13.9375 5.34375 15.875 4.84375 16.4062C4.6875 16.5625 4.5 16.5625 4.5 16.2188C4.5 16 4.5 13.5312 4.5 13.5312C1.34375 12.6562 1.53125 9.34375 1.5625 7.625C1.59375 5.875 1.90625 4.46875 2.875 3.5C4.625 1.90625 8.21875 2.15625 8.21875 2.15625C11.25 2.15625 12.6875 3.09375 13.0312 3.375C14.1562 4.34375 14.7188 6.625 14.2812 9.96875ZM9.9375 7.46875C9.90625 6.5625 9.4375 6.0625 8.5625 6C8.28125 6 8.25 6.40625 8.53125 6.40625C9.1875 6.46875 9.5 6.78125 9.5625 7.46875C9.5625 7.75 9.96875 7.71875 9.9375 7.46875ZM10.5938 7.8125C10.5938 8.0625 11 8.09375 11 7.8125C11.0312 6.3125 10.0625 5.0625 8.25 4.9375C7.96875 4.90625 7.9375 5.3125 8.21875 5.34375C9.78125 5.4375 10.625 6.5 10.5938 7.8125ZM12.0625 8.21875C12.0312 5.5 10.1875 3.90625 7.875 3.875C7.625 3.875 7.625 4.28125 7.875 4.28125C9.9375 4.3125 11.625 5.6875 11.6562 8.21875C11.6562 8.5 12.0625 8.5 12.0625 8.21875ZM11.6875 11.2812C11.8438 11 11.8125 10.75 11.5938 10.5625C11.1875 10.1875 10.625 9.78125 10.1562 9.53125C9.8125 9.34375 9.46875 9.46875 9.3125 9.65625L9.03125 10.0312C8.875 10.2188 8.59375 10.1875 8.59375 10.1875C6.5 9.65625 5.9375 7.5625 5.9375 7.5625C5.9375 7.5625 5.9375 7.28125 6.125 7.125L6.5 6.8125C6.6875 6.65625 6.78125 6.3125 6.59375 5.96875C6.5 5.78125 6.28125 5.4375 6.125 5.25C5.96875 5 5.5625 4.5625 5.5625 4.5625C5.40625 4.3125 5.125 4.28125 4.84375 4.4375H4.8125C4.21875 4.75 3.5625 5.40625 3.78125 6.03125C3.78125 6.03125 3.9375 6.59375 4.59375 7.78125C4.90625 8.375 5.25 8.84375 5.5625 9.25C5.90625 9.6875 6.375 10.1562 6.875 10.5625C7.875 11.3438 9.40625 12.1562 10.0625 12.3438H10.0938C10.7188 12.5625 11.375 11.9062 11.6875 11.3125V11.2812Z" fill="#080508"/>
</svg>
