<svg width="14" height="16" viewBox="0 0 14 16" fill="none" xmlns="http://www.w3.org/2000/svg">
    <path d="M6.53602 0.0224009C5.49409 0.190283 4.62266 0.852219 4.17274 1.81155C3.95488 2.27682 3.8649 2.71811 3.8649 3.37045V3.91247H2.79929C1.67212 3.91247 1.50162 3.94125 1.43058 4.13792C1.36901 4.29141 -0.0233815 15.1078 0.000298617 15.2134C0.0145067 15.2661 0.185004 15.4628 0.379181 15.6546L0.729647 16H6.98594H13.2375L13.4885 15.7746C13.7821 15.5107 14 15.2469 14 15.1558C14 15.0167 12.5792 4.20507 12.5508 4.12832C12.4797 3.94125 12.2998 3.91247 11.1821 3.91247H10.1165V3.37045C10.1165 2.72291 10.0265 2.27682 9.81335 1.82594C9.425 0.996118 8.77616 0.415724 7.93315 0.147113C7.53058 0.0223999 6.91016 -0.0351582 6.53602 0.0224009ZM7.76739 0.890592C8.14627 1.0201 8.45885 1.23115 8.74301 1.54773C9.2024 2.05617 9.35869 2.51665 9.35869 3.34647V3.91247H6.99068H4.62266V3.41842C4.62266 3.14981 4.65581 2.79006 4.6937 2.62218C4.89735 1.74919 5.58881 1.04408 6.45077 0.818643C6.81071 0.727506 7.39798 0.756286 7.76739 0.890592ZM11.8877 4.80945C11.9304 5.03009 13.1949 14.7817 13.1949 14.9016C13.1949 14.9591 13.1475 15.0599 13.0907 15.1222L12.9912 15.2325H6.99068H0.994865L0.871728 15.0982L0.753327 14.9687L1.43058 9.83632C1.79999 7.0111 2.10783 4.69912 2.10783 4.68953C2.11257 4.68473 4.30535 4.67994 6.98594 4.67994H11.8593L11.8877 4.80945Z" fill="#515855"/>
</svg>
