<svg width="50" height="50" fill="none" xmlns="http://www.w3.org/2000/svg"><path d="M34.016 17.87l-.025-.061-1.749-4.43 1.774 4.491zm0 0l.052-.04m-.052.04l.052-.04m0 0a10.651 10.651 0 0 1 1.587-1.014c3.58-1.803 6.661-.976 8.859.312 2.141 1.255 3.44 2.948 3.528 3.065v.001l.005.007a.633.633 0 0 1-.603 1.001h-.001a9.668 9.668 0 0 0-2.595.073h0a5.197 5.197 0 0 0-4.309 5.552c.205 3.058-.203 8.767-5.222 12.706-3.111 2.44-6.649 2.776-9.715 2.34-3.067-.436-5.657-1.644-6.866-2.286l-.047-.025-.022.049a15.887 15.887 0 0 1-7.788 7.896h0a.63.63 0 0 1-.55 0h0c-7.706-3.686-8.47-10.895-8.498-11.196a.634.634 0 0 1 .631-.693c6.911 0 13.104-2.036 18.878-6.215l.088-.064-.106-.025c-7.73-1.829-12.59-6.505-15.521-10.745-2.933-4.24-3.936-8.043-3.954-8.117h0a.633.633 0 0 1 .615-.79h7.888m23.72 8.168L10.35 9.663m0 0l-.018-.064m.018.064l-.018-.064m0 0a26.337 26.337 0 0 1-1.014-6.54.634.634 0 0 1 .793-.608l.22 7.148zm.293-5.601v-.039 0l.05-.003.012-.045L23.633 7.27h0a10.98 10.98 0 0 1 7.43 6.575h0l1.912 4.836.013.033-.027.023a43.61 43.61 0 0 0-1.958 1.84l-.041.041-.034-.047-4.297-5.89a12.25 12.25 0 0 0-9.868-5.02s0 0 0 0m-6.14-5.663l6.14 5.614v.05m-6.14-5.664h.004m-.003 0h.003m6.136 5.664h-5.098l-.01-.036a27.973 27.973 0 0 1-1.028-5.628m6.136 5.664l-6.136-5.664m34.019 16.026l.042-.007v0c.422-.067.848-.109 1.276-.127l.116-.005-.084-.08c-1.669-1.617-5.25-4.136-9.771-1.855-1.517.764-3.183 2.373-4.892 4.087h0a.616.616 0 0 1-.497.184h0a.635.635 0 0 1-.464-.258h0l-4.765-6.537h0a10.98 10.98 0 0 0-8.844-4.496h0H3.32l.023.066c.396 1.14.867 2.25 1.411 3.327l.014.027h7.372a.634.634 0 0 1 0 1.268H5.445l.042.074c.66 1.16 1.4 2.272 2.214 3.329l.015.02h7.94a.634.634 0 1 1 0 1.266H8.76l.073.084a25.265 25.265 0 0 0 3.555 3.328l.014.01h6.676a.634.634 0 0 1 0 1.268h-4.864l.15.093a24.613 24.613 0 0 0 8.678 3.287.633.633 0 0 1 .278 1.123c-6.129 4.796-12.696 7.213-20.055 7.376l-.06.001.013.06a13.6 13.6 0 0 0 7.362 9.282l.022.01.023-.011c5.589-2.847 7.106-7.701 7.122-7.756h0a.636.636 0 0 1 .94-.358h0c.048.029 2.364 1.425 5.489 2.17 3.124.746 7.068.843 10.36-1.739 4.335-3.402 4.97-8.202 4.74-11.624h0a6.458 6.458 0 0 1 5.37-6.887zM28.973 8.722a12.251 12.251 0 0 1 3.27 4.657l-8.291-7.335a12.25 12.25 0 0 1 5.02 2.678zM10.11 2.45l13.842 3.593L10.109 2.45z" fill="#080508" stroke="#fff" stroke-width=".1"/><path d="M39.931 20.073a.828.828 0 1 0 0-1.656.828.828 0 0 0 0 1.656z" fill="#080508"/></svg>