<svg width="56" height="45" fill="none" xmlns="http://www.w3.org/2000/svg"><mask id="a" fill="#fff"><path fill-rule="evenodd" clip-rule="evenodd" d="M45.83 17.822a3.733 3.733 0 0 0-5.224.394l-7.463 8.457a11.777 11.777 0 0 0-2.505 11.076l.653 2.284v4.01a.957.957 0 1 0 1.914 0v-4.144a.954.954 0 0 0-.037-.263l-.69-2.413a9.872 9.872 0 0 1 2.1-9.284l7.463-8.456a1.83 1.83 0 0 1 2.56-.194 1.84 1.84 0 0 1 .293 2.512l-5.28 7.069a.957.957 0 1 0 1.533 1.145l5.28-7.068c.665-.89.877-1.982.67-2.996l1.426-1.598c.33-.37.512-.847.512-1.343V4.41c0-1.083.88-1.963 1.963-1.963 1.083 0 1.963.88 1.963 1.963v17.552c0 3.186-.809 6.348-2.34 9.143l-3.938 7.192a.957.957 0 0 0-.118.46v5.286a.957.957 0 1 0 1.914 0v-5.041l3.821-6.978a21.007 21.007 0 0 0 2.575-10.062V4.41A3.881 3.881 0 0 0 50.998.533a3.881 3.881 0 0 0-3.877 3.877v12.6c0 .025-.009.05-.026.069l-.939 1.052a3.779 3.779 0 0 0-.326-.31z"/></mask><path fill-rule="evenodd" clip-rule="evenodd" d="M45.83 17.822a3.733 3.733 0 0 0-5.224.394l-7.463 8.457a11.777 11.777 0 0 0-2.505 11.076l.653 2.284v4.01a.957.957 0 1 0 1.914 0v-4.144a.954.954 0 0 0-.037-.263l-.69-2.413a9.872 9.872 0 0 1 2.1-9.284l7.463-8.456a1.83 1.83 0 0 1 2.56-.194 1.84 1.84 0 0 1 .293 2.512l-5.28 7.069a.957.957 0 1 0 1.533 1.145l5.28-7.068c.665-.89.877-1.982.67-2.996l1.426-1.598c.33-.37.512-.847.512-1.343V4.41c0-1.083.88-1.963 1.963-1.963 1.083 0 1.963.88 1.963 1.963v17.552c0 3.186-.809 6.348-2.34 9.143l-3.938 7.192a.957.957 0 0 0-.118.46v5.286a.957.957 0 1 0 1.914 0v-5.041l3.821-6.978a21.007 21.007 0 0 0 2.575-10.062V4.41A3.881 3.881 0 0 0 50.998.533a3.881 3.881 0 0 0-3.877 3.877v12.6c0 .025-.009.05-.026.069l-.939 1.052a3.779 3.779 0 0 0-.326-.31z" fill="#080508"/><path d="M40.606 18.216l-.3-.264.3.264zm5.224-.395l.256-.306-.256.306zm-12.687 8.852l.3.264-.3-.264zm-2.505 11.076l-.385.11.385-.11zm.653 2.284l.384-.11.016.054v.056h-.4zm1.877-.397l-.385.11.385-.11zm-.69-2.413l-.384.11.384-.11zm2.1-9.284l.3.265-.3-.265zm7.463-8.456l-.3-.265.3.265zm2.56-.194l-.257.307.257-.307zm.293 2.512l-.32-.239.32.24zm-5.28 7.069l.32.24-.32-.24zm.193 1.34l-.24.32.24-.32zm1.34-.195l-.321-.24.32.24zm5.28-7.068l-.32-.24.32.24zm.67-2.996l-.391.08-.04-.197.133-.15.299.267zm1.426-1.598l.299.266-.299-.266zm4.438-7.448h.4-.4zm-2.34 20.2l.351.192-.35-.192zm-3.938 7.192l-.351-.192.35.192zm1.796.705h-.4V38.9l.05-.09.35.192zm3.821-6.978l-.35-.192.35.192zm-5.205-14.945l-.298-.267.298.267zm-.939 1.052l.299.266-.29.326-.3-.318.291-.274zm-5.85-.18a4.133 4.133 0 0 1 5.78-.436l-.513.613a3.333 3.333 0 0 0-4.667.353l-.6-.53zm-7.463 8.457l7.463-8.456.6.529-7.463 8.456-.6-.529zm-2.59 11.45a12.177 12.177 0 0 1 2.59-11.45l.6.53a11.377 11.377 0 0 0-2.42 10.701l-.77.22zm.653 2.285l-.652-2.284.769-.22.652 2.284-.769.22zm-.015 3.9v-4.01h.8v4.01h-.8zm1.357 1.357c-.75 0-1.357-.608-1.357-1.357h.8c0 .308.249.557.557.557v.8zm1.357-1.357c0 .75-.608 1.357-1.357 1.357v-.8c.307 0 .557-.25.557-.557h.8zm0-4.144v4.144h-.8v-4.144h.8zm-.053-.373c.035.121.053.247.053.373h-.8a.553.553 0 0 0-.022-.153l.77-.22zm-.689-2.413l.69 2.413-.77.22-.69-2.413.77-.22zm2.015-8.91a9.472 9.472 0 0 0-2.015 8.91l-.77.22a10.272 10.272 0 0 1 2.185-9.659l.6.53zm7.463-8.456l-7.463 8.457-.6-.53 7.463-8.456.6.53zm2.003-.151a1.43 1.43 0 0 0-2.003.151l-.6-.53a2.23 2.23 0 0 1 3.117-.235l-.514.614zm.23 1.966a1.44 1.44 0 0 0-.23-1.966l.514-.614a2.24 2.24 0 0 1 .357 3.059l-.641-.479zm-5.281 7.068l5.28-7.068.642.479-5.281 7.068-.641-.479zm.275 1.9a1.357 1.357 0 0 1-.275-1.9l.64.48a.557.557 0 0 0 .114.779l-.48.64zm1.899-.275c-.449.6-1.299.723-1.9.275l.48-.641a.557.557 0 0 0 .779-.113l.641.479zm5.28-7.069l-5.28 7.069-.641-.48 5.281-7.067.64.478zm.743-3.315a4.147 4.147 0 0 1-.742 3.315l-.641-.479a3.35 3.35 0 0 0 .599-2.677l.784-.16zm1.332-1.252l-1.426 1.598-.597-.533 1.426-1.598.597.533zm.613-1.61c0 .595-.218 1.166-.613 1.61l-.597-.532c.264-.297.41-.68.41-1.077h.8zm0-12.6v12.6h-.8V4.41h.8zm1.563-1.562c-.861 0-1.563.701-1.563 1.563h-.8a2.365 2.365 0 0 1 2.363-2.363v.8zm1.563 1.563c0-.862-.701-1.563-1.563-1.563v-.8a2.365 2.365 0 0 1 2.363 2.363h-.8zm0 6.494V4.41h.8v6.494h-.8zm0 .002v-.002h.8l-.8.002zm0 11.056V10.905h.8v11.057h-.8zm-2.29 8.95a18.689 18.689 0 0 0 2.29-8.95h.8c0 3.253-.826 6.481-2.389 9.335l-.701-.384zm-3.94 7.193l3.94-7.192.701.384-3.938 7.192-.702-.384zm-.166.652c0-.228.057-.452.167-.652l.702.385a.558.558 0 0 0-.069.267h-.8zm0 5.286v-5.286h.8v5.286h-.8zm1.357 1.357c-.75 0-1.357-.608-1.357-1.357h.8c0 .308.25.557.557.557v.8zm1.357-1.357c0 .75-.607 1.357-1.357 1.357v-.8c.308 0 .557-.25.557-.557h.8zm0-5.041v5.041h-.8v-5.041h.8zm3.772-6.786l-3.821 6.978-.702-.384 3.821-6.978.702.384zm2.624-10.254a21.4 21.4 0 0 1-2.624 10.254l-.702-.384a20.606 20.606 0 0 0 2.526-9.87h.8zm0-11.058v11.058h-.8V10.904h.8zm0-1.047v1.047h-.8V9.857h.8zm0-5.447v5.447h-.8V4.41h.8zM50.998.133a4.281 4.281 0 0 1 4.277 4.277h-.8A3.481 3.481 0 0 0 50.998.933v-.8zM46.721 4.41A4.281 4.281 0 0 1 50.998.133v.8a3.481 3.481 0 0 0-3.477 3.477h-.8zm0 12.6V4.41h.8v12.6h-.8zm.076-.198a.297.297 0 0 0-.076.198h.8a.503.503 0 0 1-.128.335l-.596-.533zm-.94 1.053l.94-1.052.597.532-.94 1.052-.596-.532zm.23-.35c.13.109.25.224.36.342l-.582.548a3.365 3.365 0 0 0-.292-.277l.513-.613z" fill="#fff" mask="url(#a)"/><mask id="b" fill="#fff"><path fill-rule="evenodd" clip-rule="evenodd" d="M10.19 17.822a3.733 3.733 0 0 1 5.224.394l7.463 8.457a11.777 11.777 0 0 1 2.504 11.076l-.652 2.284v4.01a.957.957 0 1 1-1.914 0v-4.144c0-.09.012-.178.037-.263l.69-2.413a9.872 9.872 0 0 0-2.1-9.284l-7.463-8.456a1.83 1.83 0 0 0-2.56-.194 1.84 1.84 0 0 0-.294 2.512l5.281 7.069a.957.957 0 0 1-1.533 1.145l-5.28-7.068a3.746 3.746 0 0 1-.671-2.996l-1.426-1.598a2.016 2.016 0 0 1-.512-1.343V4.41c0-1.083-.88-1.963-1.963-1.963-1.082 0-1.963.88-1.963 1.963v17.552c0 3.186.81 6.348 2.34 9.143l3.939 7.192a.957.957 0 0 1 .117.46v5.286a.957.957 0 1 1-1.913 0v-5.041l-3.822-6.978a21.007 21.007 0 0 1-2.574-10.062V4.41A3.881 3.881 0 0 1 5.02.533 3.881 3.881 0 0 1 8.898 4.41v12.6c0 .025.01.05.027.069l.938 1.052c.102-.108.21-.212.327-.31z"/></mask><path fill-rule="evenodd" clip-rule="evenodd" d="M10.19 17.822a3.733 3.733 0 0 1 5.224.394l7.463 8.457a11.777 11.777 0 0 1 2.504 11.076l-.652 2.284v4.01a.957.957 0 1 1-1.914 0v-4.144c0-.09.012-.178.037-.263l.69-2.413a9.872 9.872 0 0 0-2.1-9.284l-7.463-8.456a1.83 1.83 0 0 0-2.56-.194 1.84 1.84 0 0 0-.294 2.512l5.281 7.069a.957.957 0 0 1-1.533 1.145l-5.28-7.068a3.746 3.746 0 0 1-.671-2.996l-1.426-1.598a2.016 2.016 0 0 1-.512-1.343V4.41c0-1.083-.88-1.963-1.963-1.963-1.082 0-1.963.88-1.963 1.963v17.552c0 3.186.81 6.348 2.34 9.143l3.939 7.192a.957.957 0 0 1 .117.46v5.286a.957.957 0 1 1-1.913 0v-5.041l-3.822-6.978a21.007 21.007 0 0 1-2.574-10.062V4.41A3.881 3.881 0 0 1 5.02.533 3.881 3.881 0 0 1 8.898 4.41v12.6c0 .025.01.05.027.069l.938 1.052c.102-.108.21-.212.327-.31z" fill="#080508"/><path d="M15.414 18.216l.3-.264-.3.264zm-5.224-.395l-.257-.306.257.306zm12.687 8.852l-.3.264.3-.264zm2.504 11.076l.385.11-.385-.11zm-.652 2.284l-.385-.11-.015.054v.056h.4zm-1.877-.397l.384.11-.384-.11zm.69-2.413l.384.11-.385-.11zm-2.1-9.284l-.3.265.3-.265zm-7.463-8.456l.3-.265-.3.265zm-2.56-.194l.256.307-.257-.307zm-.294 2.512l.32-.239-.32.24zm5.281 7.069l-.32.24.32-.24zm-.194 1.34l.24.32-.24-.32zm-1.339-.195l.32-.24-.32.24zm-5.28-7.068l.32-.24-.32.24zm-.671-2.996l.392.08.04-.197-.134-.15-.298.267zm-1.426-1.598l-.298.266.298-.266zM5.398 31.105l-.35.192.35-.192zm3.939 7.192l.35-.192-.35.192zm-1.796.705h.4V38.9l-.05-.09-.35.192zm-3.822-6.978l.351-.192-.35.192zm5.206-14.945l.298-.267-.298.267zm.938 1.052l-.298.266.29.326.3-.318-.292-.274zm5.85-.18a4.133 4.133 0 0 0-5.78-.436l.514.613a3.333 3.333 0 0 1 4.667.353l.6-.53zm7.464 8.457l-7.464-8.456-.6.529 7.464 8.456.6-.529zm2.589 11.45a12.176 12.176 0 0 0-2.59-11.45l-.6.53a11.377 11.377 0 0 1 2.42 10.701l.77.22zm-.653 2.285l.653-2.284-.77-.22-.652 2.284.77.22zm.016 3.9v-4.01h-.8v4.01h.8zM23.772 45.4c.75 0 1.357-.608 1.357-1.357h-.8c0 .308-.25.557-.557.557v.8zm-1.357-1.357c0 .75.607 1.357 1.357 1.357v-.8a.557.557 0 0 1-.557-.557h-.8zm0-4.144v4.144h.8v-4.144h-.8zm.052-.373a1.355 1.355 0 0 0-.052.373h.8a.56.56 0 0 1 .021-.153l-.769-.22zm.69-2.413l-.69 2.413.77.22.689-2.413-.77-.22zm-2.015-8.91a9.472 9.472 0 0 1 2.015 8.91l.769.22c.97-3.398.154-7.01-2.184-9.659l-.6.53zm-7.463-8.456l7.463 8.457.6-.53-7.464-8.456-.6.53zm-2.004-.151a1.43 1.43 0 0 1 2.004.151l.6-.53a2.23 2.23 0 0 0-3.117-.235l.513.614zm-.23 1.966a1.44 1.44 0 0 1 .23-1.966l-.514-.614a2.24 2.24 0 0 0-.356 3.059l.64-.479zm5.282 7.068l-5.281-7.068-.641.479 5.28 7.068.642-.479zm-.275 1.9c.6-.449.723-1.3.275-1.9l-.641.48a.557.557 0 0 1-.113.779l.479.64zm-1.9-.275c.45.6 1.3.723 1.9.275l-.479-.641a.557.557 0 0 1-.78-.113l-.64.479zm-5.28-7.069l5.28 7.069.642-.48-5.282-7.067-.64.478zm-.742-3.315a4.147 4.147 0 0 0 .742 3.315l.64-.479a3.346 3.346 0 0 1-.598-2.677l-.784-.16zm-1.332-1.252l1.425 1.598.597-.533-1.425-1.598-.597.533zm-.614-1.61c0 .595.218 1.166.614 1.61l.597-.532a1.616 1.616 0 0 1-.41-1.077h-.8zm0-12.6v12.6h.8V4.41h-.8zM5.021 2.848c.862 0 1.563.701 1.563 1.563h.8a2.365 2.365 0 0 0-2.363-2.363v.8zM3.458 4.41c0-.862.702-1.563 1.563-1.563v-.8A2.365 2.365 0 0 0 2.658 4.41h.8zm0 5.75V4.41h-.8v5.75h.8zm0 .001h-.8.8zm0 11.801v-11.8h-.8v11.8h.8zm2.29 8.95a18.689 18.689 0 0 1-2.29-8.95h-.8c0 3.253.826 6.481 2.39 9.335l.7-.384zm3.94 7.193l-3.94-7.192-.7.384 3.938 7.192.702-.384zm.166.652c0-.228-.057-.452-.166-.652l-.702.385a.557.557 0 0 1 .068.267h.8zm0 5.286v-5.286h-.8v5.286h.8zM8.497 45.4c.75 0 1.357-.608 1.357-1.357h-.8a.557.557 0 0 1-.557.557v.8zm-1.356-1.357c0 .75.607 1.357 1.356 1.357v-.8a.557.557 0 0 1-.556-.557h-.8zm0-5.041v5.041h.8v-5.041h-.8zm-3.773-6.786l3.822 6.978.701-.384-3.82-6.978-.703.384zM.745 21.962c0 3.574.907 7.12 2.623 10.254l.702-.384a20.606 20.606 0 0 1-2.525-9.87h-.8zm0-11.058v11.058h.8V10.904h-.8zm0-1.047v1.047h.8V9.857h-.8zm0-5.447v5.447h.8V4.41h-.8zM5.02.133A4.281 4.281 0 0 0 .745 4.41h.8A3.481 3.481 0 0 1 5.02.933v-.8zM9.298 4.41A4.281 4.281 0 0 0 5.021.133v.8A3.481 3.481 0 0 1 8.498 4.41h.8zm0 12.6V4.41h-.8v12.6h.8zm-.075-.198a.297.297 0 0 1 .075.198h-.8a.5.5 0 0 0 .128.335l.597-.533zm.939 1.053l-.939-1.052-.597.532.939 1.052.597-.532zm-.229-.35c-.13.109-.25.224-.361.342l.583.548c.092-.098.189-.19.292-.277l-.514-.613z" fill="#fff" mask="url(#b)"/></svg>