<svg width="50" height="50" fill="none" xmlns="http://www.w3.org/2000/svg"><path d="M1.517 44.32V10.685h2.8v29.317a.683.683 0 0 0 .625.683l2.242.192a46.06 46.06 0 0 1 1.84.19s0 0 0 0l-.019.149c.12.014.238.03.358.048l.253.035-8.1 3.02zm0 0h19.262l.053-.29a6.241 6.241 0 0 1-.15-.06c-.051-.02-.104-.042-.158-.062m-19.007.412l19.007-.412m0 0c-.238-.09-.48-.182-.722-.266a45.368 45.368 0 0 0-1.764-.602 56.75 56.75 0 0 0-1.02-.314h0-.002c-.25-.074-.5-.147-.75-.217h0a55.367 55.367 0 0 0-1.034-.275h0a57.02 57.02 0 0 0-.758-.188h0c-.35-.084-.703-.161-1.054-.236l-.032.146-.107-.023a39.787 39.787 0 0 0-.643-.136l7.886 2.111zm2.106-.798l1.387.579v.063h.15l.057-.139-1.594-.503zm0 0a50.545 50.545 0 0 0-15.317-3.75l15.317 3.75zm25.853 1.208h-19.25l-.054-.29.145-.057.198-.077c.251-.096.502-.188.758-.279m18.203.703l-18.152-.561m18.152.561V10.685h-2.8v29.317a.683.683 0 0 1-.627.683m3.427 3.633l-3.427-3.633m-14.776 2.93s0 0 0 0l.05.142m-.05-.142s0 0 0 0l.05.142m-.05-.142c.328-.118.657-.233.987-.345h.002l.514-.167.258-.083h0c.332-.106.663-.206.995-.305h0c.26-.077.522-.153.784-.225m-3.49 1.267c.328-.119.655-.233.985-.345l.513-.166.26-.084a52.06 52.06 0 0 1 1.772-.527m-.04-.145s0 0 0 0l.04.145m-.04-.145s0 0 0 0l.04.145m-.04-.145a38.3 38.3 0 0 1 1.012-.267l.036.145c-.341.086-.675.173-1.008.267m3.586-.853c-.206.04-.408.085-.61.129l-.145.031c-.35.075-.699.15-1.045.233l5.446-.978-.3.042-.294.042c-.412.055-.824.11-1.235.175l-.472.083-.243.042m-1.102.201c.36-.071.723-.134 1.084-.197l.018-.004m-1.102.201l-.03-.147c.363-.072.727-.135 1.088-.198l.019-.003m-1.077.348l-.029-.147a29.337 29.337 0 0 0-.758.16c-.349.075-.7.15-1.048.234l2.912-.595m.025.148l-.026-.148m.026.148l-.026-.148.244-.043.472-.082h.002a51.38 51.38 0 0 1 1.238-.177h0l.293-.041h.002c.099-.015.199-.03.3-.042h0a51.558 51.558 0 0 1 1.849-.19h0l2.134-.174h0m-6.533.749l6.545-.6-.012-.149m.627-31.517v.15h3.484c.377 0 .683.306.683.684v35a.683.683 0 0 1-.683.683H.833A.683.683 0 0 1 .15 45V10c0-.377.306-.683.683-.683h3.484V5.001h0c0-.02 0-.04.002-.06h0a.683.683 0 0 1 .738-.623s0 0 0 0l2.175.185h0A50.418 50.418 0 0 1 22.515 8.23h0l2.428 1.008.058.023.058-.024 2.43-1.01h0A50.405 50.405 0 0 1 42.769 4.5h0l2.174-.183s0 0 0 0a.702.702 0 0 1 .06-.003h0a.683.683 0 0 1 .681.686v4.167zM24.11 43.89l.208.087v-33.52l-.093-.038-2.235-.928A49.052 49.052 0 0 0 7.117 5.865s0 0 0 0L5.846 5.76l-.163-.014v33.63l.138.011 1.479.123s0 0 0 0a50.39 50.39 0 0 1 15.272 3.74h0l1.537.64zm1.574-.139v.225l.208-.086 1.63-.678h0a50.734 50.734 0 0 1 15.289-3.717l1.369-.111.138-.012V5.745l-.163.014-1.271.106s0 0 0 0a49.044 49.044 0 0 0-14.87 3.625s0 0 0 0l-2.238.929-.093.038v33.295zm3.933.267h-.047.047z" fill="#080508" stroke="#fff" stroke-width=".3"/></svg>