<svg width="60" height="60" fill="none" xmlns="http://www.w3.org/2000/svg"><path d="M28.061 22.6h0c.392-.972 1.05-1.632 2.001-2a.942.942 0 0 0 .607-.86h0a.938.938 0 0 0-.567-.884h0c-.97-.422-1.642-1.067-2.033-1.967a.934.934 0 0 0-.878-.564l.87 6.274zm0 0a.94.94 0 0 1-.877.592h-.006a.932.932 0 0 1-.868-.597l1.751.005zm-1.728-5.684h0c-.352.885-1.015 1.516-1.992 1.93h0a.942.942 0 0 0-.58.89h0a.931.931 0 0 0 .607.858l1.965-3.678zm0 0a.935.935 0 0 1 .858-.591l-.858.59zm1.09 1.37l-.207-.291-.203.294c-.325.47-.74.875-1.243 1.21l-.31.206.308.209c.48.326.887.744 1.217 1.253l.206.318.212-.315a4.49 4.49 0 0 1 1.264-1.257l.313-.206-.31-.21a4.835 4.835 0 0 1-1.247-1.21zm-1.113 4.31c-.386-.99-1.022-1.654-1.942-2.002l1.942 2.001zm13.51 16.917h0c-.969-.423-1.641-1.067-2.032-1.968a.938.938 0 0 0-.878-.564h0a.936.936 0 0 0-.858.59h0c-.352.886-1.015 1.517-1.992 1.93h0a.942.942 0 0 0-.58.892h0a.931.931 0 0 0 .607.858c.92.347 1.555 1.011 1.942 2l3.792-3.738zm0 0c.354.153.575.5.567.882h0a.941.941 0 0 1-.606.862h0c-.951.367-1.61 1.027-2.001 1.999h0m2.04-3.743l-2.04 3.743m0 0a.94.94 0 0 1-.877.592h-.006m.883-.592l-.883.592m0 0a.932.932 0 0 1-.868-.597l.868.597zm-.193-2.025l.206.319.211-.315a4.47 4.47 0 0 1 1.265-1.258l.313-.206-.31-.21a4.835 4.835 0 0 1-1.247-1.21l-.207-.292-.203.294a4.56 4.56 0 0 1-1.244 1.21l-.31.206.308.209c.482.326.888.744 1.218 1.253zm-20.099-8.92h0a.91.91 0 0 0-.853-.549h0a.91.91 0 0 0-.835.575h0c-.318.8-.918 1.368-1.8 1.742h0a.915.915 0 0 0-.562.866l4.05-2.634zm0 0c.354.814.962 1.396 1.838 1.778m-1.838-1.778l1.838 1.778m-1.845 3.5h0c.354-.876.948-1.473 1.807-1.804a.916.916 0 0 0 .589-.838l-2.395 2.642zm0 0a.914.914 0 0 1-.852.577h-.006a.906.906 0 0 1-.844-.581c-.349-.892-.922-1.493-1.752-1.806m3.455 1.81l-3.454-1.81m0 0a.906.906 0 0 1-.59-.834l.59.834zm5.298-1.69c.343.15.559.486.551.858l-.551-.858zm-2.893 2.053l.203.299.208-.296c.286-.405.63-.747 1.033-1.026l.293-.203-.291-.207a4.478 4.478 0 0 1-1.017-.987l-.203-.273-.2.275a4.22 4.22 0 0 1-1.015.988l-.291.203.288.206c.385.275.716.615.992 1.021zm17.119 6.698h0a44.569 44.569 0 0 1-2.555 1.758s0 0 0 0l-1.459.93-.134-.21.134.21a3.338 3.338 0 0 0-1.544 2.734l-.05 1.993h0a4.874 4.874 0 0 1-1.57 3.476 4.87 4.87 0 0 1-3.584 1.303s0 0 0 0l-5.828-.293a14.861 14.861 0 0 0-4.157.38s0 0 0 0l-3.692.871h0a.846.846 0 0 1-.954-.446l25.393-12.706zm0 0a.627.627 0 1 1 .746 1.008 45.838 45.838 0 0 1-2.627 1.808l.134.21-.134-.21-1.458.93a2.087 2.087 0 0 0-.966 1.708h0l-.05 1.993s0 0 0 0a6.114 6.114 0 0 1-1.971 4.363 6.113 6.113 0 0 1-4.5 1.636s0 0 0 0l-5.827-.292h0a13.6 13.6 0 0 0-3.805.346l-3.693.872h0a2.127 2.127 0 0 1-.49.058h0c-.78 0-1.51-.436-1.874-1.163a2.094 2.094 0 0 1 .872-2.785l-.12-.22.12.22 7.075-3.87h0a.627.627 0 0 1 .851.25h0a.627.627 0 0 1-.249.85h0m17.966-7.712l-17.966 7.713m0 0l-7.075 3.87m7.075-3.87l-7.075 3.87m0 0a.846.846 0 0 0-.352 1.123l.352-1.124z" fill="#000" stroke="#F5F2EF" stroke-width=".5"/><path d="M20.445 26.7a32.613 32.613 0 0 0 8.786 3.829s0 0 0 0l2.479.669.164.044.102-.136 4.544-6.108.192-.26-.3-.12-4.149-1.684h0a.627.627 0 1 1 .471-1.162h0l4.573 1.855.179.072.115-.155 2.626-3.53a6.797 6.797 0 0 1 4.7-2.69l-.026-.25.027.25a6.796 6.796 0 0 1 5.17 1.614l9.433 8.171.164-.189-.164.19a.627.627 0 0 1-.82.947l-.164.19.163-.19-9.432-8.171a5.465 5.465 0 0 0-4.214-1.316M20.445 26.7l.133-.212-.133.212s0 0 0 0zm0 0a.627.627 0 0 0-.864.2h0a.627.627 0 0 0 .2.863 33.866 33.866 0 0 0 9.123 3.976l1.81.489.356.096-.22.294-9.654 12.978s0 0 0 0a5.427 5.427 0 0 1-1.763 1.533l-1.982 1.084h0a.627.627 0 0 0-.249.85h0a.627.627 0 0 0 .851.25l1.982-1.084a6.671 6.671 0 0 0 2.167-1.884l.2.149-.2-.15 19.031-25.581a5.466 5.466 0 0 1 3.831-2.193m0 0l.027.249m-.027-.249l.027.249m0 0a5.216 5.216 0 0 1 4.023 1.256l-7.68.837a5.216 5.216 0 0 1 3.657-2.093zm13.663 26.296h0l-2.282-1.59h0a36.003 36.003 0 0 1-2.666-2.053h0a.627.627 0 1 0-.81.956h0a36.868 36.868 0 0 0 2.76 2.126l2.28 1.59.718-1.029zm0 0a.627.627 0 0 1 .155.873h0m-.155-.873l.155.873m0 0a.626.626 0 0 1-.873.156l.873-.156zM6.905 21.272h0l4.518-.595h0a.408.408 0 0 1 .365.142h0a33.826 33.826 0 0 0 4.691 4.596.623.623 0 0 0 .881-.095.627.627 0 0 0-.095-.882h0a32.581 32.581 0 0 1-4.516-4.424h0a1.653 1.653 0 0 0-1.49-.58h0l-4.518.595h0a2.16 2.16 0 0 1-1.653-.466h0a2.158 2.158 0 0 1-.8-1.52h0l-.41-5.207a15.148 15.148 0 0 0-.932-4.167s0 0 0 0l-1.36-3.595h0a1.234 1.234 0 0 1 .47-1.468l4.849 17.666zm0 0a3.394 3.394 0 0 1-2.606-.735h0a3.395 3.395 0 0 1-1.26-2.395l-.41-5.207h0a13.893 13.893 0 0 0-.856-3.823h0L.413 5.517h0a2.48 2.48 0 0 1 .947-2.954 2.48 2.48 0 0 1 3.416.628h0l6.931 9.743.204-.145-.204.145c.2.281.476.5.796.63h0l9.104 3.692h0a.627.627 0 1 1-.471 1.162h0l-9.104-3.693h0a3.062 3.062 0 0 1-1.346-1.064s0 0 0 0L3.754 3.918h0m3.15 17.354L3.755 3.918m0 0a1.234 1.234 0 0 0-1.697-.312l1.697.312z" fill="#000" stroke="#F5F2EF" stroke-width=".5"/><path d="M43.504 28.634h0a.627.627 0 0 1 .83.311 35.781 35.781 0 0 0 6.788 10.006h0a.627.627 0 1 1-.904.868h0a37.038 37.038 0 0 1-5.336-7.082l-.203-.351-.222.34c-1 1.53-2.096 3.008-3.272 4.408a.625.625 0 0 1-.883.076h0a.627.627 0 0 1-.077-.883h0a44.544 44.544 0 0 0 3.695-5.09l.074-.12-.064-.127a37.322 37.322 0 0 1-.737-1.526.627.627 0 0 1 .311-.83z" fill="#000" stroke="#F5F2EF" stroke-width=".5"/></svg>