<svg width="60" height="60" fill="none" xmlns="http://www.w3.org/2000/svg"><mask id="a" fill="#fff"><path d="M.879 60A.879.879 0 0 1 0 59.12V43.767a.88.88 0 0 1 .879-.879h3.767a.879.879 0 1 1 0 1.758H1.758V59.12a.879.879 0 0 1-.88.879zm32.108-31.437a.879.879 0 0 1-.683-1.432c.794-.98 1.024-1.906 1.086-2.258a.88.88 0 0 1 1.731.305c-.107.605-.437 1.807-1.45 3.06a.877.877 0 0 1-.684.325zm-19.612-2.741a.879.879 0 0 1-.879-.88V12.337a.879.879 0 0 1 1.758 0v12.607a.879.879 0 0 1-.879.878zm4.023-4.128a.879.879 0 0 1-.88-.878v-8.48a.879.879 0 1 1 1.758 0v8.48a.879.879 0 0 1-.878.878zm41.101 38.048l-7.923-7.923a6.203 6.203 0 0 0-8.718-.043 21.65 21.65 0 0 1-1.754 2.038c-2.515 2.594-5.78 4.824-8.958 6.12a.878.878 0 1 1-.664-1.627c5.734-2.339 12.146-8.303 12.145-12.784a.88.88 0 0 0-.879-.878H8.162a.879.879 0 1 1 0-1.758h4.334v-4.843c0-3.386.57-6.438 1.696-9.07 1.043-2.442 2.535-4.473 4.433-6.034 3.296-2.711 7.616-3.789 11.851-2.956a.88.88 0 0 1 .52 1.409c-.852 1.072-1.378 3.715-1.165 4.982a.879.879 0 1 1-1.733.291c-.222-1.318.091-3.513.806-5.138a12.462 12.462 0 0 0-9.162 2.77c-2.504 2.059-5.488 6.115-5.488 13.747v4.843h3.516v-4.843a.879.879 0 1 1 1.757 0v4.843h5.399a3.826 3.826 0 0 1-.683-2.19c0-1.424.785-2.674 1.957-3.368-2.733-1.897-4.394-4.028-5.154-6.664-.628 1.026-1.054 2.324-1.292 3.925a.88.88 0 0 1-1.739-.258c.388-2.608 1.24-4.565 2.602-5.976a16.01 16.01 0 0 1-.068-1.503.879.879 0 1 1 1.758 0c0 2.211.43 3.948 1.352 5.468 1.008 1.66 2.677 3.148 5.104 4.549a.879.879 0 0 1-.44 1.64c-1.28 0-2.322.981-2.322 2.188 0 .577.236 1.122.666 1.534a2.38 2.38 0 0 0 1.655.655h3.529a18.998 18.998 0 0 1 9.327-4.93 19.172 19.172 0 0 1 5.45-.34c1.438-2.79 2.718-6.285 2.305-7.81-.296-1.09-1.512-2.15-4.102-3.475-.433 1.169-1.256 2.439-2.297 3.08a.879.879 0 1 1-.923-1.495c.698-.431 1.333-1.46 1.629-2.354a76.46 76.46 0 0 0-2.413-1.055.879.879 0 0 1-.535-.718c-.243-2.291-.853-3.174-1.11-3.242-.363-.078-1.678.52-2.384.843-1.11.507-2.16.986-2.997.986a.879.879 0 1 1 0-1.758c.454 0 1.46-.458 2.267-.827 1.404-.641 2.616-1.195 3.564-.943 1.477.391 2.092 2.417 2.345 4.236 5.863 2.488 8.064 4.092 8.653 6.263.35 1.291.044 3.162-.936 5.718a35.196 35.196 0 0 1-1.223 2.79c1.092.198 2.169.49 3.22.877a.879.879 0 0 1-.609 1.65 17.355 17.355 0 0 0-9.546-.705 17.221 17.221 0 0 0-6.995 3.209h7.207a2.64 2.64 0 0 1 2.637 2.634c0 .985-.236 2.04-.69 3.129a7.963 7.963 0 0 1 8.123 1.925l7.924 7.924a.879.879 0 0 1-1.243 1.242zm1.243-15.426A.879.879 0 0 1 58.5 45.56l-1.172-1.171a17.389 17.389 0 0 0-3.4-2.649.879.879 0 1 1 .898-1.51 19.144 19.144 0 0 1 3.745 2.916l1.172 1.171zM21.42 19.258a.879.879 0 0 1-.879-.88v-6.042a.879.879 0 1 1 1.758 0v6.043a.879.879 0 0 1-.879.879zm-.05-9.56h-7.995a2.64 2.64 0 0 1-2.637-2.636v-.786c0-.553-.45-1.003-1.002-1.003H.879a.879.879 0 1 1 0-1.757h8.857a2.763 2.763 0 0 1 2.76 2.76v.786a.88.88 0 0 0 .88.88h7.995a.88.88 0 0 0 .878-.88 5.31 5.31 0 0 0-5.304-5.304H.88A.879.879 0 1 1 .879 0h16.066a7.07 7.07 0 0 1 7.062 7.062A2.64 2.64 0 0 1 21.37 9.7z"/></mask><path d="M.879 60A.879.879 0 0 1 0 59.12V43.767a.88.88 0 0 1 .879-.879h3.767a.879.879 0 1 1 0 1.758H1.758V59.12a.879.879 0 0 1-.88.879zm32.108-31.437a.879.879 0 0 1-.683-1.432c.794-.98 1.024-1.906 1.086-2.258a.88.88 0 0 1 1.731.305c-.107.605-.437 1.807-1.45 3.06a.877.877 0 0 1-.684.325zm-19.612-2.741a.879.879 0 0 1-.879-.88V12.337a.879.879 0 0 1 1.758 0v12.607a.879.879 0 0 1-.879.878zm4.023-4.128a.879.879 0 0 1-.88-.878v-8.48a.879.879 0 1 1 1.758 0v8.48a.879.879 0 0 1-.878.878zm41.101 38.048l-7.923-7.923a6.203 6.203 0 0 0-8.718-.043 21.65 21.65 0 0 1-1.754 2.038c-2.515 2.594-5.78 4.824-8.958 6.12a.878.878 0 1 1-.664-1.627c5.734-2.339 12.146-8.303 12.145-12.784a.88.88 0 0 0-.879-.878H8.162a.879.879 0 1 1 0-1.758h4.334v-4.843c0-3.386.57-6.438 1.696-9.07 1.043-2.442 2.535-4.473 4.433-6.034 3.296-2.711 7.616-3.789 11.851-2.956a.88.88 0 0 1 .52 1.409c-.852 1.072-1.378 3.715-1.165 4.982a.879.879 0 1 1-1.733.291c-.222-1.318.091-3.513.806-5.138a12.462 12.462 0 0 0-9.162 2.77c-2.504 2.059-5.488 6.115-5.488 13.747v4.843h3.516v-4.843a.879.879 0 1 1 1.757 0v4.843h5.399a3.826 3.826 0 0 1-.683-2.19c0-1.424.785-2.674 1.957-3.368-2.733-1.897-4.394-4.028-5.154-6.664-.628 1.026-1.054 2.324-1.292 3.925a.88.88 0 0 1-1.739-.258c.388-2.608 1.24-4.565 2.602-5.976a16.01 16.01 0 0 1-.068-1.503.879.879 0 1 1 1.758 0c0 2.211.43 3.948 1.352 5.468 1.008 1.66 2.677 3.148 5.104 4.549a.879.879 0 0 1-.44 1.64s0 0 0 0c-1.28 0-2.322.981-2.322 2.188 0 .577.236 1.122.666 1.534a2.38 2.38 0 0 0 1.655.655h3.529a18.998 18.998 0 0 1 9.327-4.93 19.172 19.172 0 0 1 5.45-.34c1.438-2.79 2.718-6.285 2.305-7.81-.296-1.09-1.512-2.15-4.102-3.475-.433 1.169-1.256 2.439-2.297 3.08a.879.879 0 1 1-.923-1.495c.698-.431 1.333-1.46 1.629-2.354a76.46 76.46 0 0 0-2.413-1.055.879.879 0 0 1-.535-.718c-.243-2.291-.853-3.174-1.11-3.242-.363-.078-1.678.52-2.384.843-1.11.507-2.16.986-2.997.986a.879.879 0 1 1 0-1.758c.454 0 1.46-.458 2.267-.827 1.404-.641 2.616-1.195 3.564-.943 1.477.391 2.092 2.417 2.345 4.236 5.863 2.488 8.064 4.092 8.653 6.263.35 1.291.044 3.162-.936 5.718a35.196 35.196 0 0 1-1.223 2.79c1.092.198 2.169.49 3.22.877a.879.879 0 0 1-.609 1.65 17.355 17.355 0 0 0-9.546-.705 17.221 17.221 0 0 0-6.995 3.209h7.207a2.64 2.64 0 0 1 2.637 2.634c0 .985-.236 2.04-.69 3.129a7.963 7.963 0 0 1 8.123 1.925l7.924 7.924v0a.879.879 0 0 1-1.243 1.242zm1.243-15.426A.879.879 0 0 1 58.5 45.56v0l-1.172-1.171a17.389 17.389 0 0 0-3.4-2.649.879.879 0 1 1 .898-1.51 19.144 19.144 0 0 1 3.745 2.916l1.172 1.171zM21.42 19.258a.879.879 0 0 1-.879-.88v-6.042a.879.879 0 1 1 1.758 0v6.043a.879.879 0 0 1-.879.879zm-.05-9.56h-7.995a2.64 2.64 0 0 1-2.637-2.636v-.786c0-.553-.45-1.003-1.002-1.003H.879a.879.879 0 1 1 0-1.757h8.857a2.763 2.763 0 0 1 2.76 2.76v.786a.88.88 0 0 0 .88.88h7.995a.88.88 0 0 0 .878-.88 5.31 5.31 0 0 0-5.304-5.304H.88A.879.879 0 1 1 .879 0h16.066a7.07 7.07 0 0 1 7.062 7.062A2.64 2.64 0 0 1 21.37 9.7z" fill="#080508" stroke="#F5F2EF" mask="url(#a)"/></svg>