<svg width="60" height="60" fill="none" xmlns="http://www.w3.org/2000/svg"><g clip-path="url(#clip0_621:11628)"><path d="M1.85 2.05C.82 2.427.152 3.282.035 4.36c-.07.667-.093.574 1.196 4.078.867 2.343 1.054 3.292 1.347 6.972.13 1.664.27 3.176.317 3.34.234.984 1.125 2.05 2.074 2.46.867.388 1.265.388 3.926.048l2.566-.317 1.793 1.817c2.227 2.25 3.152 3.023 3.633 3.023.457 0 .808-.375.808-.867 0-.352-.14-.516-1.488-1.734-.832-.739-1.922-1.817-2.437-2.39-.516-.587-1.067-1.15-1.22-1.278-.444-.34-1.23-.34-3.76 0-1.313.175-2.532.281-2.731.246-.457-.094-1.09-.574-1.313-.996-.105-.223-.246-1.336-.41-3.305-.363-4.652-.41-4.875-1.71-8.332-.481-1.277-.868-2.437-.868-2.566 0-.34.621-.926.984-.926.164 0 .457.14.645.316.187.188 1.898 2.52 3.797 5.192 1.898 2.671 3.61 5.004 3.785 5.168.48.445.762.574 5.836 2.613 4.125 1.676 4.582 1.828 4.875 1.71.305-.128.586-.538.586-.878 0-.457-.633-.785-5.239-2.637-3.398-1.37-4.78-1.98-4.98-2.203-.164-.176-1.781-2.426-3.61-5.004C6.62 5.332 4.91 3 4.652 2.73c-.75-.785-1.816-1.042-2.8-.68z" fill="#000"/><path d="M16.889 26.309c-.676 0-1.538-.684-4.008-3.18l-1.611-1.632-2.309.285c-2.683.343-3.189.364-4.205-.09-1.095-.473-2.096-1.66-2.371-2.82-.093-.398-.29-2.912-.33-3.42-.288-3.624-.46-4.518-1.316-6.832l-.127-.343C-.568 5.07-.568 5.07-.491 4.342l.003-.039a3.244 3.244 0 0 1 2.159-2.748c1.181-.436 2.47-.125 3.364.811.325.34 2.246 2.984 3.835 5.24 2.115 2.984 3.382 4.732 3.56 4.944.384.298 3.586 1.59 4.796 2.079 2.187.879 3.606 1.466 4.387 1.86.622.313 1.18.647 1.18 1.265 0 .55-.398 1.15-.907 1.364-.511.205-.808.11-5.28-1.708-5.16-2.075-5.44-2.201-5.995-2.716-.274-.256-2.511-3.355-3.857-5.249-2-2.814-3.534-4.893-3.738-5.122a.87.87 0 0 0-.273-.16c-.132.048-.373.264-.445.402.072.271.364 1.158.821 2.374 1.327 3.524 1.375 3.761 1.743 8.476.208 2.503.332 3.023.362 3.12.158.275.622.629.921.701.195.011 1.185-.062 2.575-.247 2.561-.344 3.521-.377 4.152.103l.02.017c.19.16.775.764 1.275 1.33.472.527 1.549 1.598 2.391 2.346 1.347 1.217 1.666 1.506 1.666 2.13 0 .78-.586 1.394-1.335 1.394zm-5.233-5.923l1.976 2.002c.763.77 2.792 2.82 3.262 2.866.161 0 .276-.14.276-.34 0-.124-.258-.388-1.315-1.343-.798-.708-1.91-1.799-2.476-2.43a19.196 19.196 0 0 0-1.156-1.217c-.3-.214-1.157-.185-3.363.112-.024.003-2.431.324-2.892.242l-.014-.002c-.61-.125-1.377-.706-1.673-1.267l-.01-.02c-.068-.14-.206-.432-.46-3.486-.361-4.616-.392-4.77-1.68-8.19-.148-.402-.898-2.414-.898-2.754 0-.625.86-1.453 1.511-1.453.354 0 .77.237 1.006.459l.012.012c.25.25 2.194 2.925 3.854 5.259 2.03 2.858 3.527 4.88 3.722 5.094.406.375.801.549 5.666 2.503 2.579 1.048 4.182 1.691 4.497 1.703a.614.614 0 0 0 .236-.345c-.307-.32-2.318-1.146-4.904-2.185-4.5-1.815-4.957-2.095-5.177-2.34-.25-.269-2.854-3.934-3.646-5.051C6.027 5.4 4.473 3.302 4.274 3.095c-.609-.636-1.445-.841-2.237-.55l-.003.002c-.84.305-1.377.986-1.472 1.87l-.003.037c-.052.483-.052.483 1.044 3.46l.126.342c.89 2.405 1.083 3.402 1.379 7.113.137 1.764.26 3.05.3 3.247l.004.013c.198.835.976 1.756 1.771 2.1.723.322 1 .346 3.65.007l2.823-.35zm.78-7.83l.002.002-.001-.001zm14.737 11.408h-.022c-.66-.01-1.255-.448-1.59-1.171-.299-.628-.768-1.128-1.316-1.403-.635-.328-1.218-.764-1.218-1.736 0-.852.46-1.174 1.504-1.82.448-.285.675-.504.862-.834.395-.697.699-1.114 1.171-1.323l.013-.005c.417-.17 1.476-.41 2.278 1.041.288.537.784 1.027 1.297 1.284 1.125.571 1.299 1.303 1.302 1.688.004.394-.163 1.149-1.325 1.769-.683.366-.99.68-1.363 1.395-.346.696-.942 1.115-1.593 1.115zm-.188-7.319c-.144.066-.316.244-.674.877-.274.48-.627.827-1.219 1.205-1.01.625-1.01.702-1.01.925 0 .289.03.482.641.797.751.376 1.39 1.05 1.793 1.894.163.352.407.561.652.565.247.005.492-.198.662-.54.476-.912.93-1.376 1.804-1.845.484-.259.771-.568.77-.828-.003-.245-.274-.529-.724-.757-.705-.353-1.36-.996-1.748-1.72-.427-.77-.775-.643-.947-.573zm.183 4.84a.646.646 0 0 1-.105-.01l-.27-.04-.106-.21a14.84 14.84 0 0 0-.512-.55l-.914-.97.916-.936c.733-.733.852-.733 1.033-.733h.085l.081.027c.194.065.617.454.853.681l.995.936-1.043 1.025c-.607.628-.788.78-1.013.78zm-.445-1.767l.216.229.25.26c.072-.07.153-.15.241-.242l.01-.01.264-.26-.202-.19a7.355 7.355 0 0 0-.292-.267 11.21 11.21 0 0 0-.283.271l-.204.209z" fill="#F5F2EF"/><path d="M44.7 17.098a7.194 7.194 0 0 0-3.738 1.78c-.351.329-1.277 1.454-2.062 2.52-.797 1.055-1.488 1.922-1.559 1.922-.058 0-1.16-.422-2.437-.937-2.45-.996-2.73-1.043-3.082-.551-.258.363-.211.82.094 1.102.21.187 2.296 1.101 4.101 1.78l.317.13-2.239 3.011c-1.242 1.665-2.261 3.047-2.273 3.059-.07.082-3.703-.96-5.098-1.465-1.652-.598-4.066-1.723-5.425-2.531-1.055-.633-1.372-.668-1.805-.246-.235.234-.282.363-.223.668.094.492.129.515 1.723 1.418 2.402 1.37 5.543 2.625 8.367 3.351.586.153 1.101.305 1.148.352.13.117-9.41 12.95-10.16 13.652-.34.328-1.148.867-1.816 1.23-.668.352-1.313.774-1.43.926-.398.493-.223 1.055.41 1.29.27.105.47.046 1.559-.528 1.523-.797 2.05-1.148 2.742-1.886.305-.305 4.852-6.364 10.125-13.454 5.262-7.09 9.797-13.113 10.055-13.394 1.054-1.09 2.965-1.7 4.523-1.43 1.418.235 1.887.574 7.16 5.156 2.72 2.356 5.063 4.325 5.215 4.383.586.235 1.23-.386 1.067-1.031-.047-.211-1.594-1.617-4.875-4.453-4.852-4.219-5.543-4.77-6.399-5.203-1.031-.516-2.836-.797-3.984-.621z" fill="#000"/><path d="M17.714 50.13c-.134 0-.26-.028-.396-.08-.472-.175-.8-.504-.915-.925-.11-.4-.009-.82.286-1.185.302-.38 1.583-1.057 1.596-1.063.643-.35 1.406-.863 1.695-1.142.575-.538 8.062-10.56 9.73-12.983a20.705 20.705 0 0 0-.483-.13c-2.887-.744-6.063-2.016-8.497-3.405-1.63-.922-1.838-1.04-1.979-1.778-.09-.47.01-.78.368-1.139.771-.75 1.47-.42 2.45.167 1.319.785 3.713 1.902 5.332 2.488 1.209.437 3.84 1.194 4.686 1.392l.188-.256c.41-.552 1.108-1.494 1.896-2.55l1.827-2.458c-1.392-.538-3.605-1.463-3.934-1.755-.51-.472-.58-1.226-.173-1.8.632-.885 1.345-.595 3.711.367.965.39 1.715.68 2.096.82.219-.258.638-.783 1.282-1.634.784-1.064 1.738-2.228 2.123-2.588a7.762 7.762 0 0 1 4.014-1.916h.004c1.25-.192 3.178.11 4.3.67.938.474 1.666 1.066 6.509 5.276 4.897 4.233 4.98 4.452 5.042 4.73a1.403 1.403 0 0 1-.45 1.393c-.376.33-.885.426-1.325.25-.085-.033-.361-.138-5.365-4.474-5.173-4.494-5.624-4.824-6.901-5.035-1.377-.237-3.115.308-4.051 1.27-.3.344-4.619 6.075-10.018 13.348-2.254 3.032-9.604 12.9-10.163 13.5-.769.82-1.364 1.198-2.883 1.993-.8.42-1.225.631-1.602.631zm-.206-1.527c-.037.045-.113.155-.09.243.023.08.127.163.275.218.016.006.023.01.03.01.136-.002.811-.358 1.1-.51 1.508-.788 1.97-1.104 2.602-1.78l.012-.013c.314-.336 4.459-5.845 10.075-13.395C36.292 26.934 41.29 20.28 41.6 19.94l.01-.01c1.175-1.214 3.275-1.88 4.992-1.582 1.603.265 2.226.769 7.416 5.278 2.885 2.5 4.757 4.058 5.092 4.3.095.018.177-.043.21-.07a.376.376 0 0 0 .13-.29c-.303-.373-1.89-1.799-4.718-4.244-4.895-4.256-5.522-4.74-6.291-5.131-.938-.469-2.616-.73-3.665-.57a6.71 6.71 0 0 0-3.468 1.651c-.289.271-1.183 1.345-1.99 2.44-1.61 2.137-1.682 2.137-1.98 2.137-.097 0-.217 0-2.634-.976-.901-.367-2.133-.868-2.387-.817a.497.497 0 0 0-.068.084c-.096.135-.093.288.008.394.29.19 2.17 1.02 3.945 1.69l.012.004.947.386-2.644 3.558a754.158 754.158 0 0 0-1.893 2.547c-.29.392-.37.498-.402.54-.238.277-.508.21-1.16.044-.372-.094-.869-.23-1.44-.394-.931-.267-2.295-.68-3.078-.963-1.701-.615-4.124-1.746-5.516-2.573-.927-.556-.993-.493-1.167-.322a.858.858 0 0 0-.086.096.87.87 0 0 0 .013.095c.034.18.034.18.115.248.189.154.626.402 1.349.812 2.358 1.345 5.437 2.58 8.238 3.3 1.179.307 1.285.384 1.38.48l.162.147.004.234c.001.216.002.273-1.582 2.466a401.315 401.315 0 0 1-3.323 4.52c-.494.666-4.852 6.515-5.423 7.05-.402.389-1.292.966-1.925 1.31-.667.349-1.177.7-1.275.795zm.01-.011zm41.56-20.678l.004.001-.003-.001z" fill="#F5F2EF"/><path d="M43.145 28.664c-.34.422-.317.621.175 1.582l.41.832-.867 1.313a55.937 55.937 0 0 1-1.933 2.672c-1.172 1.5-1.278 1.78-.785 2.261.41.422.831.375 1.312-.129.469-.504 2.309-2.941 2.8-3.726.188-.293.364-.54.4-.54.034 0 .292.387.573.856 1.477 2.414 4.5 6.164 5.157 6.387.386.14.761 0 1.02-.375.28-.434.152-.727-.704-1.688a37.032 37.032 0 0 1-5.695-8.343c-.27-.551-.574-1.09-.68-1.207-.281-.317-.89-.258-1.184.105z" fill="#000"/><path d="M50.677 40.753a1.39 1.39 0 0 1-.473-.085c-.952-.322-4.183-4.575-5.426-6.607a11.009 11.009 0 0 0-.135-.22c-.555.854-2.316 3.19-2.803 3.714-.374.392-.74.581-1.125.583h-.006c-.339 0-.655-.148-.94-.441-.89-.872-.31-1.614.742-2.959a55.44 55.44 0 0 0 1.911-2.641l.699-1.057-.277-.562c-.468-.916-.689-1.43-.113-2.145a1.409 1.409 0 0 1 1.053-.508c.372-.007.711.13.935.382.191.213.58.961.76 1.326a36.668 36.668 0 0 0 5.613 8.223c.703.79 1.309 1.47.753 2.327l-.008.012c-.292.427-.712.658-1.16.658zm-.11-1.075c.077.026.23.065.398-.174.042-.066.045-.089.046-.09.001-.074-.12-.299-.703-.954A37.65 37.65 0 0 1 44.535 30c-.287-.586-.542-1.017-.604-1.095-.006-.007-.05-.027-.119-.025a.355.355 0 0 0-.258.115c-.157.194-.173.214.235 1.011l.547 1.111-1.034 1.565a57.08 57.08 0 0 1-1.958 2.705c-.285.365-.951 1.218-.95 1.428 0-.005.019.035.118.131l.01.01c.077.078.147.126.19.126.057 0 .186-.067.363-.25.426-.46 2.247-2.865 2.735-3.643.358-.56.517-.786.845-.786.315 0 .44.134 1.026 1.11 1.504 2.46 4.33 5.876 4.886 6.163zm-.013-.005l.01.003a.053.053 0 0 1-.01-.003z" fill="#F5F2EF"/><path d="M15.022 32.438c-.176.187-.457.585-.633.878-.223.387-.504.645-.961.914-.363.2-.762.493-.89.657-.446.574-.223 1.324.515 1.699.633.316 1.207.867 1.5 1.441.34.668.539.868.972.95.563.105 1.055-.211 1.395-.88.328-.62.938-1.218 1.523-1.464.504-.211.774-.598.774-1.137 0-.48-.223-.75-1.113-1.312-.317-.211-.75-.61-.95-.903-.691-.972-.937-1.172-1.394-1.172-.316 0-.504.082-.738.329zm1.265 3.585l-.515.516-.504-.516-.504-.527.504-.492.492-.492.516.492.527.492-.516.527z" fill="#000"/><path d="M15.743 39.524a1.68 1.68 0 0 1-.312-.03c-.673-.127-.981-.513-1.345-1.228-.239-.468-.736-.944-1.265-1.209-.524-.266-.887-.704-.999-1.202-.1-.451.006-.91.303-1.292.205-.261.684-.592 1.046-.79.388-.23.595-.426.765-.72.184-.305.49-.746.706-.975l.003-.004c.333-.349.658-.492 1.12-.492.755 0 1.136.424 1.825 1.393.154.225.526.578.808.766.916.58 1.353.991 1.353 1.754 0 .75-.39 1.327-1.097 1.623-.464.194-.983.698-1.26 1.225-.392.762-.982 1.18-1.65 1.18zm-.335-6.724a5.98 5.98 0 0 0-.564.787c-.259.451-.593.771-1.144 1.097l-.015.008c-.36.198-.671.448-.73.52a.48.48 0 0 0-.104.412c.042.19.205.369.444.49.737.369 1.385.995 1.731 1.673.314.617.41.634.601.67.315.06.594-.143.826-.6.398-.752 1.098-1.421 1.79-1.712.312-.13.45-.33.45-.65 0-.185 0-.319-.867-.867l-.01-.007c-.34-.227-.839-.67-1.094-1.044-.67-.941-.784-.941-.959-.941-.162 0-.213.016-.355.164zm.362 4.489l-.876-.896-.869-.909.877-.856.852-.852.888.848.918.857-.898.917-.892.891zm-.261-1.78l.27.28.274-.275-.28-.265-.264.26z" fill="#F5F2EF"/><path d="M26.31 16.539c-.175.187-.456.586-.632.879-.223.387-.504.644-.961.914-.363.2-.762.492-.89.656-.446.574-.223 1.324.515 1.7.633.316 1.207.867 1.5 1.44.34.669.539.868.973.95.562.105 1.054-.211 1.394-.879.328-.621.938-1.219 1.524-1.465.503-.21.773-.597.773-1.137 0-.48-.223-.75-1.113-1.312-.317-.21-.75-.61-.95-.902-.69-.973-.937-1.172-1.394-1.172-.316 0-.504.082-.738.328zm1.266 3.586l-.515.515-.504-.515-.504-.527.504-.493.492-.492.516.492.527.492-.516.528z" fill="#000"/><path d="M27.032 23.626a1.68 1.68 0 0 1-.311-.03c-.674-.127-.983-.512-1.346-1.227-.239-.47-.736-.945-1.265-1.21-.524-.266-.887-.704-.999-1.202-.1-.451.006-.91.302-1.291.206-.262.685-.592 1.047-.791.388-.23.596-.426.765-.72.184-.306.49-.746.706-.976l.002-.004c.333-.349.657-.492 1.12-.492.755 0 1.136.425 1.825 1.394.154.225.526.577.806.765.917.58 1.354.991 1.354 1.754 0 .75-.39 1.327-1.097 1.623-.464.195-.983.699-1.261 1.225-.388.764-.977 1.182-1.648 1.182zm-.335-6.725a5.906 5.906 0 0 0-.563.787c-.26.452-.593.771-1.146 1.097l-.014.008c-.36.198-.671.448-.73.52a.48.48 0 0 0-.104.413c.042.19.205.37.444.491.737.368 1.385.994 1.731 1.673.314.616.41.633.601.67.316.058.594-.143.826-.6.398-.753 1.098-1.422 1.79-1.712.312-.13.45-.33.45-.65 0-.186 0-.32-.867-.868l-.01-.007c-.34-.226-.839-.67-1.094-1.044-.67-.941-.784-.941-.959-.941-.16 0-.213.015-.355.163zm.363 4.49l-.876-.898-.869-.909.877-.856.852-.852.888.847.918.857-.898.917-.892.893zm-.262-1.78l.27.28.274-.276-.28-.265-.264.26z" fill="#F5F2EF"/><path d="M36.469 36.856a1.439 1.439 0 0 0-.586.539c-.457.832-.88 1.289-1.453 1.605-.89.469-1.149.785-1.149 1.371s.223.844 1.172 1.395c.492.281.727.515 1.008 1.008.574.996.89 1.289 1.418 1.289.55 0 .95-.258 1.148-.75.317-.739.844-1.301 1.57-1.7.516-.27.786-.504.915-.773.34-.715.07-1.16-1.172-1.922-.445-.27-.774-.61-1.113-1.125-.27-.398-.551-.773-.633-.844-.282-.222-.739-.258-1.125-.093zm1.066 2.894l.633.61-.633.609-.62.62-.622-.608-.61-.61.587-.598c.328-.328.597-.609.62-.609.012-.012.305.246.645.586z" fill="#000"/><path d="M36.879 44.59c-.829 0-1.281-.523-1.875-1.553-.236-.412-.402-.579-.812-.813-.995-.578-1.438-.98-1.438-1.853 0-.907.524-1.36 1.43-1.837.484-.267.833-.659 1.236-1.392a1.95 1.95 0 0 1 .834-.767l.009-.003c.573-.243 1.223-.178 1.658.165l.016.013c.192.165.639.819.727.948.308.467.582.747.949.969 1.024.628 1.971 1.344 1.374 2.6-.186.388-.528.69-1.146 1.014-.624.342-1.061.814-1.33 1.439-.273.676-.87 1.07-1.632 1.07zm-.2-7.25a.95.95 0 0 0-.335.311c-.501.913-.982 1.438-1.659 1.812-.875.46-.875.65-.875.91 0 .29 0 .41.91.938.569.326.873.63 1.2 1.202.59 1.023.77 1.023.96 1.023.339 0 .541-.13.66-.42.363-.847.969-1.505 1.806-1.964.392-.205.616-.38.691-.54.144-.302.24-.502-.971-1.244-.503-.303-.886-.689-1.279-1.284a9.213 9.213 0 0 0-.538-.734c-.118-.077-.352-.1-.57-.01zm.239 4.992l-.994-.975-.982-.982.951-.97.254-.255c.194-.196.315-.319.41-.395.352-.302.724.033.887.178.138.124.3.28.462.44l1.024.986-1.028.99-.984.983zm-.493-1.964l.486.48.252-.252.246-.236-.246-.237a11.347 11.347 0 0 0-.252-.246 26.875 26.875 0 0 1-.267.27l-.219.22z" fill="#F5F2EF"/><path d="M52.751 41.438c-.316.41-.305.656.047 1.078.34.398 2.332 1.922 4.183 3.187 1.172.809 1.278.856 1.641.75.48-.14.762-.644.61-1.09-.07-.187-.727-.726-1.922-1.57a89.476 89.476 0 0 1-2.684-1.969c-1.008-.808-1.465-.902-1.875-.386z" fill="#000"/><path d="M58.38 47.023c-.415 0-.789-.258-1.698-.886-1.688-1.153-3.864-2.785-4.286-3.28-.513-.616-.53-1.135-.063-1.742l.005-.006c.245-.308.521-.475.846-.512.55-.062 1.106.282 1.772.816a89.17 89.17 0 0 0 2.657 1.949c1.946 1.373 2.045 1.64 2.112 1.815l.005.015c.117.344.088.716-.086 1.048-.18.347-.498.608-.875.718a1.37 1.37 0 0 1-.39.065zm-5.33-5.07c.001 0 .018.062.152.224.248.29 2.072 1.72 4.076 3.09.44.305.988.682 1.116.7 0 0 .019-.002.08-.02a.39.39 0 0 0 .235-.191.301.301 0 0 0 .034-.177c-.084-.095-.431-.432-1.738-1.355a89.132 89.132 0 0 1-2.703-1.984c-.698-.559-.932-.6-1.001-.594-.028.004-.08.048-.136.117-.103.135-.115.187-.115.19z" fill="#F5F2EF"/><path d="M32.638 43.219c-1.055.61-4.512 2.988-4.829 3.328-.703.727-.879 1.348-.984 3.375-.094 2.004-.21 2.508-.867 3.457a4.585 4.585 0 0 1-3.012 1.91c-.422.059-2.027.035-4.418-.082-4.406-.21-4.793-.175-8.238.633-2.39.563-2.684.574-2.824.07-.035-.14.023-.351.129-.48.117-.129 1.804-1.102 3.773-2.168 1.969-1.078 3.645-2.04 3.727-2.145.257-.328.175-.914-.165-1.183-.175-.14-.398-.246-.503-.246-.282 0-7.688 4.078-8.051 4.43-1.23 1.218-.633 3.433 1.043 3.902.55.152.773.117 4.125-.668 1.758-.41 1.992-.445 3.808-.445 1.067-.012 3.258.035 4.864.093 2.636.094 3 .082 3.633-.093 1.523-.446 3.023-1.57 3.75-2.813.703-1.207.89-1.969.984-3.973.07-1.582.117-1.886.316-2.168.13-.175 1.114-.902 2.18-1.605 2.777-1.852 2.789-1.863 2.789-2.39 0-.727-.621-1.102-1.23-.739z" fill="#000"/><path d="M7.886 58.62a2.11 2.11 0 0 1-.607-.092c-.98-.274-1.721-1.046-1.986-2.065-.26-1.003.006-2.02.713-2.72.296-.287 3.017-1.797 4.173-2.434 3.903-2.149 4.095-2.149 4.249-2.149.362 0 .758.301.833.361.566.449.686 1.365.25 1.922-.061.077-.207.265-3.889 2.282-1.86 1.008-3.177 1.77-3.57 2.025.418-.023 1.421-.258 2.119-.422 3.499-.822 3.969-.858 8.384-.646 2.524.124 3.988.133 4.32.087a4.045 4.045 0 0 0 2.65-1.686c.584-.846.686-1.261.776-3.183.106-2.02.284-2.84 1.132-3.718.4-.428 3.962-2.85 4.941-3.416.444-.262.95-.282 1.356-.051.418.238.669.703.669 1.244 0 .814-.114.89-3.024 2.83-1.07.705-1.904 1.333-2.053 1.488-.1.152-.145.45-.208 1.87-.099 2.1-.306 2.927-1.056 4.214-.8 1.369-2.393 2.566-4.058 3.053-.716.199-1.107.21-3.8.114-1.518-.054-3.744-.105-4.838-.093-1.794 0-2.002.036-3.695.431-2.395.56-3.246.755-3.78.755zm-1.15-4.116c-.427.429-.586 1.062-.422 1.693.169.652.635 1.143 1.248 1.314.408.112.564.1 3.862-.674 1.775-.414 2.032-.46 3.93-.46 1.106-.011 3.352.04 4.882.094 2.646.094 2.927.077 3.472-.074 1.391-.407 2.775-1.44 3.436-2.572.653-1.12.824-1.817.913-3.73.071-1.613.118-2.033.412-2.449.297-.404 2.237-1.686 2.32-1.741 1.533-1.022 2.46-1.64 2.55-1.822.002-.015.002-.083.002-.128 0-.157-.05-.28-.135-.328-.074-.043-.183-.026-.299.042l-.006.003c-1.073.62-4.406 2.928-4.707 3.234-.57.588-.737 1.032-.841 3.04-.094 2.006-.217 2.655-.96 3.73a5.121 5.121 0 0 1-3.364 2.132c-.7.098-3.397-.02-4.525-.076-4.318-.206-4.696-.178-8.092.62-1.254.295-1.927.437-2.363.449-.59.015-.944-.23-1.09-.75l-.003-.014c-.075-.301.018-.681.232-.942l.018-.021c.27-.296 3.305-1.95 3.912-2.277 1.892-1.036 3.277-1.834 3.582-2.04.046-.112.01-.328-.096-.412a.99.99 0 0 0-.16-.104c-1.054.47-7.19 3.855-7.708 4.263zm7.944-3.711z" fill="#F5F2EF"/></g><defs><clipPath id="clip0_621:11628"><path fill="#fff" d="M0 0h60v60H0z"/></clipPath></defs></svg>