<svg width="60" height="60" fill="none" xmlns="http://www.w3.org/2000/svg"><g clip-path="url(#clip0_621:11656)"><path d="M59.1 4.7c.5 0 .9-.4.9-.9V2.4C60 1.1 58.9 0 57.6 0h-8.2C48.1 0 47 1.1 47 2.4V8c0 1.2.8 2.2 1.9 2.5l1.8.5v7.3c0 .5.2 1 .4 1.4-.1 2.1-.8 6.4-3.9 9-.9.7-.8 2 0 2.7 1.5 1.1 2 2 3.3 2 .9 0 1.6-.5 2-1.2.9-1.9 2.5-5.9 2.6-12.4.4-.4.6-1 .6-1.6v-5.8c.4 0 1.7.9 3.1-.1.6-.5 1-1.2 1-1.9V8c0-.5-.4-.9-.9-.9s-.7.4-.7.9v2.4c0 .2-.1.4-.3.5-.4.3-.8 0-2.6-.5-1.1-.3-4.7-1.3-5.8-1.7-.4-.1-.6-.5-.6-.9V2.4c0-.3.3-.6.6-.6h8.2c.3 0 .6.3.6.6v1.5c-.1.4.3.8.8.8zm-7.9 26.8c-.1.3-.5.4-.8.2l-1.8-1.5c2.7-2.3 4-5.8 4.4-9.3h.6c-.2 5.5-1.6 8.9-2.4 10.6zm1.4-20l1.6.5v6.3c0 .2-.1.5-.3.6-.5.4-1.3.1-1.3-.6v-6.8z" fill="#000"/><path d="M50.7 34c-1.1 0-1.7-.5-2.4-1.2-.3-.3-.7-.6-1.1-.9-.5-.5-.9-1.1-.9-1.8s.3-1.3.8-1.7c2.9-2.5 3.6-6.7 3.7-8.5-.3-.5-.4-1-.4-1.6v-6.9l-1.5-.4c-1.3-.4-2.3-1.6-2.3-3V2.4c0-1.6 1.3-2.9 2.9-2.9h8.2c1.6 0 2.9 1.3 2.9 2.9v1.5c0 .8-.6 1.4-1.4 1.4-.4 0-.7-.1-1-.4-.3-.3-.4-.6-.4-1V2.4c0-.1-.1-.1-.1-.1h-8.2c-.1 0-.1.1-.1.1V8c0 .2.1.3.3.4l5.8 1.7c.6.2 1.1.3 1.5.4.6.2.7.2.7.1l.1-.1V8c0-.8.6-1.4 1.4-1.4.8 0 1.4.6 1.4 1.4v2.4c0 .9-.4 1.8-1.2 2.3-1.1.8-2.2.6-2.9.4v5.2c0 .6-.2 1.3-.6 1.8-.2 6.4-1.8 10.5-2.7 12.4-.5.9-1.4 1.5-2.5 1.5zM49.5.5c-1 0-1.9.8-1.9 1.9V8c0 1 .6 1.8 1.6 2.1l2.2.6v7.7c0 .4.1.8.4 1.2l.1.1v.2c-.1 2.4-.8 6.7-4.1 9.4-.3.2-.5.6-.5 1s.2.7.5 1c.4.3.8.7 1.2.9.8.7 1.1 1 1.8 1s1.3-.4 1.6-1c.9-1.8 2.5-5.8 2.6-12.1v-.2l.1-.1c.3-.4.5-.8.5-1.3v-6.4h.5c.2 0 .3.1.5.1.6.2 1.4.5 2.2-.2.5-.4.8-.9.8-1.5V8c0-.2-.2-.4-.4-.4s-.5.2-.5.4v2.4c0 .4-.2.7-.5.9-.5.4-.9.2-1.6 0-.3-.1-.8-.3-1.4-.4l-5.8-1.7c-.6-.2-1-.7-1-1.3V2.4c0-.6.5-1.1 1.1-1.1h8.2c.6 0 1.1.5 1.1 1.1v1.5c0 .1 0 .2.1.3.2.2.6 0 .6-.3V2.4c0-1-.8-1.9-1.9-1.9h-8.1zm1.2 31.8c-.2 0-.5-.1-.6-.2l-2-1.7v-.6l.2-.1c2.3-1.9 3.8-5.1 4.2-8.9l.1-.5.5.1h1.1v.6c-.3 5.6-1.7 9.2-2.5 10.9-.1.3-.4.5-.7.5-.1-.1-.2-.1-.3-.1zm-1.4-2.2l1.4 1.1c.6-1.2 1.5-3.4 2-6.8-.7 2.4-1.8 4.3-3.4 5.7zm4.1-10.5c-.2 0-.4 0-.5-.1-.5-.2-.7-.7-.7-1.2v-7.4l2.6.7v6.7c0 .4-.2.7-.4 1-.4.2-.7.3-1 .3zm-.3-7.4v6.1c0 .2.1.2.2.3.1 0 .2.1.3 0 .1-.1.1-.1.1-.2v-5.9l-.6-.3z" fill="#F5F2EF"/><path d="M49.3 34.9c-.1-1.2-.8-1.7-1.3-1.9-.8-.3-2.3-.5-6 1.7.3-1.4.2-2.9-.4-4.3 1.3-1.6 2.7-3.8 2.5-5.4-.1-1.2-.8-1.7-1.3-1.9-3-1.2-9.8 4.3-12.4 6.3.1-.9 0-1.8-.4-2.6 1.2-1.5 2.8-3.7 2.6-5.4-.1-1.2-.9-1.7-1.3-1.8-1.7-.7-4.5.8-6.4 2-2.9 1.8-2.8 1.9-22.8 17.9C.8 40.7 0 42.3 0 44v12.5C0 58.4 1.6 60 3.5 60h1.9c.5 0 .9-.4.9-.9s-.4-.9-.9-.9H3.5c-1 0-1.7-.8-1.7-1.7v-1.9L26.3 35c.8 4.2 5.5 4.4 8.2 2.4 1.7-1.2 4.2-3.7 5.8-5.5.5 1.7-.1 3.7-1.6 4.8 0 0-3.7 2.9-26.7 21.4H9.5c-.5 0-.9.4-.9.9 0 .6.4 1 .9 1h18.6c1.6 0 3.2-.6 4.5-1.6l6.2-4.9c.4-.3.4-.9.1-1.2-.3-.4-.9-.4-1.2-.1l-6.2 4.9c-1 .8-2.2 1.2-3.4 1.2H14.8l16.9-13.5c.2.8.4 1.5.8 1.9 1.3 1.9 4.4 2.1 6.6.9 1.3-.7 3.9-3.2 4.9-4.3.5 1.8-.1 3.8-1.6 5l-1.6 1.2c-.4.3-.4.9-.1 1.2.3.4.9.4 1.2.1l1.6-1.2c2.3-1.9 3.1-5.1 1.9-7.8 1-1.1 4.2-4.6 3.9-6.9zM25.9 23.1c3.5-2.2 4.6-2 4.8-1.9 0 0 .2.1.2.4.3 2.2-6.7 9-8.6 10.2-1.6 1-3.7.8-4.4-.1-.5-.7-.5-1.7-.5-2.1 3.6-3 5.7-4.7 8.5-6.5zm.6 9.4C25 33.7 3.2 51.2 1.8 52.4V44c0-1.2.5-2.3 1.5-3l12.5-10c.3 1.7 1.2 2.6 2.4 3.1 1.2.4 2.6.5 4 0 1.9-.7 5.2-4.1 6.5-5.6.3 2.6-2 3.8-2.2 4zm7 3.5c-1.8 1.3-4.3 1.1-5.1-.2-.4-.6-.5-1.5-.5-2.2 3.8-3 6.1-5.1 9.1-6.9 3.8-2.3 4.9-2.1 5.1-2 .1 0 .2.1.2.5.3 2.5-6.8 9.3-8.8 10.8zm5 9.8c-1.5.9-3.9 1-4.8-.3-.4-.6-.5-1.5-.5-2.1 4.7-3.8 6.2-5.1 9-6.8 3.7-2.3 4.9-2 5-2 .1 0 .2.1.2.5.5 2.4-7 9.5-8.9 10.7z" fill="#000"/><path d="M28.1 60.5H9.5c-.8 0-1.4-.6-1.4-1.4 0-.8.6-1.4 1.4-1.4h2.3l24.4-19.5c1.8-1.4 2.2-1.8 2.2-1.8 1-.8 1.6-2.1 1.5-3.3-1.6 1.7-3.6 3.7-5.1 4.8-1.8 1.3-4.3 1.7-6.1.9-1.3-.5-2.2-1.5-2.7-2.9l-23.7 19v1.6c0 .7.5 1.2 1.2 1.2h1.9c.8 0 1.4.6 1.4 1.4 0 .8-.6 1.4-1.4 1.4H3.5c-2.2 0-4-1.8-4-4V44c0-1.9.8-3.6 2.3-4.8 4.2-3.4 7.5-6 10.1-8.1 10-8.1 10.4-8.4 12.7-9.8 2.2-1.4 4.9-2.8 6.8-2.1.5.2 1.4.8 1.6 2.2.2 1.4-.7 3.2-2.5 5.5.2.5.3 1 .3 1.5 4.3-3.4 9.3-6.8 12-5.7.5.2 1.5.8 1.6 2.3.2 1.4-.7 3.3-2.4 5.5.4 1 .6 2.1.5 3.2 3.2-1.7 4.6-1.6 5.5-1.2.5.2 1.4.8 1.6 2.3.3 2.2-2 5.1-3.9 7.2 1.1 2.9.3 6.1-2.1 8.1l-1.5 1.2c-.6.5-1.5.4-1.9-.2-.2-.3-.3-.6-.3-1s.2-.7.5-.9l1.5-1.2c1.1-.9 1.7-2.2 1.6-3.6-1.1 1.1-3.1 3-4.4 3.7-2.3 1.2-5.7 1.2-7.3-1.1-.3-.4-.5-.8-.6-1.3l-15 12h11.9c1.1 0 2.2-.4 3.1-1.1l6.2-4.9c.6-.5 1.5-.4 1.9.2.5.6.4 1.5-.2 1.9l-6.2 4.9c-1.4 1.2-3.1 1.8-4.8 1.8zM9.5 58.7c-.2 0-.4.2-.4.4s.2.4.4.4h18.6c1.5 0 3-.5 4.2-1.5l6.2-4.9c.2-.1.2-.4.1-.5-.1-.2-.4-.2-.5-.1l-6.2 4.9c-1 .8-2.4 1.3-3.7 1.3H13.4l18.6-15 .2.8c.1.7.4 1.3.7 1.7 1.2 1.7 4.1 1.8 6 .8 1.2-.7 3.6-2.9 4.8-4.2l.6-.6.2.8c.6 2-.1 4.2-1.8 5.5l-1.5 1.2c-.2.1-.2.4-.1.5.1.2.4.2.5.1l1.5-1.2c2.1-1.7 2.8-4.7 1.7-7.2l-.1-.3.2-.2c2.7-3 4-5.2 3.8-6.6-.1-.7-.4-1.2-1-1.5-.4-.2-1.6-.7-5.5 1.7l-1 .6.3-1.1c.3-1.3.2-2.7-.4-3.9l-.1-.2.2-.2c1.7-2.2 2.6-3.9 2.4-5-.1-.8-.4-1.3-1-1.5-2.7-1.1-9.6 4.4-11.8 6.2l-.9.7.1-1.1c.1-.8 0-1.6-.3-2.4l-.1-.3.2-.2c2.2-2.7 2.6-4.2 2.5-5-.1-.9-.6-1.3-1-1.4-1.7-.7-4.9 1.3-5.9 2-2.3 1.4-2.7 1.7-12.6 9.8-2.9 1.9-6.2 4.6-10.4 8-1.2 1-1.9 2.5-1.9 4v12.5c0 1.6 1.3 3 3 3h1.9c.2 0 .4-.2.4-.4s-.2-.4-.4-.4H3.5c-1.2 0-2.2-1-2.2-2.2v-2.1l.2-.1 25.2-20.2.1.8c.3 1.4 1 2.5 2.3 2.9 1.5.6 3.7.3 5.2-.8 1.7-1.2 4.1-3.7 5.7-5.4l.6-.7.2.9c.5 2-.1 4.1-1.7 5.4 0 0-.5.4-2.2 1.8L12.1 58.7H9.5zm-8.2-5.3V44c0-1.3.6-2.6 1.6-3.4L16 30l.2.8c.3 1.4.9 2.3 2.1 2.7 1.1.4 2.4.4 3.6 0 1.6-.6 4.4-3.3 6.4-5.4l.7-.8.1 1.1c.3 2.6-1.5 4-2.1 4.4-.1 0-.1.1-.1.1h-.1L1.3 53.4zm14.1-21.6L3.5 41.3C2.7 42 2.3 43 2.3 44v7.3l23.9-19.2.2-.2c.5-.3 1.4-1 1.7-2.3-1.5 1.5-4.1 4.1-5.8 4.7-1.4.5-3 .6-4.3 0-1.3-.3-2.2-1.2-2.6-2.5zM36 47c-.3 0-.7 0-1-.1-.8-.2-1.4-.6-1.7-1.1-.5-.8-.6-1.9-.6-2.4v-.2l.3-.2c.9-.7 1.7-1.3 2.4-1.9 3-2.4 4.4-3.5 6.7-4.9 3.6-2.2 5-2.2 5.5-2 .3.1.5.4.5.9.4 2.8-7.6 10.2-9.2 11.2-.9.4-1.9.7-2.9.7zm-2.2-3.4c0 .4.1 1.1.4 1.6.3.4.7.6 1.1.7.9.2 2.1 0 3-.5 2-1.3 9-8.2 8.8-10.2v-.1c-.3 0-1.5.1-4.5 1.9-2.2 1.4-3.6 2.5-6.6 4.9-.7.5-1.4 1.1-2.2 1.7zm-3-6.2c-.3 0-.6 0-.9-.1-.9-.2-1.5-.6-1.9-1.2-.5-.8-.5-2-.6-2.4v-.2l2-1.6c2.8-2.3 4.9-3.9 7.3-5.5 3.6-2.3 5-2.3 5.6-2 .3.1.5.4.6.9.4 3-7.7 10.2-9.1 11.2-.9.5-2 .9-3 .9zm-2.4-3.5c0 .7.2 1.3.4 1.7.2.4.7.6 1.2.7 1 .2 2.2-.1 3.1-.7 2.5-1.8 8.9-8.3 8.7-10.3v-.1c-.3 0-1.5 0-4.6 2-2.4 1.5-4.4 3.1-7.2 5.4l-1.6 1.3zm-8.4-.8c-1.1 0-2.1-.4-2.5-1-.5-.7-.6-1.6-.6-2.2v-.4l.2-.2c.7-.6 1.4-1.1 2-1.6 2.5-2 4.3-3.5 6.6-4.9 3.4-2.1 4.7-2.1 5.2-1.9.3.1.5.4.5.8.3 2.7-7.2 9.7-8.8 10.7-.8.4-1.8.7-2.6.7zm-2.1-3.3c0 .5.1 1.2.4 1.6.5.7 2.3 1 3.7 0 2.1-1.4 8.6-7.9 8.3-9.8-.3 0-1.5.1-4.2 1.9-2.2 1.4-4 2.8-6.5 4.9-.5.4-1.1.9-1.7 1.4z" fill="#F5F2EF"/></g><defs><clipPath id="clip0_621:11656"><path fill="#fff" d="M0 0h60v60H0z"/></clipPath></defs></svg>