<svg width="60" height="60" fill="none" xmlns="http://www.w3.org/2000/svg"><g clip-path="url(#clip0_194:1704)" fill="#000" stroke="#F5F2EF" stroke-width=".5"><path d="M51.139 11.021v-.189l-.182-.051-1.845-.527a2.412 2.412 0 0 1-1.743-2.309V2.362c0-1.164.947-2.112 2.111-2.112h8.159c1.164 0 2.112.948 2.112 2.112v1.5a.629.629 0 1 1-1.258 0v0-1.5a.862.862 0 0 0-.854-.854H49.48a.862.862 0 0 0-.854.854v5.583c0 .509.34.96.83 1.1 0 0 0 0 0 0l5.82 1.66h0l.01.002c.641.156 1.083.296 1.424.405.157.05.292.092.416.127.188.053.362.09.527.08a.84.84 0 0 0 .473-.183.914.914 0 0 0 .366-.734V7.963a.629.629 0 1 1 1.258 0v2.439c0 .69-.316 1.323-.866 1.739-.594.447-1.18.485-1.68.405a4.328 4.328 0 0 1-.68-.177l-.08-.027c-.069-.023-.136-.046-.195-.064a1.177 1.177 0 0 0-.249-.053l-.268-.02v6.092a2.29 2.29 0 0 1-.53 1.467l-.056.067-.002.087c-.133 6.368-1.699 10.403-2.623 12.245a2.007 2.007 0 0 1-1.803 1.108c-.553 0-.934-.191-1.376-.535-.178-.139-.36-.298-.567-.479l-.175-.152c-.278-.241-.596-.51-.979-.792a1.531 1.531 0 0 1-.012-2.35h0c3.215-2.684 3.855-7.14 3.975-9.212l.005-.086-.048-.07a2.282 2.282 0 0 1-.403-1.298V11.02zm.259 20.577h0c.84-1.675 2.207-5.2 2.458-10.748l.013-.28-.28.019a2.373 2.373 0 0 1-.538-.027l-.261-.043-.029.263c-.38 3.486-1.692 6.931-4.345 9.146h0a.21.21 0 0 0-.043.046h0a.282.282 0 0 0-.032.06.258.258 0 0 0-.016.116.28.28 0 0 0 .102.196l1.812 1.493a.757.757 0 0 0 1.159-.24zm-2.654-1.638h.001zm3.97-18.678l-.318-.09v7.105a1.04 1.04 0 0 0 1.718.786l.002-.002c.219-.19.36-.47.36-.784v-6.513l-.182-.052-1.58-.45zm-4.826 21.935h0c-.685-.28-2.075-.485-5.763 1.693l-.509.3.139-.574a6.11 6.11 0 0 0-.428-4.084l-.068-.142.099-.123c.634-.792 1.307-1.724 1.795-2.655.492-.94.776-1.838.684-2.574-.135-1.074-.722-1.508-1.178-1.694h0c-.665-.27-1.582-.18-2.667.187-1.076.366-2.271.989-3.463 1.72-2.349 1.44-4.645 3.276-5.926 4.3l-.054.043-.46.369.055-.587a5.49 5.49 0 0 0-.348-2.514l-.053-.136.092-.113c.619-.757 1.299-1.675 1.799-2.6.504-.932.801-1.83.71-2.562-.135-1.082-.776-1.482-1.134-1.627-.754-.307-1.786-.133-2.917.307-1.118.435-2.27 1.105-3.229 1.704l-.133-.212.133.212c-2.278 1.425-2.696 1.76-12.658 9.772a9687.79 9687.79 0 0 1-10.13 8.139A5.391 5.391 0 0 0 .25 43.99v12.526a3.238 3.238 0 0 0 3.234 3.234h1.883a.629.629 0 1 0 0-1.258H3.484a1.978 1.978 0 0 1-1.976-1.976v-1.984l.093-.075 24.527-19.68.328-.264.074.415c.358 2.009 1.647 3.044 3.173 3.357 1.544.315 3.336-.112 4.64-1.068 1.681-1.234 4.143-3.665 5.726-5.422l.304-.338.122.439a4.871 4.871 0 0 1-1.64 5.094h-.001 0l-.003.003-.01.007-.036.03-.158.126-.732.588-3.782 3.033-22.013 17.66-.069.055H9.47a.629.629 0 1 0 0 1.258h18.624a6.945 6.945 0 0 0 4.331-1.523l6.167-4.948s0 0 0 0a.63.63 0 0 0-.787-.982s0 0 0 0l-6.167 4.949a5.682 5.682 0 0 1-3.544 1.246H14.07l.554-.445 16.88-13.544.326-.263.075.412c.15.808.42 1.407.713 1.824h0c.61.868 1.64 1.373 2.81 1.513a6.066 6.066 0 0 0 3.516-.664c.643-.347 1.594-1.121 2.53-1.96a56.75 56.75 0 0 0 2.353-2.246l.304-.308.115.417c.521 1.888-.105 3.986-1.69 5.258l-1.551 1.244a.63.63 0 0 0 .787.982l6.097-17.495zm0 0c.453.184 1.033.613 1.167 1.674.066.524-.062 1.136-.328 1.792-.265.654-.658 1.332-1.098 1.982-.88 1.299-1.93 2.456-2.463 3.04l-.11.122.068.15c1.167 2.569.457 5.694-1.783 7.49l.157.196-.157-.195-1.55 1.243 6.097-17.494zm-16.792-11.59c-.025-.197-.072-.34-.143-.444a.458.458 0 0 0-.216-.174c-.159-.064-.53-.133-1.288.08-.76.214-1.93.716-3.706 1.825-2.25 1.405-4.034 2.849-6.578 4.907-.61.493-1.265 1.022-1.98 1.595l-.104.083.012.134.013.178c.016.224.037.527.092.84.072.409.208.869.488 1.25.401.544 1.181.858 2.031.912a4.513 4.513 0 0 0 2.705-.706h0l.002-.002c.975-.644 3.202-2.661 5.144-4.788.974-1.065 1.884-2.168 2.535-3.15.326-.491.591-.958.766-1.38.173-.416.27-.816.227-1.16zm0 0l-.248.031m.248-.03v-.001l-.248.031m0 0c-.044-.352-.157-.397-.205-.417l.205.417zM38.68 46.02h-.001c-.774.498-1.808.77-2.76.744-.945-.026-1.873-.351-2.348-1.127v-.001c-.412-.678-.514-1.652-.524-2.248l-.002-.123.096-.077c.887-.709 1.66-1.33 2.347-1.883 2.979-2.397 4.364-3.512 6.654-4.934 1.873-1.164 3.11-1.688 3.914-1.91.803-.221 1.194-.145 1.358-.079M38.68 46.02l8.879-10.94m-8.88 10.94c.954-.617 3.3-2.714 5.364-4.948 1.035-1.12 2.007-2.283 2.704-3.324.348-.52.631-1.017.818-1.465.185-.444.288-.868.242-1.234l-.248.03m-8.88 10.941l8.88-10.94m-.145-.698l-.095.232.095-.232s0 0 0 0zm0 0c.047.02.147.062.234.184.079.111.132.266.159.483l-.248.03m-15.844 9.894c.162.704.417 1.249.698 1.648 1.322 1.882 4.418 2.123 6.648.925l-7.346-2.573zm-5.05-12.241l.021-.017.015-.018.026-.022a3.038 3.038 0 0 1 .14-.108c.071-.053.16-.12.258-.198a5.56 5.56 0 0 0 .836-.81c.582-.707 1.097-1.75.92-3.198l-.065-.54-.367.401a50.367 50.367 0 0 1-3.053 3.055 24.082 24.082 0 0 1-1.823 1.519c-.59.436-1.129.767-1.57.936-1.311.503-2.687.47-3.787.043-.59-.228-1.074-.55-1.45-1.008-.376-.459-.654-1.069-.812-1.892l-.078-.408-.324.26-12.488 10.02h0a4.141 4.141 0 0 0-1.556 3.244v8.889l.406-.325 24.751-19.824zm1.105.728l-.095.076.001.12c.007.706.13 1.634.517 2.288.43.727 1.346 1.12 2.337 1.174a4.827 4.827 0 0 0 3.082-.924c1.026-.754 3.333-2.847 5.345-5.052 1.006-1.103 1.946-2.243 2.617-3.264.335-.51.607-.998.787-1.44.177-.439.273-.858.228-1.223l-.249.031.248-.031c-.028-.223-.082-.383-.163-.497a.515.515 0 0 0-.24-.187h0c-.165-.067-.56-.144-1.372.08-.812.226-2.062.759-3.953 1.94-2.456 1.535-4.508 3.198-7.304 5.464-.562.456-1.155.936-1.787 1.445z"/></g><defs><clipPath id="clip0_194:1704"><path fill="#fff" d="M0 0h60v60H0z"/></clipPath></defs></svg>