<svg width="60" height="60" fill="none" xmlns="http://www.w3.org/2000/svg"><mask id="a" fill="#fff"><path d="M49.531 23.853l-4.09-4.09.134-.567 4.474-1.323a.8.8 0 0 0 0-1.535l-4.474-1.323-.975-4.095a.8.8 0 0 0-1.556 0l-.974 4.095-1.062.314-6.39-6.389a6.213 6.213 0 0 0-4.423-1.832 6.21 6.21 0 0 0-4.422 1.832L10.86 23.853a6.262 6.262 0 0 0 0 8.846l.746.747-.878 3.116c-.46 2.427-3.28 6.6-3.308 6.642a.8.8 0 0 0 .096 1.015l8.87 8.87a.799.799 0 0 0 1 .107l4.766-3.086a36.599 36.599 0 0 0 3.518-2.601l.103.102a6.212 6.212 0 0 0 4.422 1.832c1.67 0 3.242-.65 4.423-1.832L49.53 32.7a6.263 6.263 0 0 0 0-8.846zm-6.564-7.435a.8.8 0 0 0 .552-.582l.303-1.275.304 1.275a.8.8 0 0 0 .552.582l2.324.688-2.324.687a.8.8 0 0 0-.552.582l-.304 1.275-.303-1.275a.8.8 0 0 0-.552-.582l-2.324-.687 2.324-.688zm-21.684 32.35L17.06 51.5l-7.952-7.95c.823-1.28 2.77-4.47 3.176-6.62l3.411-12.107a1.358 1.358 0 0 1 1.482-1.113c.37.036.702.214.936.502.226.277.333.623.304.978l-1.591 6.893a.8.8 0 0 0 1.345.746l11.486-11.485a1.208 1.208 0 0 1 1.67 0c.222.223.345.52.345.835 0 .315-.123.612-.346.835l-8.45 8.45a.8.8 0 1 0 1.131 1.132L34.792 21.81a1.183 1.183 0 0 1 2.016.835c0 .315-.123.612-.346.835l-2.819 2.818-.001.002-7.965 7.964a.8.8 0 1 0 1.131 1.132l7.966-7.966a1.21 1.21 0 0 1 1.707 0c.47.472.47 1.238 0 1.709l-2.297 2.296-6.097 6.098a.8.8 0 1 0 1.13 1.13l.43-.428 5.668-5.669a1.18 1.18 0 0 1 1.632 0 1.148 1.148 0 0 1 0 1.632l-9.937 9.938a35.086 35.086 0 0 1-5.727 4.632zm27.117-17.2L33.487 46.48a4.625 4.625 0 0 1-3.292 1.363 4.622 4.622 0 0 1-3.291-1.363l-.02-.02c.428-.389.849-.784 1.257-1.192l9.937-9.938c.52-.52.807-1.212.807-1.947a2.73 2.73 0 0 0-.807-1.947 2.594 2.594 0 0 0-1.014-.618l.548-.548a2.811 2.811 0 0 0 0-3.97 2.778 2.778 0 0 0-1.055-.653l1.036-1.036a2.762 2.762 0 0 0 .814-1.966c0-.743-.289-1.441-.814-1.967a2.785 2.785 0 0 0-3.933 0l-.56.562a2.747 2.747 0 0 0-.643-1.028c-1.049-1.05-2.88-1.052-3.932 0l-9.512 9.512.975-4.225a.91.91 0 0 0 .016-.092 2.956 2.956 0 0 0-.649-2.205 2.954 2.954 0 0 0-2.026-1.086c-1.544-.145-2.917.889-3.19 2.34l-2.035 7.224-.113-.113a4.661 4.661 0 0 1 0-6.583L26.904 10.07a4.623 4.623 0 0 1 3.292-1.363c1.243 0 2.412.484 3.291 1.363l5.775 5.774-1.666.493a.8.8 0 0 0 0 1.535l4.474 1.323.974 4.095a.8.8 0 0 0 1.557 0l.405-1.702 3.395 3.395a4.663 4.663 0 0 1-.001 6.584z"/></mask><path d="M49.531 23.853l-4.09-4.09.134-.567 4.474-1.323a.8.8 0 0 0 0-1.535l-4.474-1.323-.975-4.095a.8.8 0 0 0-1.556 0l-.974 4.095-1.062.314-6.39-6.389a6.213 6.213 0 0 0-4.423-1.832 6.21 6.21 0 0 0-4.422 1.832L10.86 23.853a6.262 6.262 0 0 0 0 8.846l.746.747-.878 3.116c-.46 2.427-3.28 6.6-3.308 6.642a.8.8 0 0 0 .096 1.015l8.87 8.87a.799.799 0 0 0 1 .107l4.766-3.086a36.599 36.599 0 0 0 3.518-2.601l.103.102a6.212 6.212 0 0 0 4.422 1.832c1.67 0 3.242-.65 4.423-1.832L49.53 32.7a6.263 6.263 0 0 0 0-8.846zm-6.564-7.435a.8.8 0 0 0 .552-.582l.303-1.275.304 1.275a.8.8 0 0 0 .552.582l2.324.688-2.324.687a.8.8 0 0 0-.552.582l-.304 1.275-.303-1.275a.8.8 0 0 0-.552-.582l-2.324-.687 2.324-.688zm-21.684 32.35L17.06 51.5l-7.952-7.95c.823-1.28 2.77-4.47 3.176-6.62l3.411-12.107a1.358 1.358 0 0 1 1.482-1.113c.37.036.702.214.936.502.226.277.333.623.304.978l-1.591 6.893a.8.8 0 0 0 1.345.746l11.486-11.485a1.208 1.208 0 0 1 1.67 0c.222.223.345.52.345.835 0 .315-.123.612-.346.835 0 0 0 0 0 0l-8.45 8.45a.8.8 0 1 0 1.131 1.132L34.792 21.81a1.183 1.183 0 0 1 2.016.835c0 .315-.123.612-.346.835l-2.819 2.818-.001.002-7.965 7.964a.8.8 0 1 0 1.131 1.132l7.966-7.966a1.21 1.21 0 0 1 1.707 0c.47.472.47 1.238 0 1.709l-2.297 2.296-6.097 6.098a.8.8 0 1 0 1.13 1.13l.43-.428s0 0 0 0l5.668-5.669a1.18 1.18 0 0 1 1.632 0 1.148 1.148 0 0 1 0 1.632l-9.937 9.938a35.086 35.086 0 0 1-5.727 4.632zm27.117-17.2L33.487 46.48a4.625 4.625 0 0 1-3.292 1.363 4.622 4.622 0 0 1-3.291-1.363l-.02-.02c.428-.389.849-.784 1.257-1.192l9.937-9.938c.52-.52.807-1.212.807-1.947a2.73 2.73 0 0 0-.807-1.947 2.594 2.594 0 0 0-1.014-.618l.548-.548a2.811 2.811 0 0 0 0-3.97 2.778 2.778 0 0 0-1.055-.653l1.036-1.036a2.762 2.762 0 0 0 .814-1.966c0-.743-.289-1.441-.814-1.967a2.785 2.785 0 0 0-3.933 0l-.56.562a2.747 2.747 0 0 0-.643-1.028c-1.049-1.05-2.88-1.052-3.932 0l-9.512 9.512.975-4.225a.91.91 0 0 0 .016-.092 2.956 2.956 0 0 0-.649-2.205 2.954 2.954 0 0 0-2.026-1.086c-1.544-.145-2.917.889-3.19 2.34l-2.035 7.224-.113-.113a4.661 4.661 0 0 1 0-6.583L26.904 10.07a4.623 4.623 0 0 1 3.292-1.363c1.243 0 2.412.484 3.291 1.363l5.775 5.774-1.666.493a.8.8 0 0 0 0 1.535l4.474 1.323.974 4.095a.8.8 0 0 0 1.557 0l.405-1.702 3.395 3.395a4.663 4.663 0 0 1-.001 6.584z" fill="#000" stroke="#F5F2EF" mask="url(#a)"/><path d="M12.342 9.076a.55.55 0 1 1-1.1 0v-1.6a.55.55 0 1 1 1.1 0v1.6zm-1.1 3.2a.55.55 0 1 1 1.1 0v1.6a.55.55 0 1 1-1.1 0v-1.6zm-1.045-1.05h-1.6a.55.55 0 1 1 0-1.1h1.6a.55.55 0 1 1 0 1.1zm4.797 0h-1.6a.55.55 0 1 1 0-1.1h1.6a.55.55 0 1 1 0 1.1zm28.252 37.45a2.553 2.553 0 0 1 2.55-2.55 2.553 2.553 0 0 1 2.55 2.55 2.553 2.553 0 0 1-2.55 2.55 2.553 2.553 0 0 1-2.55-2.55zm1.1 0a1.451 1.451 0 0 0 2.9 0 1.451 1.451 0 0 0-2.9 0zm8.118-7.122v0a.605.605 0 1 1-1.21 0 .605.605 0 0 1 1.21 0z" fill="#000" stroke="#F5F2EF" stroke-width=".5"/></svg>