<svg width="60" height="60" fill="none" xmlns="http://www.w3.org/2000/svg"><mask id="a" fill="#fff"><path d="M9.06 6.568L5.82 4.671a.879.879 0 1 0-.889 1.517l3.24 1.897a.879.879 0 1 0 .888-1.517zm.961-2.171a.879.879 0 0 0 1.307-1.176L8.693.291a.88.88 0 0 0-1.307 1.176l2.635 2.93zm-3.273 5.59l-3.844-.864a.878.878 0 1 0-.385 1.715l3.844.864a.88.88 0 0 0 .385-1.715zm50.453 15.066a12.027 12.027 0 0 0-8.203-7.034l-22.75-5.736-6.405-7.222a2.165 2.165 0 0 0-2.99-.243 19.596 19.596 0 0 0-7.024 12.17 2.163 2.163 0 0 0 1.707 2.463l9.456 1.935 3.16 3.254a.879.879 0 1 0 1.26-1.224l-2.885-2.973 3.672-6.36 22.37 5.64a10.283 10.283 0 0 1 7.013 6.014 10.283 10.283 0 0 1-.57 9.222 10.283 10.283 0 0 1-7.701 5.104 10.282 10.282 0 0 1-8.715-3.067L27.919 25.998a.878.878 0 1 0-1.261 1.224l7.109 7.323a4.908 4.908 0 0 0-3.42 2.375 4.863 4.863 0 0 0-.489 3.714c.387 1.443 1.448 2.632 2.803 3.273l-3.962 6.862a6.112 6.112 0 0 0-.615 4.67 6.11 6.11 0 0 0 2.866 3.734 6.123 6.123 0 0 0 4.668.615 6.112 6.112 0 0 0 3.736-2.866l6.971-12.074a.879.879 0 1 0-1.522-.879l-6.97 12.074a4.366 4.366 0 0 1-2.67 2.048 4.364 4.364 0 0 1-3.334-.44 4.364 4.364 0 0 1-2.047-2.668 4.366 4.366 0 0 1 .439-3.334l7.522-13.028A11.996 11.996 0 0 0 46 41.902c.506 0 1.016-.031 1.528-.095a12.027 12.027 0 0 0 9.006-5.97 12.027 12.027 0 0 0 .667-10.784zM20.99 19.59l-9.102-1.863a.408.408 0 0 1-.323-.463A17.827 17.827 0 0 1 17.96 6.182a.414.414 0 0 1 .568.045l6.164 6.951-3.702 6.413zm12.55 22.794l-.523-.302A3.14 3.14 0 0 1 31.87 37.8a3.147 3.147 0 0 1 2.719-1.569c.33 0 .653.053.964.155l.91.937-2.923 5.063zm19.328-8.723c1.83-3.17.658-7.172-2.394-8.935-3.108-1.794-7.153-.693-8.935 2.394a6.548 6.548 0 0 0 2.394 8.935c3.084 1.781 7.113.762 8.935-2.394zM43.06 28c1.304-2.26 4.26-3.064 6.534-1.75 2.243 1.294 3.053 4.278 1.75 6.533a4.789 4.789 0 0 1-6.533 1.751A4.789 4.789 0 0 1 43.06 28zm-4.39 21.53a2.62 2.62 0 0 0 1.6-1.228 2.62 2.62 0 0 0 .264-2 2.619 2.619 0 0 0-1.228-1.602 2.618 2.618 0 0 0-2-.263 2.62 2.62 0 0 0-1.602 1.228 2.64 2.64 0 0 0 2.28 3.956c.228 0 .459-.03.686-.09zm-1.122-1.786a.88.88 0 1 1 1.2-.321.873.873 0 0 1-.533.41.874.874 0 0 1-.667-.089zm11.153-14.458a.879.879 0 0 0-.322-1.2l-3.232-1.866a.879.879 0 1 0-.88 1.522l3.233 1.866a.88.88 0 0 0 1.2-.322zm-12.353 20.27l-3.232-1.866a.879.879 0 1 0-.88 1.522l3.233 1.866a.876.876 0 0 0 1.2-.322.879.879 0 0 0-.321-1.2zm9.678-24.859l3.232 1.867a.879.879 0 1 0 .879-1.522l-3.232-1.867a.879.879 0 1 0-.88 1.522z"/></mask><path d="M9.06 6.568L5.82 4.671a.879.879 0 1 0-.889 1.517l3.24 1.897a.879.879 0 1 0 .888-1.517zm.961-2.171a.879.879 0 0 0 1.307-1.176L8.693.291a.88.88 0 0 0-1.307 1.176l2.635 2.93zm-3.273 5.59l-3.844-.864a.878.878 0 1 0-.385 1.715l3.844.864a.88.88 0 0 0 .385-1.715zm50.453 15.066a12.027 12.027 0 0 0-8.203-7.034l-22.75-5.736-6.405-7.222a2.165 2.165 0 0 0-2.99-.243 19.596 19.596 0 0 0-7.024 12.17 2.163 2.163 0 0 0 1.707 2.463l9.456 1.935 3.16 3.254a.879.879 0 1 0 1.26-1.224l-2.885-2.973 3.672-6.36 22.37 5.64a10.283 10.283 0 0 1 7.013 6.014 10.283 10.283 0 0 1-.57 9.222 10.283 10.283 0 0 1-7.701 5.104 10.282 10.282 0 0 1-8.715-3.067L27.919 25.998a.878.878 0 1 0-1.261 1.224l7.109 7.323a4.908 4.908 0 0 0-3.42 2.375 4.863 4.863 0 0 0-.489 3.714c.387 1.443 1.448 2.632 2.803 3.273l-3.962 6.862a6.112 6.112 0 0 0-.615 4.67 6.11 6.11 0 0 0 2.866 3.734 6.123 6.123 0 0 0 4.668.615 6.112 6.112 0 0 0 3.736-2.866l6.971-12.074a.879.879 0 1 0-1.522-.879l-6.97 12.074a4.366 4.366 0 0 1-2.67 2.048 4.364 4.364 0 0 1-3.334-.44 4.364 4.364 0 0 1-2.047-2.668 4.366 4.366 0 0 1 .439-3.334l7.522-13.028A11.996 11.996 0 0 0 46 41.902c.506 0 1.016-.031 1.528-.095a12.027 12.027 0 0 0 9.006-5.97 12.027 12.027 0 0 0 .667-10.784zM20.99 19.59l-9.102-1.863a.408.408 0 0 1-.323-.463A17.827 17.827 0 0 1 17.96 6.182a.414.414 0 0 1 .568.045l6.164 6.951-3.702 6.413zm12.55 22.794l-.523-.302A3.14 3.14 0 0 1 31.87 37.8a3.147 3.147 0 0 1 2.719-1.569c.33 0 .653.053.964.155l.91.937-2.923 5.063zm19.328-8.723c1.83-3.17.658-7.172-2.394-8.935-3.108-1.794-7.153-.693-8.935 2.394a6.548 6.548 0 0 0 2.394 8.935c3.084 1.781 7.113.762 8.935-2.394zM43.06 28c1.304-2.26 4.26-3.064 6.534-1.75 2.243 1.294 3.053 4.278 1.75 6.533a4.789 4.789 0 0 1-6.533 1.751A4.789 4.789 0 0 1 43.06 28zm-4.39 21.53a2.62 2.62 0 0 0 1.6-1.228 2.62 2.62 0 0 0 .264-2 2.619 2.619 0 0 0-1.228-1.602 2.618 2.618 0 0 0-2-.263 2.62 2.62 0 0 0-1.602 1.228 2.64 2.64 0 0 0 2.28 3.956c.228 0 .459-.03.686-.09zm-1.122-1.786a.88.88 0 1 1 1.2-.321v0a.873.873 0 0 1-.533.41.874.874 0 0 1-.667-.089zm11.153-14.458a.879.879 0 0 0-.322-1.2l-3.232-1.866a.879.879 0 1 0-.88 1.522l3.233 1.866a.88.88 0 0 0 1.2-.322zm-12.353 20.27l-3.232-1.866a.879.879 0 1 0-.88 1.522l3.233 1.866a.876.876 0 0 0 1.2-.322.879.879 0 0 0-.321-1.2zm9.678-24.859l3.232 1.867a.879.879 0 1 0 .879-1.522l-3.232-1.867a.879.879 0 1 0-.88 1.522z" fill="#000" stroke="#F5F2EF" mask="url(#a)"/></svg>