<svg width="14" height="16" fill="none" xmlns="http://www.w3.org/2000/svg"><path d="M14 11.25V.75a.76.76 0 0 0-.75-.75H3a3 3 0 0 0-3 3v10a3 3 0 0 0 3 3h10.25a.74.74 0 0 0 .75-.75v-.5a.76.76 0 0 0-.281-.563c-.156-.5-.156-1.874 0-2.343A.774.774 0 0 0 14 11.25zM4 4.187C4 4.095 4.063 4 4.188 4h6.625c.093 0 .187.094.187.188v.625c0 .125-.094.187-.188.187H4.189C4.063 5 4 4.937 4 4.812v-.625zm0 2C4 6.095 4.063 6 4.188 6h6.625c.093 0 .187.094.187.188v.625c0 .125-.094.187-.188.187H4.189C4.063 7 4 6.937 4 6.812v-.625zM11.906 14H3c-.563 0-1-.438-1-1 0-.531.438-1 1-1h8.906a10.706 10.706 0 0 0 0 2z" fill="#CCC"/></svg>