<svg width="19" height="14" fill="none" xmlns="http://www.w3.org/2000/svg"><path d="M9.75 3.656L4 8.406V13.5c0 .281.219.5.5.5H8c.25 0 .469-.219.469-.5v-3c0-.25.25-.5.5-.5h2c.281 0 .5.25.5.5v3c0 .281.25.5.5.5H15.5c.25 0 .5-.219.5-.5V8.375l-5.781-4.719A.338.338 0 0 0 10 3.562a.355.355 0 0 0-.25.094zm9.094 3.219L16.25 4.719V.406a.38.38 0 0 0-.375-.375h-1.75a.361.361 0 0 0-.375.375v2.25L10.937.344C10.72.156 10.281.03 9.97.03c-.281 0-.719.125-.938.313L1.125 6.875a.373.373 0 0 0-.156.281c0 .094.062.188.094.25l.812.969a.465.465 0 0 0 .281.125.416.416 0 0 0 .25-.094L9.75 2.375a.355.355 0 0 1 .25-.094c.063 0 .156.031.219.094l7.344 6.031a.416.416 0 0 0 .25.094.466.466 0 0 0 .28-.125l.813-.969c.032-.062.094-.156.094-.25a.373.373 0 0 0-.156-.281z" fill="#CCC"/></svg>