<svg width="16" height="16" fill="none" xmlns="http://www.w3.org/2000/svg"><path d="M4.5 7C6.406 7 8 5.437 8 3.5 8 1.594 6.406 0 4.5 0 2.562 0 1 1.594 1 3.5 1 5.438 2.563 7 4.5 7zm0-5C5.313 2 6 2.688 6 3.5A1.5 1.5 0 0 1 4.5 5 1.48 1.48 0 0 1 3 3.5 1.5 1.5 0 0 1 4.5 2zm7 7C9.562 9 8 10.594 8 12.5c0 1.938 1.563 3.5 3.5 3.5 1.906 0 3.5-1.563 3.5-3.5 0-1.906-1.594-3.5-3.5-3.5zm0 5a1.48 1.48 0 0 1-1.5-1.5 1.5 1.5 0 0 1 1.5-1.5c.813 0 1.5.688 1.5 1.5a1.5 1.5 0 0 1-1.5 1.5zM13.25.031a.73.73 0 0 0-.625.313l-11.5 14.5c-.344.469 0 1.156.625 1.156h1.031c.219 0 .5-.125.625-.313l11.438-14.5c.344-.5 0-1.187-.625-1.156h-.969z" fill="#515855"/></svg>